<mxfile host="Electron" agent="Mozilla/5.0 (Windows NT 10.0; Win64; x64) AppleWebKit/537.36 (KHTML, like Gecko) draw.io/24.7.17 Chrome/128.0.6613.36 Electron/32.0.1 Safari/537.36" version="24.7.17">
  <diagram id="R2lEEEUBdFMjLlhIrx00" name="Page-1">
    <mxGraphModel dx="3813" dy="2809" grid="1" gridSize="10" guides="1" tooltips="1" connect="1" arrows="1" fold="1" page="1" pageScale="1" pageWidth="850" pageHeight="1100" math="0" shadow="0" extFonts="Permanent Marker^https://fonts.googleapis.com/css?family=Permanent+Marker">
      <root>
        <mxCell id="0" />
        <mxCell id="1" parent="0" />
        <mxCell id="fPLku5I8h9IwEL0rfJYV-14" value="RESERVA" style="shape=table;startSize=30;container=1;collapsible=1;childLayout=tableLayout;fixedRows=1;rowLines=0;fontStyle=1;align=center;resizeLast=1;html=1;whiteSpace=wrap;" vertex="1" parent="1">
          <mxGeometry x="-140" y="445" width="180" height="210" as="geometry" />
        </mxCell>
        <mxCell id="fPLku5I8h9IwEL0rfJYV-15" value="" style="shape=tableRow;horizontal=0;startSize=0;swimlaneHead=0;swimlaneBody=0;fillColor=none;collapsible=0;dropTarget=0;points=[[0,0.5],[1,0.5]];portConstraint=eastwest;top=0;left=0;right=0;bottom=0;html=1;" vertex="1" parent="fPLku5I8h9IwEL0rfJYV-14">
          <mxGeometry y="30" width="180" height="30" as="geometry" />
        </mxCell>
        <mxCell id="fPLku5I8h9IwEL0rfJYV-16" value="FK" style="shape=partialRectangle;connectable=0;fillColor=none;top=0;left=0;bottom=0;right=0;fontStyle=1;overflow=hidden;html=1;whiteSpace=wrap;" vertex="1" parent="fPLku5I8h9IwEL0rfJYV-15">
          <mxGeometry width="60" height="30" as="geometry">
            <mxRectangle width="60" height="30" as="alternateBounds" />
          </mxGeometry>
        </mxCell>
        <mxCell id="fPLku5I8h9IwEL0rfJYV-17" value="CODIGO" style="shape=partialRectangle;connectable=0;fillColor=none;top=0;left=0;bottom=0;right=0;align=left;spacingLeft=6;fontStyle=5;overflow=hidden;html=1;whiteSpace=wrap;" vertex="1" parent="fPLku5I8h9IwEL0rfJYV-15">
          <mxGeometry x="60" width="120" height="30" as="geometry">
            <mxRectangle width="120" height="30" as="alternateBounds" />
          </mxGeometry>
        </mxCell>
        <mxCell id="fPLku5I8h9IwEL0rfJYV-18" value="" style="shape=tableRow;horizontal=0;startSize=0;swimlaneHead=0;swimlaneBody=0;fillColor=none;collapsible=0;dropTarget=0;points=[[0,0.5],[1,0.5]];portConstraint=eastwest;top=0;left=0;right=0;bottom=1;html=1;" vertex="1" parent="fPLku5I8h9IwEL0rfJYV-14">
          <mxGeometry y="60" width="180" height="45" as="geometry" />
        </mxCell>
        <mxCell id="fPLku5I8h9IwEL0rfJYV-19" value="FK" style="shape=partialRectangle;connectable=0;fillColor=none;top=0;left=0;bottom=0;right=0;fontStyle=1;overflow=hidden;html=1;whiteSpace=wrap;" vertex="1" parent="fPLku5I8h9IwEL0rfJYV-18">
          <mxGeometry width="60" height="45" as="geometry">
            <mxRectangle width="60" height="45" as="alternateBounds" />
          </mxGeometry>
        </mxCell>
        <mxCell id="fPLku5I8h9IwEL0rfJYV-20" value="CÃ“DIGO" style="shape=partialRectangle;connectable=0;fillColor=none;top=0;left=0;bottom=0;right=0;align=left;spacingLeft=6;fontStyle=5;overflow=hidden;html=1;whiteSpace=wrap;" vertex="1" parent="fPLku5I8h9IwEL0rfJYV-18">
          <mxGeometry x="60" width="120" height="45" as="geometry">
            <mxRectangle width="120" height="45" as="alternateBounds" />
          </mxGeometry>
        </mxCell>
        <mxCell id="fPLku5I8h9IwEL0rfJYV-140" style="shape=tableRow;horizontal=0;startSize=0;swimlaneHead=0;swimlaneBody=0;fillColor=none;collapsible=0;dropTarget=0;points=[[0,0.5],[1,0.5]];portConstraint=eastwest;top=0;left=0;right=0;bottom=1;html=1;" vertex="1" parent="fPLku5I8h9IwEL0rfJYV-14">
          <mxGeometry y="105" width="180" height="45" as="geometry" />
        </mxCell>
        <mxCell id="fPLku5I8h9IwEL0rfJYV-141" value="FK" style="shape=partialRectangle;connectable=0;fillColor=none;top=0;left=0;bottom=0;right=0;fontStyle=1;overflow=hidden;html=1;whiteSpace=wrap;" vertex="1" parent="fPLku5I8h9IwEL0rfJYV-140">
          <mxGeometry width="60" height="45" as="geometry">
            <mxRectangle width="60" height="45" as="alternateBounds" />
          </mxGeometry>
        </mxCell>
        <mxCell id="fPLku5I8h9IwEL0rfJYV-142" value="NIF" style="shape=partialRectangle;connectable=0;fillColor=none;top=0;left=0;bottom=0;right=0;align=left;spacingLeft=6;fontStyle=5;overflow=hidden;html=1;whiteSpace=wrap;" vertex="1" parent="fPLku5I8h9IwEL0rfJYV-140">
          <mxGeometry x="60" width="120" height="45" as="geometry">
            <mxRectangle width="120" height="45" as="alternateBounds" />
          </mxGeometry>
        </mxCell>
        <mxCell id="fPLku5I8h9IwEL0rfJYV-21" value="" style="shape=tableRow;horizontal=0;startSize=0;swimlaneHead=0;swimlaneBody=0;fillColor=none;collapsible=0;dropTarget=0;points=[[0,0.5],[1,0.5]];portConstraint=eastwest;top=0;left=0;right=0;bottom=0;html=1;" vertex="1" parent="fPLku5I8h9IwEL0rfJYV-14">
          <mxGeometry y="150" width="180" height="30" as="geometry" />
        </mxCell>
        <mxCell id="fPLku5I8h9IwEL0rfJYV-22" value="" style="shape=partialRectangle;connectable=0;fillColor=none;top=0;left=0;bottom=0;right=0;editable=1;overflow=hidden;html=1;whiteSpace=wrap;" vertex="1" parent="fPLku5I8h9IwEL0rfJYV-21">
          <mxGeometry width="60" height="30" as="geometry">
            <mxRectangle width="60" height="30" as="alternateBounds" />
          </mxGeometry>
        </mxCell>
        <mxCell id="fPLku5I8h9IwEL0rfJYV-23" value="" style="shape=partialRectangle;connectable=0;fillColor=none;top=0;left=0;bottom=0;right=0;align=left;spacingLeft=6;overflow=hidden;html=1;whiteSpace=wrap;" vertex="1" parent="fPLku5I8h9IwEL0rfJYV-21">
          <mxGeometry x="60" width="120" height="30" as="geometry">
            <mxRectangle width="120" height="30" as="alternateBounds" />
          </mxGeometry>
        </mxCell>
        <mxCell id="fPLku5I8h9IwEL0rfJYV-24" value="" style="shape=tableRow;horizontal=0;startSize=0;swimlaneHead=0;swimlaneBody=0;fillColor=none;collapsible=0;dropTarget=0;points=[[0,0.5],[1,0.5]];portConstraint=eastwest;top=0;left=0;right=0;bottom=0;html=1;" vertex="1" parent="fPLku5I8h9IwEL0rfJYV-14">
          <mxGeometry y="180" width="180" height="30" as="geometry" />
        </mxCell>
        <mxCell id="fPLku5I8h9IwEL0rfJYV-25" value="" style="shape=partialRectangle;connectable=0;fillColor=none;top=0;left=0;bottom=0;right=0;editable=1;overflow=hidden;html=1;whiteSpace=wrap;" vertex="1" parent="fPLku5I8h9IwEL0rfJYV-24">
          <mxGeometry width="60" height="30" as="geometry">
            <mxRectangle width="60" height="30" as="alternateBounds" />
          </mxGeometry>
        </mxCell>
        <mxCell id="fPLku5I8h9IwEL0rfJYV-26" value="" style="shape=partialRectangle;connectable=0;fillColor=none;top=0;left=0;bottom=0;right=0;align=left;spacingLeft=6;overflow=hidden;html=1;whiteSpace=wrap;" vertex="1" parent="fPLku5I8h9IwEL0rfJYV-24">
          <mxGeometry x="60" width="120" height="30" as="geometry">
            <mxRectangle width="120" height="30" as="alternateBounds" />
          </mxGeometry>
        </mxCell>
        <mxCell id="fPLku5I8h9IwEL0rfJYV-53" value="AGENCIA" style="shape=table;startSize=30;container=1;collapsible=1;childLayout=tableLayout;fixedRows=1;rowLines=0;fontStyle=1;align=center;resizeLast=1;html=1;" vertex="1" parent="1">
          <mxGeometry x="90" width="180" height="170" as="geometry" />
        </mxCell>
        <mxCell id="fPLku5I8h9IwEL0rfJYV-54" value="" style="shape=tableRow;horizontal=0;startSize=0;swimlaneHead=0;swimlaneBody=0;fillColor=none;collapsible=0;dropTarget=0;points=[[0,0.5],[1,0.5]];portConstraint=eastwest;top=0;left=0;right=0;bottom=1;" vertex="1" parent="fPLku5I8h9IwEL0rfJYV-53">
          <mxGeometry y="30" width="180" height="30" as="geometry" />
        </mxCell>
        <mxCell id="fPLku5I8h9IwEL0rfJYV-55" value="PK" style="shape=partialRectangle;connectable=0;fillColor=none;top=0;left=0;bottom=0;right=0;fontStyle=1;overflow=hidden;whiteSpace=wrap;html=1;" vertex="1" parent="fPLku5I8h9IwEL0rfJYV-54">
          <mxGeometry width="30" height="30" as="geometry">
            <mxRectangle width="30" height="30" as="alternateBounds" />
          </mxGeometry>
        </mxCell>
        <mxCell id="fPLku5I8h9IwEL0rfJYV-56" value="ZONA" style="shape=partialRectangle;connectable=0;fillColor=none;top=0;left=0;bottom=0;right=0;align=left;spacingLeft=6;fontStyle=5;overflow=hidden;whiteSpace=wrap;html=1;" vertex="1" parent="fPLku5I8h9IwEL0rfJYV-54">
          <mxGeometry x="30" width="150" height="30" as="geometry">
            <mxRectangle width="150" height="30" as="alternateBounds" />
          </mxGeometry>
        </mxCell>
        <mxCell id="fPLku5I8h9IwEL0rfJYV-118" style="shape=tableRow;horizontal=0;startSize=0;swimlaneHead=0;swimlaneBody=0;fillColor=none;collapsible=0;dropTarget=0;points=[[0,0.5],[1,0.5]];portConstraint=eastwest;top=0;left=0;right=0;bottom=1;" vertex="1" parent="fPLku5I8h9IwEL0rfJYV-53">
          <mxGeometry y="60" width="180" height="20" as="geometry" />
        </mxCell>
        <mxCell id="fPLku5I8h9IwEL0rfJYV-119" value="" style="shape=partialRectangle;connectable=0;fillColor=none;top=0;left=0;bottom=0;right=0;fontStyle=1;overflow=hidden;whiteSpace=wrap;html=1;" vertex="1" parent="fPLku5I8h9IwEL0rfJYV-118">
          <mxGeometry width="30" height="20" as="geometry">
            <mxRectangle width="30" height="20" as="alternateBounds" />
          </mxGeometry>
        </mxCell>
        <mxCell id="fPLku5I8h9IwEL0rfJYV-120" value="" style="shape=partialRectangle;connectable=0;fillColor=none;top=0;left=0;bottom=0;right=0;align=left;spacingLeft=6;fontStyle=5;overflow=hidden;whiteSpace=wrap;html=1;" vertex="1" parent="fPLku5I8h9IwEL0rfJYV-118">
          <mxGeometry x="30" width="150" height="20" as="geometry">
            <mxRectangle width="150" height="20" as="alternateBounds" />
          </mxGeometry>
        </mxCell>
        <mxCell id="fPLku5I8h9IwEL0rfJYV-57" value="" style="shape=tableRow;horizontal=0;startSize=0;swimlaneHead=0;swimlaneBody=0;fillColor=none;collapsible=0;dropTarget=0;points=[[0,0.5],[1,0.5]];portConstraint=eastwest;top=0;left=0;right=0;bottom=0;" vertex="1" parent="fPLku5I8h9IwEL0rfJYV-53">
          <mxGeometry y="80" width="180" height="30" as="geometry" />
        </mxCell>
        <mxCell id="fPLku5I8h9IwEL0rfJYV-58" value="" style="shape=partialRectangle;connectable=0;fillColor=none;top=0;left=0;bottom=0;right=0;editable=1;overflow=hidden;whiteSpace=wrap;html=1;" vertex="1" parent="fPLku5I8h9IwEL0rfJYV-57">
          <mxGeometry width="30" height="30" as="geometry">
            <mxRectangle width="30" height="30" as="alternateBounds" />
          </mxGeometry>
        </mxCell>
        <mxCell id="fPLku5I8h9IwEL0rfJYV-59" value="TITULAR" style="shape=partialRectangle;connectable=0;fillColor=none;top=0;left=0;bottom=0;right=0;align=left;spacingLeft=6;overflow=hidden;whiteSpace=wrap;html=1;" vertex="1" parent="fPLku5I8h9IwEL0rfJYV-57">
          <mxGeometry x="30" width="150" height="30" as="geometry">
            <mxRectangle width="150" height="30" as="alternateBounds" />
          </mxGeometry>
        </mxCell>
        <mxCell id="fPLku5I8h9IwEL0rfJYV-60" value="" style="shape=tableRow;horizontal=0;startSize=0;swimlaneHead=0;swimlaneBody=0;fillColor=none;collapsible=0;dropTarget=0;points=[[0,0.5],[1,0.5]];portConstraint=eastwest;top=0;left=0;right=0;bottom=0;" vertex="1" parent="fPLku5I8h9IwEL0rfJYV-53">
          <mxGeometry y="110" width="180" height="30" as="geometry" />
        </mxCell>
        <mxCell id="fPLku5I8h9IwEL0rfJYV-61" value="" style="shape=partialRectangle;connectable=0;fillColor=none;top=0;left=0;bottom=0;right=0;editable=1;overflow=hidden;whiteSpace=wrap;html=1;" vertex="1" parent="fPLku5I8h9IwEL0rfJYV-60">
          <mxGeometry width="30" height="30" as="geometry">
            <mxRectangle width="30" height="30" as="alternateBounds" />
          </mxGeometry>
        </mxCell>
        <mxCell id="fPLku5I8h9IwEL0rfJYV-62" value="DIRECCIÃ“N" style="shape=partialRectangle;connectable=0;fillColor=none;top=0;left=0;bottom=0;right=0;align=left;spacingLeft=6;overflow=hidden;whiteSpace=wrap;html=1;" vertex="1" parent="fPLku5I8h9IwEL0rfJYV-60">
          <mxGeometry x="30" width="150" height="30" as="geometry">
            <mxRectangle width="150" height="30" as="alternateBounds" />
          </mxGeometry>
        </mxCell>
        <mxCell id="fPLku5I8h9IwEL0rfJYV-63" value="" style="shape=tableRow;horizontal=0;startSize=0;swimlaneHead=0;swimlaneBody=0;fillColor=none;collapsible=0;dropTarget=0;points=[[0,0.5],[1,0.5]];portConstraint=eastwest;top=0;left=0;right=0;bottom=0;" vertex="1" parent="fPLku5I8h9IwEL0rfJYV-53">
          <mxGeometry y="140" width="180" height="30" as="geometry" />
        </mxCell>
        <mxCell id="fPLku5I8h9IwEL0rfJYV-64" value="" style="shape=partialRectangle;connectable=0;fillColor=none;top=0;left=0;bottom=0;right=0;editable=1;overflow=hidden;whiteSpace=wrap;html=1;" vertex="1" parent="fPLku5I8h9IwEL0rfJYV-63">
          <mxGeometry width="30" height="30" as="geometry">
            <mxRectangle width="30" height="30" as="alternateBounds" />
          </mxGeometry>
        </mxCell>
        <mxCell id="fPLku5I8h9IwEL0rfJYV-65" value="FAX" style="shape=partialRectangle;connectable=0;fillColor=none;top=0;left=0;bottom=0;right=0;align=left;spacingLeft=6;overflow=hidden;whiteSpace=wrap;html=1;" vertex="1" parent="fPLku5I8h9IwEL0rfJYV-63">
          <mxGeometry x="30" width="150" height="30" as="geometry">
            <mxRectangle width="150" height="30" as="alternateBounds" />
          </mxGeometry>
        </mxCell>
        <mxCell id="fPLku5I8h9IwEL0rfJYV-79" value="INMUEBLE" style="shape=table;startSize=35;container=1;collapsible=1;childLayout=tableLayout;fixedRows=1;rowLines=0;fontStyle=1;align=center;resizeLast=1;html=1;" vertex="1" parent="1">
          <mxGeometry x="160" y="515" width="180" height="155" as="geometry" />
        </mxCell>
        <mxCell id="fPLku5I8h9IwEL0rfJYV-80" value="" style="shape=tableRow;horizontal=0;startSize=0;swimlaneHead=0;swimlaneBody=0;fillColor=none;collapsible=0;dropTarget=0;points=[[0,0.5],[1,0.5]];portConstraint=eastwest;top=0;left=0;right=0;bottom=1;" vertex="1" parent="fPLku5I8h9IwEL0rfJYV-79">
          <mxGeometry y="35" width="180" height="30" as="geometry" />
        </mxCell>
        <mxCell id="fPLku5I8h9IwEL0rfJYV-81" value="PK" style="shape=partialRectangle;connectable=0;fillColor=none;top=0;left=0;bottom=0;right=0;fontStyle=1;overflow=hidden;whiteSpace=wrap;html=1;" vertex="1" parent="fPLku5I8h9IwEL0rfJYV-80">
          <mxGeometry width="30" height="30" as="geometry">
            <mxRectangle width="30" height="30" as="alternateBounds" />
          </mxGeometry>
        </mxCell>
        <mxCell id="fPLku5I8h9IwEL0rfJYV-82" value="CÃ“DIGO" style="shape=partialRectangle;connectable=0;fillColor=none;top=0;left=0;bottom=0;right=0;align=left;spacingLeft=6;fontStyle=5;overflow=hidden;whiteSpace=wrap;html=1;" vertex="1" parent="fPLku5I8h9IwEL0rfJYV-80">
          <mxGeometry x="30" width="150" height="30" as="geometry">
            <mxRectangle width="150" height="30" as="alternateBounds" />
          </mxGeometry>
        </mxCell>
        <mxCell id="fPLku5I8h9IwEL0rfJYV-83" value="" style="shape=tableRow;horizontal=0;startSize=0;swimlaneHead=0;swimlaneBody=0;fillColor=none;collapsible=0;dropTarget=0;points=[[0,0.5],[1,0.5]];portConstraint=eastwest;top=0;left=0;right=0;bottom=0;" vertex="1" parent="fPLku5I8h9IwEL0rfJYV-79">
          <mxGeometry y="65" width="180" height="30" as="geometry" />
        </mxCell>
        <mxCell id="fPLku5I8h9IwEL0rfJYV-84" value="" style="shape=partialRectangle;connectable=0;fillColor=none;top=0;left=0;bottom=0;right=0;editable=1;overflow=hidden;whiteSpace=wrap;html=1;" vertex="1" parent="fPLku5I8h9IwEL0rfJYV-83">
          <mxGeometry width="30" height="30" as="geometry">
            <mxRectangle width="30" height="30" as="alternateBounds" />
          </mxGeometry>
        </mxCell>
        <mxCell id="fPLku5I8h9IwEL0rfJYV-85" value="PROPIETARIO" style="shape=partialRectangle;connectable=0;fillColor=none;top=0;left=0;bottom=0;right=0;align=left;spacingLeft=6;overflow=hidden;whiteSpace=wrap;html=1;" vertex="1" parent="fPLku5I8h9IwEL0rfJYV-83">
          <mxGeometry x="30" width="150" height="30" as="geometry">
            <mxRectangle width="150" height="30" as="alternateBounds" />
          </mxGeometry>
        </mxCell>
        <mxCell id="fPLku5I8h9IwEL0rfJYV-86" value="" style="shape=tableRow;horizontal=0;startSize=0;swimlaneHead=0;swimlaneBody=0;fillColor=none;collapsible=0;dropTarget=0;points=[[0,0.5],[1,0.5]];portConstraint=eastwest;top=0;left=0;right=0;bottom=0;" vertex="1" parent="fPLku5I8h9IwEL0rfJYV-79">
          <mxGeometry y="95" width="180" height="30" as="geometry" />
        </mxCell>
        <mxCell id="fPLku5I8h9IwEL0rfJYV-87" value="" style="shape=partialRectangle;connectable=0;fillColor=none;top=0;left=0;bottom=0;right=0;editable=1;overflow=hidden;whiteSpace=wrap;html=1;" vertex="1" parent="fPLku5I8h9IwEL0rfJYV-86">
          <mxGeometry width="30" height="30" as="geometry">
            <mxRectangle width="30" height="30" as="alternateBounds" />
          </mxGeometry>
        </mxCell>
        <mxCell id="fPLku5I8h9IwEL0rfJYV-88" value="DIRECCIÃ“N" style="shape=partialRectangle;connectable=0;fillColor=none;top=0;left=0;bottom=0;right=0;align=left;spacingLeft=6;overflow=hidden;whiteSpace=wrap;html=1;" vertex="1" parent="fPLku5I8h9IwEL0rfJYV-86">
          <mxGeometry x="30" width="150" height="30" as="geometry">
            <mxRectangle width="150" height="30" as="alternateBounds" />
          </mxGeometry>
        </mxCell>
        <mxCell id="fPLku5I8h9IwEL0rfJYV-89" value="" style="shape=tableRow;horizontal=0;startSize=0;swimlaneHead=0;swimlaneBody=0;fillColor=none;collapsible=0;dropTarget=0;points=[[0,0.5],[1,0.5]];portConstraint=eastwest;top=0;left=0;right=0;bottom=0;" vertex="1" parent="fPLku5I8h9IwEL0rfJYV-79">
          <mxGeometry y="125" width="180" height="30" as="geometry" />
        </mxCell>
        <mxCell id="fPLku5I8h9IwEL0rfJYV-90" value="" style="shape=partialRectangle;connectable=0;fillColor=none;top=0;left=0;bottom=0;right=0;editable=1;overflow=hidden;whiteSpace=wrap;html=1;" vertex="1" parent="fPLku5I8h9IwEL0rfJYV-89">
          <mxGeometry width="30" height="30" as="geometry">
            <mxRectangle width="30" height="30" as="alternateBounds" />
          </mxGeometry>
        </mxCell>
        <mxCell id="fPLku5I8h9IwEL0rfJYV-91" value="SUPERFICIE" style="shape=partialRectangle;connectable=0;fillColor=none;top=0;left=0;bottom=0;right=0;align=left;spacingLeft=6;overflow=hidden;whiteSpace=wrap;html=1;" vertex="1" parent="fPLku5I8h9IwEL0rfJYV-89">
          <mxGeometry x="30" width="150" height="30" as="geometry">
            <mxRectangle width="150" height="30" as="alternateBounds" />
          </mxGeometry>
        </mxCell>
        <mxCell id="fPLku5I8h9IwEL0rfJYV-92" value="CLIENTE" style="shape=table;startSize=30;container=1;collapsible=1;childLayout=tableLayout;fixedRows=1;rowLines=0;fontStyle=1;align=center;resizeLast=1;html=1;" vertex="1" parent="1">
          <mxGeometry x="-650" y="400" width="200" height="150" as="geometry" />
        </mxCell>
        <mxCell id="fPLku5I8h9IwEL0rfJYV-93" value="" style="shape=tableRow;horizontal=0;startSize=0;swimlaneHead=0;swimlaneBody=0;fillColor=none;collapsible=0;dropTarget=0;points=[[0,0.5],[1,0.5]];portConstraint=eastwest;top=0;left=0;right=0;bottom=1;" vertex="1" parent="fPLku5I8h9IwEL0rfJYV-92">
          <mxGeometry y="30" width="200" height="30" as="geometry" />
        </mxCell>
        <mxCell id="fPLku5I8h9IwEL0rfJYV-94" value="PK" style="shape=partialRectangle;connectable=0;fillColor=none;top=0;left=0;bottom=0;right=0;fontStyle=1;overflow=hidden;whiteSpace=wrap;html=1;" vertex="1" parent="fPLku5I8h9IwEL0rfJYV-93">
          <mxGeometry width="30" height="30" as="geometry">
            <mxRectangle width="30" height="30" as="alternateBounds" />
          </mxGeometry>
        </mxCell>
        <mxCell id="fPLku5I8h9IwEL0rfJYV-95" value="NIF" style="shape=partialRectangle;connectable=0;fillColor=none;top=0;left=0;bottom=0;right=0;align=left;spacingLeft=6;fontStyle=5;overflow=hidden;whiteSpace=wrap;html=1;" vertex="1" parent="fPLku5I8h9IwEL0rfJYV-93">
          <mxGeometry x="30" width="170" height="30" as="geometry">
            <mxRectangle width="170" height="30" as="alternateBounds" />
          </mxGeometry>
        </mxCell>
        <mxCell id="fPLku5I8h9IwEL0rfJYV-96" value="" style="shape=tableRow;horizontal=0;startSize=0;swimlaneHead=0;swimlaneBody=0;fillColor=none;collapsible=0;dropTarget=0;points=[[0,0.5],[1,0.5]];portConstraint=eastwest;top=0;left=0;right=0;bottom=0;" vertex="1" parent="fPLku5I8h9IwEL0rfJYV-92">
          <mxGeometry y="60" width="200" height="30" as="geometry" />
        </mxCell>
        <mxCell id="fPLku5I8h9IwEL0rfJYV-97" value="" style="shape=partialRectangle;connectable=0;fillColor=none;top=0;left=0;bottom=0;right=0;editable=1;overflow=hidden;whiteSpace=wrap;html=1;" vertex="1" parent="fPLku5I8h9IwEL0rfJYV-96">
          <mxGeometry width="30" height="30" as="geometry">
            <mxRectangle width="30" height="30" as="alternateBounds" />
          </mxGeometry>
        </mxCell>
        <mxCell id="fPLku5I8h9IwEL0rfJYV-98" value="NOMBRE" style="shape=partialRectangle;connectable=0;fillColor=none;top=0;left=0;bottom=0;right=0;align=left;spacingLeft=6;overflow=hidden;whiteSpace=wrap;html=1;" vertex="1" parent="fPLku5I8h9IwEL0rfJYV-96">
          <mxGeometry x="30" width="170" height="30" as="geometry">
            <mxRectangle width="170" height="30" as="alternateBounds" />
          </mxGeometry>
        </mxCell>
        <mxCell id="fPLku5I8h9IwEL0rfJYV-99" value="" style="shape=tableRow;horizontal=0;startSize=0;swimlaneHead=0;swimlaneBody=0;fillColor=none;collapsible=0;dropTarget=0;points=[[0,0.5],[1,0.5]];portConstraint=eastwest;top=0;left=0;right=0;bottom=0;" vertex="1" parent="fPLku5I8h9IwEL0rfJYV-92">
          <mxGeometry y="90" width="200" height="30" as="geometry" />
        </mxCell>
        <mxCell id="fPLku5I8h9IwEL0rfJYV-100" value="" style="shape=partialRectangle;connectable=0;fillColor=none;top=0;left=0;bottom=0;right=0;editable=1;overflow=hidden;whiteSpace=wrap;html=1;" vertex="1" parent="fPLku5I8h9IwEL0rfJYV-99">
          <mxGeometry width="30" height="30" as="geometry">
            <mxRectangle width="30" height="30" as="alternateBounds" />
          </mxGeometry>
        </mxCell>
        <mxCell id="fPLku5I8h9IwEL0rfJYV-101" value="TELEFONO" style="shape=partialRectangle;connectable=0;fillColor=none;top=0;left=0;bottom=0;right=0;align=left;spacingLeft=6;overflow=hidden;whiteSpace=wrap;html=1;" vertex="1" parent="fPLku5I8h9IwEL0rfJYV-99">
          <mxGeometry x="30" width="170" height="30" as="geometry">
            <mxRectangle width="170" height="30" as="alternateBounds" />
          </mxGeometry>
        </mxCell>
        <mxCell id="fPLku5I8h9IwEL0rfJYV-102" value="" style="shape=tableRow;horizontal=0;startSize=0;swimlaneHead=0;swimlaneBody=0;fillColor=none;collapsible=0;dropTarget=0;points=[[0,0.5],[1,0.5]];portConstraint=eastwest;top=0;left=0;right=0;bottom=0;" vertex="1" parent="fPLku5I8h9IwEL0rfJYV-92">
          <mxGeometry y="120" width="200" height="30" as="geometry" />
        </mxCell>
        <mxCell id="fPLku5I8h9IwEL0rfJYV-103" value="" style="shape=partialRectangle;connectable=0;fillColor=none;top=0;left=0;bottom=0;right=0;editable=1;overflow=hidden;whiteSpace=wrap;html=1;" vertex="1" parent="fPLku5I8h9IwEL0rfJYV-102">
          <mxGeometry width="30" height="30" as="geometry">
            <mxRectangle width="30" height="30" as="alternateBounds" />
          </mxGeometry>
        </mxCell>
        <mxCell id="fPLku5I8h9IwEL0rfJYV-104" value="" style="shape=partialRectangle;connectable=0;fillColor=none;top=0;left=0;bottom=0;right=0;align=left;spacingLeft=6;overflow=hidden;whiteSpace=wrap;html=1;" vertex="1" parent="fPLku5I8h9IwEL0rfJYV-102">
          <mxGeometry x="30" width="170" height="30" as="geometry">
            <mxRectangle width="170" height="30" as="alternateBounds" />
          </mxGeometry>
        </mxCell>
        <mxCell id="fPLku5I8h9IwEL0rfJYV-124" value="TELEFONO" style="shape=table;startSize=30;container=1;collapsible=1;childLayout=tableLayout;fixedRows=1;rowLines=0;fontStyle=1;align=center;resizeLast=1;html=1;" vertex="1" parent="1">
          <mxGeometry x="580" y="-30" width="180" height="170" as="geometry" />
        </mxCell>
        <mxCell id="fPLku5I8h9IwEL0rfJYV-125" value="" style="shape=tableRow;horizontal=0;startSize=0;swimlaneHead=0;swimlaneBody=0;fillColor=none;collapsible=0;dropTarget=0;points=[[0,0.5],[1,0.5]];portConstraint=eastwest;top=0;left=0;right=0;bottom=1;" vertex="1" parent="fPLku5I8h9IwEL0rfJYV-124">
          <mxGeometry y="30" width="180" height="30" as="geometry" />
        </mxCell>
        <mxCell id="fPLku5I8h9IwEL0rfJYV-126" value="PK" style="shape=partialRectangle;connectable=0;fillColor=none;top=0;left=0;bottom=0;right=0;fontStyle=1;overflow=hidden;whiteSpace=wrap;html=1;" vertex="1" parent="fPLku5I8h9IwEL0rfJYV-125">
          <mxGeometry width="30" height="30" as="geometry">
            <mxRectangle width="30" height="30" as="alternateBounds" />
          </mxGeometry>
        </mxCell>
        <mxCell id="fPLku5I8h9IwEL0rfJYV-127" value="TELEFONO" style="shape=partialRectangle;connectable=0;fillColor=none;top=0;left=0;bottom=0;right=0;align=left;spacingLeft=6;fontStyle=5;overflow=hidden;whiteSpace=wrap;html=1;" vertex="1" parent="fPLku5I8h9IwEL0rfJYV-125">
          <mxGeometry x="30" width="150" height="30" as="geometry">
            <mxRectangle width="150" height="30" as="alternateBounds" />
          </mxGeometry>
        </mxCell>
        <mxCell id="fPLku5I8h9IwEL0rfJYV-128" style="shape=tableRow;horizontal=0;startSize=0;swimlaneHead=0;swimlaneBody=0;fillColor=none;collapsible=0;dropTarget=0;points=[[0,0.5],[1,0.5]];portConstraint=eastwest;top=0;left=0;right=0;bottom=1;" vertex="1" parent="fPLku5I8h9IwEL0rfJYV-124">
          <mxGeometry y="60" width="180" height="30" as="geometry" />
        </mxCell>
        <mxCell id="fPLku5I8h9IwEL0rfJYV-129" value="FK" style="shape=partialRectangle;connectable=0;fillColor=none;top=0;left=0;bottom=0;right=0;fontStyle=1;overflow=hidden;whiteSpace=wrap;html=1;" vertex="1" parent="fPLku5I8h9IwEL0rfJYV-128">
          <mxGeometry width="30" height="30" as="geometry">
            <mxRectangle width="30" height="30" as="alternateBounds" />
          </mxGeometry>
        </mxCell>
        <mxCell id="fPLku5I8h9IwEL0rfJYV-130" value="ZONA" style="shape=partialRectangle;connectable=0;fillColor=none;top=0;left=0;bottom=0;right=0;align=left;spacingLeft=6;fontStyle=5;overflow=hidden;whiteSpace=wrap;html=1;" vertex="1" parent="fPLku5I8h9IwEL0rfJYV-128">
          <mxGeometry x="30" width="150" height="30" as="geometry">
            <mxRectangle width="150" height="30" as="alternateBounds" />
          </mxGeometry>
        </mxCell>
        <mxCell id="fPLku5I8h9IwEL0rfJYV-131" value="" style="shape=tableRow;horizontal=0;startSize=0;swimlaneHead=0;swimlaneBody=0;fillColor=none;collapsible=0;dropTarget=0;points=[[0,0.5],[1,0.5]];portConstraint=eastwest;top=0;left=0;right=0;bottom=0;" vertex="1" parent="fPLku5I8h9IwEL0rfJYV-124">
          <mxGeometry y="90" width="180" height="30" as="geometry" />
        </mxCell>
        <mxCell id="fPLku5I8h9IwEL0rfJYV-132" value="" style="shape=partialRectangle;connectable=0;fillColor=none;top=0;left=0;bottom=0;right=0;editable=1;overflow=hidden;whiteSpace=wrap;html=1;" vertex="1" parent="fPLku5I8h9IwEL0rfJYV-131">
          <mxGeometry width="30" height="30" as="geometry">
            <mxRectangle width="30" height="30" as="alternateBounds" />
          </mxGeometry>
        </mxCell>
        <mxCell id="fPLku5I8h9IwEL0rfJYV-133" value="" style="shape=partialRectangle;connectable=0;fillColor=none;top=0;left=0;bottom=0;right=0;align=left;spacingLeft=6;overflow=hidden;whiteSpace=wrap;html=1;" vertex="1" parent="fPLku5I8h9IwEL0rfJYV-131">
          <mxGeometry x="30" width="150" height="30" as="geometry">
            <mxRectangle width="150" height="30" as="alternateBounds" />
          </mxGeometry>
        </mxCell>
        <mxCell id="fPLku5I8h9IwEL0rfJYV-134" value="" style="shape=tableRow;horizontal=0;startSize=0;swimlaneHead=0;swimlaneBody=0;fillColor=none;collapsible=0;dropTarget=0;points=[[0,0.5],[1,0.5]];portConstraint=eastwest;top=0;left=0;right=0;bottom=0;" vertex="1" parent="fPLku5I8h9IwEL0rfJYV-124">
          <mxGeometry y="120" width="180" height="30" as="geometry" />
        </mxCell>
        <mxCell id="fPLku5I8h9IwEL0rfJYV-135" value="" style="shape=partialRectangle;connectable=0;fillColor=none;top=0;left=0;bottom=0;right=0;editable=1;overflow=hidden;whiteSpace=wrap;html=1;" vertex="1" parent="fPLku5I8h9IwEL0rfJYV-134">
          <mxGeometry width="30" height="30" as="geometry">
            <mxRectangle width="30" height="30" as="alternateBounds" />
          </mxGeometry>
        </mxCell>
        <mxCell id="fPLku5I8h9IwEL0rfJYV-136" value="" style="shape=partialRectangle;connectable=0;fillColor=none;top=0;left=0;bottom=0;right=0;align=left;spacingLeft=6;overflow=hidden;whiteSpace=wrap;html=1;" vertex="1" parent="fPLku5I8h9IwEL0rfJYV-134">
          <mxGeometry x="30" width="150" height="30" as="geometry">
            <mxRectangle width="150" height="30" as="alternateBounds" />
          </mxGeometry>
        </mxCell>
        <mxCell id="fPLku5I8h9IwEL0rfJYV-137" value="" style="shape=tableRow;horizontal=0;startSize=0;swimlaneHead=0;swimlaneBody=0;fillColor=none;collapsible=0;dropTarget=0;points=[[0,0.5],[1,0.5]];portConstraint=eastwest;top=0;left=0;right=0;bottom=0;" vertex="1" parent="fPLku5I8h9IwEL0rfJYV-124">
          <mxGeometry y="150" width="180" height="20" as="geometry" />
        </mxCell>
        <mxCell id="fPLku5I8h9IwEL0rfJYV-138" value="" style="shape=partialRectangle;connectable=0;fillColor=none;top=0;left=0;bottom=0;right=0;editable=1;overflow=hidden;whiteSpace=wrap;html=1;" vertex="1" parent="fPLku5I8h9IwEL0rfJYV-137">
          <mxGeometry width="30" height="20" as="geometry">
            <mxRectangle width="30" height="20" as="alternateBounds" />
          </mxGeometry>
        </mxCell>
        <mxCell id="fPLku5I8h9IwEL0rfJYV-139" value="" style="shape=partialRectangle;connectable=0;fillColor=none;top=0;left=0;bottom=0;right=0;align=left;spacingLeft=6;overflow=hidden;whiteSpace=wrap;html=1;" vertex="1" parent="fPLku5I8h9IwEL0rfJYV-137">
          <mxGeometry x="30" width="150" height="20" as="geometry">
            <mxRectangle width="150" height="20" as="alternateBounds" />
          </mxGeometry>
        </mxCell>
        <mxCell id="fPLku5I8h9IwEL0rfJYV-143" value="VENDEDOR" style="shape=table;startSize=35;container=1;collapsible=1;childLayout=tableLayout;fixedRows=1;rowLines=0;fontStyle=1;align=center;resizeLast=1;html=1;" vertex="1" parent="1">
          <mxGeometry x="-240" y="140" width="200" height="185" as="geometry" />
        </mxCell>
        <mxCell id="fPLku5I8h9IwEL0rfJYV-144" value="" style="shape=tableRow;horizontal=0;startSize=0;swimlaneHead=0;swimlaneBody=0;fillColor=none;collapsible=0;dropTarget=0;points=[[0,0.5],[1,0.5]];portConstraint=eastwest;top=0;left=0;right=0;bottom=1;" vertex="1" parent="fPLku5I8h9IwEL0rfJYV-143">
          <mxGeometry y="35" width="200" height="30" as="geometry" />
        </mxCell>
        <mxCell id="fPLku5I8h9IwEL0rfJYV-145" value="PK" style="shape=partialRectangle;connectable=0;fillColor=none;top=0;left=0;bottom=0;right=0;fontStyle=1;overflow=hidden;whiteSpace=wrap;html=1;" vertex="1" parent="fPLku5I8h9IwEL0rfJYV-144">
          <mxGeometry width="30" height="30" as="geometry">
            <mxRectangle width="30" height="30" as="alternateBounds" />
          </mxGeometry>
        </mxCell>
        <mxCell id="fPLku5I8h9IwEL0rfJYV-146" value="CODIGO" style="shape=partialRectangle;connectable=0;fillColor=none;top=0;left=0;bottom=0;right=0;align=left;spacingLeft=6;fontStyle=5;overflow=hidden;whiteSpace=wrap;html=1;" vertex="1" parent="fPLku5I8h9IwEL0rfJYV-144">
          <mxGeometry x="30" width="170" height="30" as="geometry">
            <mxRectangle width="170" height="30" as="alternateBounds" />
          </mxGeometry>
        </mxCell>
        <mxCell id="fPLku5I8h9IwEL0rfJYV-157" style="shape=tableRow;horizontal=0;startSize=0;swimlaneHead=0;swimlaneBody=0;fillColor=none;collapsible=0;dropTarget=0;points=[[0,0.5],[1,0.5]];portConstraint=eastwest;top=0;left=0;right=0;bottom=1;" vertex="1" parent="fPLku5I8h9IwEL0rfJYV-143">
          <mxGeometry y="65" width="200" height="30" as="geometry" />
        </mxCell>
        <mxCell id="fPLku5I8h9IwEL0rfJYV-158" value="FK" style="shape=partialRectangle;connectable=0;fillColor=none;top=0;left=0;bottom=0;right=0;fontStyle=1;overflow=hidden;whiteSpace=wrap;html=1;" vertex="1" parent="fPLku5I8h9IwEL0rfJYV-157">
          <mxGeometry width="30" height="30" as="geometry">
            <mxRectangle width="30" height="30" as="alternateBounds" />
          </mxGeometry>
        </mxCell>
        <mxCell id="fPLku5I8h9IwEL0rfJYV-159" value="ZONA" style="shape=partialRectangle;connectable=0;fillColor=none;top=0;left=0;bottom=0;right=0;align=left;spacingLeft=6;fontStyle=5;overflow=hidden;whiteSpace=wrap;html=1;" vertex="1" parent="fPLku5I8h9IwEL0rfJYV-157">
          <mxGeometry x="30" width="170" height="30" as="geometry">
            <mxRectangle width="170" height="30" as="alternateBounds" />
          </mxGeometry>
        </mxCell>
        <mxCell id="fPLku5I8h9IwEL0rfJYV-147" value="" style="shape=tableRow;horizontal=0;startSize=0;swimlaneHead=0;swimlaneBody=0;fillColor=none;collapsible=0;dropTarget=0;points=[[0,0.5],[1,0.5]];portConstraint=eastwest;top=0;left=0;right=0;bottom=0;" vertex="1" parent="fPLku5I8h9IwEL0rfJYV-143">
          <mxGeometry y="95" width="200" height="30" as="geometry" />
        </mxCell>
        <mxCell id="fPLku5I8h9IwEL0rfJYV-148" value="" style="shape=partialRectangle;connectable=0;fillColor=none;top=0;left=0;bottom=0;right=0;editable=1;overflow=hidden;whiteSpace=wrap;html=1;" vertex="1" parent="fPLku5I8h9IwEL0rfJYV-147">
          <mxGeometry width="30" height="30" as="geometry">
            <mxRectangle width="30" height="30" as="alternateBounds" />
          </mxGeometry>
        </mxCell>
        <mxCell id="fPLku5I8h9IwEL0rfJYV-149" value="NOMBRE" style="shape=partialRectangle;connectable=0;fillColor=none;top=0;left=0;bottom=0;right=0;align=left;spacingLeft=6;overflow=hidden;whiteSpace=wrap;html=1;" vertex="1" parent="fPLku5I8h9IwEL0rfJYV-147">
          <mxGeometry x="30" width="170" height="30" as="geometry">
            <mxRectangle width="170" height="30" as="alternateBounds" />
          </mxGeometry>
        </mxCell>
        <mxCell id="fPLku5I8h9IwEL0rfJYV-150" value="" style="shape=tableRow;horizontal=0;startSize=0;swimlaneHead=0;swimlaneBody=0;fillColor=none;collapsible=0;dropTarget=0;points=[[0,0.5],[1,0.5]];portConstraint=eastwest;top=0;left=0;right=0;bottom=0;" vertex="1" parent="fPLku5I8h9IwEL0rfJYV-143">
          <mxGeometry y="125" width="200" height="30" as="geometry" />
        </mxCell>
        <mxCell id="fPLku5I8h9IwEL0rfJYV-151" value="" style="shape=partialRectangle;connectable=0;fillColor=none;top=0;left=0;bottom=0;right=0;editable=1;overflow=hidden;whiteSpace=wrap;html=1;" vertex="1" parent="fPLku5I8h9IwEL0rfJYV-150">
          <mxGeometry width="30" height="30" as="geometry">
            <mxRectangle width="30" height="30" as="alternateBounds" />
          </mxGeometry>
        </mxCell>
        <mxCell id="fPLku5I8h9IwEL0rfJYV-152" value="TELEFONO" style="shape=partialRectangle;connectable=0;fillColor=none;top=0;left=0;bottom=0;right=0;align=left;spacingLeft=6;overflow=hidden;whiteSpace=wrap;html=1;" vertex="1" parent="fPLku5I8h9IwEL0rfJYV-150">
          <mxGeometry x="30" width="170" height="30" as="geometry">
            <mxRectangle width="170" height="30" as="alternateBounds" />
          </mxGeometry>
        </mxCell>
        <mxCell id="fPLku5I8h9IwEL0rfJYV-153" value="" style="shape=tableRow;horizontal=0;startSize=0;swimlaneHead=0;swimlaneBody=0;fillColor=none;collapsible=0;dropTarget=0;points=[[0,0.5],[1,0.5]];portConstraint=eastwest;top=0;left=0;right=0;bottom=0;" vertex="1" parent="fPLku5I8h9IwEL0rfJYV-143">
          <mxGeometry y="155" width="200" height="30" as="geometry" />
        </mxCell>
        <mxCell id="fPLku5I8h9IwEL0rfJYV-154" value="" style="shape=partialRectangle;connectable=0;fillColor=none;top=0;left=0;bottom=0;right=0;editable=1;overflow=hidden;whiteSpace=wrap;html=1;" vertex="1" parent="fPLku5I8h9IwEL0rfJYV-153">
          <mxGeometry width="30" height="30" as="geometry">
            <mxRectangle width="30" height="30" as="alternateBounds" />
          </mxGeometry>
        </mxCell>
        <mxCell id="fPLku5I8h9IwEL0rfJYV-155" value="" style="shape=partialRectangle;connectable=0;fillColor=none;top=0;left=0;bottom=0;right=0;align=left;spacingLeft=6;overflow=hidden;whiteSpace=wrap;html=1;" vertex="1" parent="fPLku5I8h9IwEL0rfJYV-153">
          <mxGeometry x="30" width="170" height="30" as="geometry">
            <mxRectangle width="170" height="30" as="alternateBounds" />
          </mxGeometry>
        </mxCell>
        <mxCell id="fPLku5I8h9IwEL0rfJYV-163" style="edgeStyle=orthogonalEdgeStyle;rounded=0;orthogonalLoop=1;jettySize=auto;html=1;exitX=0;exitY=0.5;exitDx=0;exitDy=0;entryX=0;entryY=0.5;entryDx=0;entryDy=0;" edge="1" parent="1" source="fPLku5I8h9IwEL0rfJYV-157" target="fPLku5I8h9IwEL0rfJYV-54">
          <mxGeometry relative="1" as="geometry" />
        </mxCell>
        <mxCell id="fPLku5I8h9IwEL0rfJYV-164" value="LOCAL" style="shape=table;startSize=30;container=1;collapsible=1;childLayout=tableLayout;fixedRows=1;rowLines=0;fontStyle=1;align=center;resizeLast=1;html=1;" vertex="1" parent="1">
          <mxGeometry x="670" y="405" width="180" height="150" as="geometry" />
        </mxCell>
        <mxCell id="fPLku5I8h9IwEL0rfJYV-165" value="" style="shape=tableRow;horizontal=0;startSize=0;swimlaneHead=0;swimlaneBody=0;fillColor=none;collapsible=0;dropTarget=0;points=[[0,0.5],[1,0.5]];portConstraint=eastwest;top=0;left=0;right=0;bottom=1;" vertex="1" parent="fPLku5I8h9IwEL0rfJYV-164">
          <mxGeometry y="30" width="180" height="30" as="geometry" />
        </mxCell>
        <mxCell id="fPLku5I8h9IwEL0rfJYV-166" value="FK,PK" style="shape=partialRectangle;connectable=0;fillColor=none;top=0;left=0;bottom=0;right=0;fontStyle=1;overflow=hidden;whiteSpace=wrap;html=1;" vertex="1" parent="fPLku5I8h9IwEL0rfJYV-165">
          <mxGeometry width="50" height="30" as="geometry">
            <mxRectangle width="50" height="30" as="alternateBounds" />
          </mxGeometry>
        </mxCell>
        <mxCell id="fPLku5I8h9IwEL0rfJYV-167" value="CÃ“DIGO" style="shape=partialRectangle;connectable=0;fillColor=none;top=0;left=0;bottom=0;right=0;align=left;spacingLeft=6;fontStyle=5;overflow=hidden;whiteSpace=wrap;html=1;" vertex="1" parent="fPLku5I8h9IwEL0rfJYV-165">
          <mxGeometry x="50" width="130" height="30" as="geometry">
            <mxRectangle width="130" height="30" as="alternateBounds" />
          </mxGeometry>
        </mxCell>
        <mxCell id="fPLku5I8h9IwEL0rfJYV-168" value="" style="shape=tableRow;horizontal=0;startSize=0;swimlaneHead=0;swimlaneBody=0;fillColor=none;collapsible=0;dropTarget=0;points=[[0,0.5],[1,0.5]];portConstraint=eastwest;top=0;left=0;right=0;bottom=0;" vertex="1" parent="fPLku5I8h9IwEL0rfJYV-164">
          <mxGeometry y="60" width="180" height="30" as="geometry" />
        </mxCell>
        <mxCell id="fPLku5I8h9IwEL0rfJYV-169" value="" style="shape=partialRectangle;connectable=0;fillColor=none;top=0;left=0;bottom=0;right=0;editable=1;overflow=hidden;whiteSpace=wrap;html=1;" vertex="1" parent="fPLku5I8h9IwEL0rfJYV-168">
          <mxGeometry width="50" height="30" as="geometry">
            <mxRectangle width="50" height="30" as="alternateBounds" />
          </mxGeometry>
        </mxCell>
        <mxCell id="fPLku5I8h9IwEL0rfJYV-170" value="LICENCIA" style="shape=partialRectangle;connectable=0;fillColor=none;top=0;left=0;bottom=0;right=0;align=left;spacingLeft=6;overflow=hidden;whiteSpace=wrap;html=1;" vertex="1" parent="fPLku5I8h9IwEL0rfJYV-168">
          <mxGeometry x="50" width="130" height="30" as="geometry">
            <mxRectangle width="130" height="30" as="alternateBounds" />
          </mxGeometry>
        </mxCell>
        <mxCell id="fPLku5I8h9IwEL0rfJYV-171" value="" style="shape=tableRow;horizontal=0;startSize=0;swimlaneHead=0;swimlaneBody=0;fillColor=none;collapsible=0;dropTarget=0;points=[[0,0.5],[1,0.5]];portConstraint=eastwest;top=0;left=0;right=0;bottom=0;" vertex="1" parent="fPLku5I8h9IwEL0rfJYV-164">
          <mxGeometry y="90" width="180" height="30" as="geometry" />
        </mxCell>
        <mxCell id="fPLku5I8h9IwEL0rfJYV-172" value="" style="shape=partialRectangle;connectable=0;fillColor=none;top=0;left=0;bottom=0;right=0;editable=1;overflow=hidden;whiteSpace=wrap;html=1;" vertex="1" parent="fPLku5I8h9IwEL0rfJYV-171">
          <mxGeometry width="50" height="30" as="geometry">
            <mxRectangle width="50" height="30" as="alternateBounds" />
          </mxGeometry>
        </mxCell>
        <mxCell id="fPLku5I8h9IwEL0rfJYV-173" value="" style="shape=partialRectangle;connectable=0;fillColor=none;top=0;left=0;bottom=0;right=0;align=left;spacingLeft=6;overflow=hidden;whiteSpace=wrap;html=1;" vertex="1" parent="fPLku5I8h9IwEL0rfJYV-171">
          <mxGeometry x="50" width="130" height="30" as="geometry">
            <mxRectangle width="130" height="30" as="alternateBounds" />
          </mxGeometry>
        </mxCell>
        <mxCell id="fPLku5I8h9IwEL0rfJYV-174" value="" style="shape=tableRow;horizontal=0;startSize=0;swimlaneHead=0;swimlaneBody=0;fillColor=none;collapsible=0;dropTarget=0;points=[[0,0.5],[1,0.5]];portConstraint=eastwest;top=0;left=0;right=0;bottom=0;" vertex="1" parent="fPLku5I8h9IwEL0rfJYV-164">
          <mxGeometry y="120" width="180" height="30" as="geometry" />
        </mxCell>
        <mxCell id="fPLku5I8h9IwEL0rfJYV-175" value="" style="shape=partialRectangle;connectable=0;fillColor=none;top=0;left=0;bottom=0;right=0;editable=1;overflow=hidden;whiteSpace=wrap;html=1;" vertex="1" parent="fPLku5I8h9IwEL0rfJYV-174">
          <mxGeometry width="50" height="30" as="geometry">
            <mxRectangle width="50" height="30" as="alternateBounds" />
          </mxGeometry>
        </mxCell>
        <mxCell id="fPLku5I8h9IwEL0rfJYV-176" value="" style="shape=partialRectangle;connectable=0;fillColor=none;top=0;left=0;bottom=0;right=0;align=left;spacingLeft=6;overflow=hidden;whiteSpace=wrap;html=1;" vertex="1" parent="fPLku5I8h9IwEL0rfJYV-174">
          <mxGeometry x="50" width="130" height="30" as="geometry">
            <mxRectangle width="130" height="30" as="alternateBounds" />
          </mxGeometry>
        </mxCell>
        <mxCell id="fPLku5I8h9IwEL0rfJYV-190" value="PISO" style="shape=table;startSize=30;container=1;collapsible=1;childLayout=tableLayout;fixedRows=1;rowLines=0;fontStyle=1;align=center;resizeLast=1;html=1;" vertex="1" parent="1">
          <mxGeometry x="670" y="675" width="180" height="180" as="geometry" />
        </mxCell>
        <mxCell id="fPLku5I8h9IwEL0rfJYV-226" style="shape=tableRow;horizontal=0;startSize=0;swimlaneHead=0;swimlaneBody=0;fillColor=none;collapsible=0;dropTarget=0;points=[[0,0.5],[1,0.5]];portConstraint=eastwest;top=0;left=0;right=0;bottom=0;" vertex="1" parent="fPLku5I8h9IwEL0rfJYV-190">
          <mxGeometry y="30" width="180" height="30" as="geometry" />
        </mxCell>
        <mxCell id="fPLku5I8h9IwEL0rfJYV-227" value="FK,PK" style="shape=partialRectangle;connectable=0;fillColor=none;top=0;left=0;bottom=0;right=0;editable=1;overflow=hidden;whiteSpace=wrap;html=1;" vertex="1" parent="fPLku5I8h9IwEL0rfJYV-226">
          <mxGeometry width="40" height="30" as="geometry">
            <mxRectangle width="40" height="30" as="alternateBounds" />
          </mxGeometry>
        </mxCell>
        <mxCell id="fPLku5I8h9IwEL0rfJYV-228" value="&lt;u&gt;CODIGO&lt;/u&gt;" style="shape=partialRectangle;connectable=0;fillColor=none;top=0;left=0;bottom=0;right=0;align=left;spacingLeft=6;overflow=hidden;whiteSpace=wrap;html=1;" vertex="1" parent="fPLku5I8h9IwEL0rfJYV-226">
          <mxGeometry x="40" width="140" height="30" as="geometry">
            <mxRectangle width="140" height="30" as="alternateBounds" />
          </mxGeometry>
        </mxCell>
        <mxCell id="fPLku5I8h9IwEL0rfJYV-194" value="" style="shape=tableRow;horizontal=0;startSize=0;swimlaneHead=0;swimlaneBody=0;fillColor=none;collapsible=0;dropTarget=0;points=[[0,0.5],[1,0.5]];portConstraint=eastwest;top=0;left=0;right=0;bottom=0;" vertex="1" parent="fPLku5I8h9IwEL0rfJYV-190">
          <mxGeometry y="60" width="180" height="30" as="geometry" />
        </mxCell>
        <mxCell id="fPLku5I8h9IwEL0rfJYV-195" value="" style="shape=partialRectangle;connectable=0;fillColor=none;top=0;left=0;bottom=0;right=0;editable=1;overflow=hidden;whiteSpace=wrap;html=1;" vertex="1" parent="fPLku5I8h9IwEL0rfJYV-194">
          <mxGeometry width="40" height="30" as="geometry">
            <mxRectangle width="40" height="30" as="alternateBounds" />
          </mxGeometry>
        </mxCell>
        <mxCell id="fPLku5I8h9IwEL0rfJYV-196" value="NUM HABITACION" style="shape=partialRectangle;connectable=0;fillColor=none;top=0;left=0;bottom=0;right=0;align=left;spacingLeft=6;overflow=hidden;whiteSpace=wrap;html=1;" vertex="1" parent="fPLku5I8h9IwEL0rfJYV-194">
          <mxGeometry x="40" width="140" height="30" as="geometry">
            <mxRectangle width="140" height="30" as="alternateBounds" />
          </mxGeometry>
        </mxCell>
        <mxCell id="fPLku5I8h9IwEL0rfJYV-197" value="" style="shape=tableRow;horizontal=0;startSize=0;swimlaneHead=0;swimlaneBody=0;fillColor=none;collapsible=0;dropTarget=0;points=[[0,0.5],[1,0.5]];portConstraint=eastwest;top=0;left=0;right=0;bottom=0;" vertex="1" parent="fPLku5I8h9IwEL0rfJYV-190">
          <mxGeometry y="90" width="180" height="30" as="geometry" />
        </mxCell>
        <mxCell id="fPLku5I8h9IwEL0rfJYV-198" value="" style="shape=partialRectangle;connectable=0;fillColor=none;top=0;left=0;bottom=0;right=0;editable=1;overflow=hidden;whiteSpace=wrap;html=1;" vertex="1" parent="fPLku5I8h9IwEL0rfJYV-197">
          <mxGeometry width="40" height="30" as="geometry">
            <mxRectangle width="40" height="30" as="alternateBounds" />
          </mxGeometry>
        </mxCell>
        <mxCell id="fPLku5I8h9IwEL0rfJYV-199" value="NUM BAÃ‘OS" style="shape=partialRectangle;connectable=0;fillColor=none;top=0;left=0;bottom=0;right=0;align=left;spacingLeft=6;overflow=hidden;whiteSpace=wrap;html=1;" vertex="1" parent="fPLku5I8h9IwEL0rfJYV-197">
          <mxGeometry x="40" width="140" height="30" as="geometry">
            <mxRectangle width="140" height="30" as="alternateBounds" />
          </mxGeometry>
        </mxCell>
        <mxCell id="fPLku5I8h9IwEL0rfJYV-200" value="" style="shape=tableRow;horizontal=0;startSize=0;swimlaneHead=0;swimlaneBody=0;fillColor=none;collapsible=0;dropTarget=0;points=[[0,0.5],[1,0.5]];portConstraint=eastwest;top=0;left=0;right=0;bottom=0;" vertex="1" parent="fPLku5I8h9IwEL0rfJYV-190">
          <mxGeometry y="120" width="180" height="30" as="geometry" />
        </mxCell>
        <mxCell id="fPLku5I8h9IwEL0rfJYV-201" value="" style="shape=partialRectangle;connectable=0;fillColor=none;top=0;left=0;bottom=0;right=0;editable=1;overflow=hidden;whiteSpace=wrap;html=1;" vertex="1" parent="fPLku5I8h9IwEL0rfJYV-200">
          <mxGeometry width="40" height="30" as="geometry">
            <mxRectangle width="40" height="30" as="alternateBounds" />
          </mxGeometry>
        </mxCell>
        <mxCell id="fPLku5I8h9IwEL0rfJYV-202" value="TIPO_GAS" style="shape=partialRectangle;connectable=0;fillColor=none;top=0;left=0;bottom=0;right=0;align=left;spacingLeft=6;overflow=hidden;whiteSpace=wrap;html=1;" vertex="1" parent="fPLku5I8h9IwEL0rfJYV-200">
          <mxGeometry x="40" width="140" height="30" as="geometry">
            <mxRectangle width="140" height="30" as="alternateBounds" />
          </mxGeometry>
        </mxCell>
        <mxCell id="fPLku5I8h9IwEL0rfJYV-203" style="shape=tableRow;horizontal=0;startSize=0;swimlaneHead=0;swimlaneBody=0;fillColor=none;collapsible=0;dropTarget=0;points=[[0,0.5],[1,0.5]];portConstraint=eastwest;top=0;left=0;right=0;bottom=0;" vertex="1" parent="fPLku5I8h9IwEL0rfJYV-190">
          <mxGeometry y="150" width="180" height="30" as="geometry" />
        </mxCell>
        <mxCell id="fPLku5I8h9IwEL0rfJYV-204" style="shape=partialRectangle;connectable=0;fillColor=none;top=0;left=0;bottom=0;right=0;editable=1;overflow=hidden;whiteSpace=wrap;html=1;" vertex="1" parent="fPLku5I8h9IwEL0rfJYV-203">
          <mxGeometry width="40" height="30" as="geometry">
            <mxRectangle width="40" height="30" as="alternateBounds" />
          </mxGeometry>
        </mxCell>
        <mxCell id="fPLku5I8h9IwEL0rfJYV-205" value="INT/EXT" style="shape=partialRectangle;connectable=0;fillColor=none;top=0;left=0;bottom=0;right=0;align=left;spacingLeft=6;overflow=hidden;whiteSpace=wrap;html=1;" vertex="1" parent="fPLku5I8h9IwEL0rfJYV-203">
          <mxGeometry x="40" width="140" height="30" as="geometry">
            <mxRectangle width="140" height="30" as="alternateBounds" />
          </mxGeometry>
        </mxCell>
        <mxCell id="fPLku5I8h9IwEL0rfJYV-206" style="edgeStyle=orthogonalEdgeStyle;rounded=0;orthogonalLoop=1;jettySize=auto;html=1;exitX=0;exitY=0.5;exitDx=0;exitDy=0;entryX=1;entryY=0.5;entryDx=0;entryDy=0;" edge="1" parent="1" source="fPLku5I8h9IwEL0rfJYV-140" target="fPLku5I8h9IwEL0rfJYV-93">
          <mxGeometry relative="1" as="geometry" />
        </mxCell>
        <mxCell id="fPLku5I8h9IwEL0rfJYV-207" style="edgeStyle=orthogonalEdgeStyle;rounded=0;orthogonalLoop=1;jettySize=auto;html=1;exitX=1;exitY=0.5;exitDx=0;exitDy=0;entryX=1;entryY=0.5;entryDx=0;entryDy=0;" edge="1" parent="1" source="fPLku5I8h9IwEL0rfJYV-15" target="fPLku5I8h9IwEL0rfJYV-144">
          <mxGeometry relative="1" as="geometry" />
        </mxCell>
        <mxCell id="fPLku5I8h9IwEL0rfJYV-208" style="edgeStyle=orthogonalEdgeStyle;rounded=0;orthogonalLoop=1;jettySize=auto;html=1;exitX=1;exitY=0.5;exitDx=0;exitDy=0;entryX=0;entryY=0.5;entryDx=0;entryDy=0;" edge="1" parent="1" source="fPLku5I8h9IwEL0rfJYV-18" target="fPLku5I8h9IwEL0rfJYV-80">
          <mxGeometry relative="1" as="geometry" />
        </mxCell>
        <mxCell id="fPLku5I8h9IwEL0rfJYV-222" value="" style="shape=image;verticalLabelPosition=bottom;labelBackgroundColor=default;verticalAlign=top;aspect=fixed;imageAspect=0;image=data:image/jpeg,/9j/4AAQSkZJRgABAQEAeAB4AAD/2wBDAA0JCgsKCA0LCgsODg0PEyAVExISEyccHhcgLikxMC4pLSwzOko+MzZGNywtQFdBRkxOUlNSMj5aYVpQYEpRUk//2wBDAQ4ODhMREyYVFSZPNS01T09PT09PT09PT09PT09PT09PT09PT09PT09PT09PT09PT09PT09PT09PT09PT09PT0//wAARCANVBdgDAREAAhEBAxEB/8QAHAABAAIDAQEBAAAAAAAAAAAAAAUGAQIEAwcI/8QAWhAAAgEDAgMDBQsHCAYIBQQDAAECAwQRBSEGEjETQVEUImFxgQcVFjI2VpGTsdHhI1RVdJShwRczQlJzkrLwJDVTYnJ1JSY0N2SC0vFDY4SjwkRFRoMnouL/xAAXAQEBAQEAAAAAAAAAAAAAAAAAAQID/8QAIxEBAQEAAwEBAAIDAAMAAAAAAAERAiExQRIDIjJCYRNRcf/aAAwDAQACEQMRAD8A+nAAAAAAAAAAAAAAAAAAAAAAAAAAAAAAAAAAAAAAAAAAAAAAAAAAAAAAAAAAAAAAAAAAAAAAAAAAAAAAAAAAAAAAAAAAAAAAAAAAAAAAAAAAAAAAAAAAAAAAAAAAAAAAAAAAAAAAAAAAAAAAAAAAAAAAAAAAAAAAAAAAAAAAAAAAAAAAAAAAAAAAAAAAAAAAAAAAAAAAAAAAAAAAAAAAAAAAAAAAAAAAAAAAAAAAAAAAAAAAAAAAAAAAAAAAAAAAAGG0urSAzleIGMrxQGcrxQDK8QAABlAAAABleIAAAyvEBleIGOZb7rbruBnK8UAyvFAMrxAAAAAAAAAAAAAAAAAAAAAAAAAAAAAAAAAAAAAAAAAAAAAAAAAAAAAAAAAAAAAAAAAAAAAAAAAAAAAAAAAAAAAAAAAAAAAAAAAAAAAAAAAAAAAAAAAAAAAAAAAAAAAAAAAAAAAAAAAAAAAAAAAAAAAAAAAAAAAAAAAAAAAAAAAAAAAAAAAAAAAAAAAAAAAAAAAADWYHhUuKNOajUrQjlZxKSWwG8WnhrDz0x4BKTkoxk89Or8ASPC1uaVzThUt6sakKkcxkujXjjwKt76dUF5r69QTpsiUYqSjCnKcniMVlvwII+nq1jUtIXVK5pyo1JKnGos4cm8JfSBIroVGQPC7rRt7epXmny0oObwt8Jbhca2taNxRp1o55akeaKa3SCOgIyTGnnLZ7hUPLibR41OSV9BT74tS+4qVI29aFelGtRlzwmvNljGSJxa07ylVva9pHm7WilKWY7NPoX4X1zR1Whm7lLtI0rb405QxF7bpPO7Irpsbzyyh2qt61FPZRrJJteJR2R3iBkgACgAAAAAAAAAAAAAAAAAAAAAAAAAAAAAAAAAAAAAAAAAAAAAAAAAAAAAAAAAAAAAAAAAAAAAAAAAAAAAAAAAAAAAAAAAAAAAAAAAAAAAAAAABjvCMgDKhdGO8ZgFTQGiAyFAAAAAAAAAAAAAAAAAAAAAAAAAAAAAAAAAAAAAAAAAAAAAAAAAAAAAAAAAAAAAAAAAAAAAAAAHnWzjbPq8QK3ollaal295qVCjdV5V5w/LQUuzjGTioxT6bLO3rJRpVrXvbXlvp12rW302lFxg4xl2jabak5ZaWxqIzHUb3VqtOhb3PkeLSNepKEIybcm1jzk1jzf3k5dNyI/StQqWWn2M8QfJpkqm8VzSaa2z1SNTxnh3ysd8bzU7OvZVLi/denc0alR0nShGMcKLWGln+kSn8nRaajqSnpdzdXXa0NR3dJRiuyzHmXK1u0tuvcSdp8T965KwucvP5KXT1ErUUtvyPStMoJNUrurbTglnaacc/ea4zWeSTvua71LUVcXlej5DQjOhClWlDqm22k/O3S6kV501W1a9to3V1dQjLToVZQo1pU3KXNLztmvACOrVa8dFsr6d5XqV7yFSnVU6rcHHspvHLnCax16krUjtsqUtPraY7e5uJSurabqwnUbTSSw1HpHGe7BuRivKErm04RoahG6vK13cwpU6kpVnhRk0tsvli8P43X0mL6snSW4ep31vdVqdSnXp28oxcY17pVpKW+WnlvD29BvEWNJNJtGKqCvklxdpyX5rWWMd3NAs8X4j9cndXOvwsY0bipTjQ7SMKFz2DlJtpvOVnp0InFHQu9QtLbUqk23cqlbwlKM4trLw9+mcN7mi+s3ttdQ0fUKVzC5pW87dTjGredpJyTeWmm3h7bdCCQVlCd/baVK5u6dqrWVaPLczU5yzj42c4WemcEHPQq3OpPSKFa6uVTnGvGUqU5QdRRcUstfaVPrFvcVriFnpte7rxt5XdelKaqyjNxg5csedPPclnO5W8TfDVSpi8t3WqVaVvXlTpynJybW2zk+rX8SMfU4FAAAAAAAAAAAAAAAAAAAAAAAAAAAAAAAAAAAAAAAAAAAAAAAAAAAAAAAAAAAABpOXLkDSE3JbN7Ld4A9I5znIGwAAAAAAAAAAAAAAAAAAAAAAAAAAAAAAAAAAAAAAAAAHeQedWfKlgohtT133v1W0tHb1qsaybnKnRlPC2xjC9Znj3S+PZ63Z07yVq6lTnjNU5TUG4Rk+icuifd69jO/wBkjnpaw6UdSrXlXFO3runTUY5b2WyS6s685kacFfX69vpFW47etUryuFS5HatSoqTwvNxnOGms9TPFmx3w1yhZ21GF1Wuq9aUOeT8mfNGP++orzPbg1Ykj2udes7arTpSnVqTq01VgqNKVRuL70op5Mx0sxtX12zo29CvGdWsriPNTjQpupJrxwk3j0lZdlrdU7m3hXo1OenPo1/HwA6wAAAAAAAAAAAAAAAAAAAAAAAAAAAAAAAAAAAAAAAAAAAAAAAAAAAAAAAAAAAAAAAAAAAAAAMOKfUCKuNBtqlxO4o3F1aTqfznk9TlU34vbqBz3fD9hNqfPXpLs+znyVOVVILul4iXBXte4g4bsNQhQqVbxVaNJU27Jrlce6Em33Z7vEXtZccNLjDha3t6dOjbahPsrd28YzjHEovue/fhbl1OPV2Jbh+NHVr22vLPyt21GlNNXNSLxzYSjFJ5S819cdxDl/b1P2OgWVpcwrQnXmqWXRp1J5jSz15VjbrgTo+YlZ0oThKEo5jJYa8UL2srnlptlO3o0JW8HSoNOnHG0WumPUWXEvbnu9LsL6vCrd2sKs4fFnJbr0EEHrXEdhYahG20u0jqOqSxQ7GnLGI9cN4xjcCOnfa07alby4JUqVFvsoeULEcprw8G0MXXtw9rGkULyrY32m09Iv3JQ7ObbU4vph/T6PSXUxb6dpbK1VkqMfJ1Dk7PGyjjGCDFjpVjp6l5Fbxo83Xl7y6mOzBFeM7ShUuYXM6adaEXGM+9J4yv3L6Aa8L/S7G/hBXlvCqobx5u4E6eE7PTbC3q1alGlSodly1Jf7q7n6AXtT4ava1bm5tuFuHFqNpypV6qqckZN9yT6pewD01DUtZu6Llf8FKpTpJyy7jOML0LwAndC1XRtajRnZKHb29PDpS2lRz1X7vsCYk5aTp9e3nb1LanKlKbm442cm8t/SGtdNpZ29nSjStqapwisKK7gzj3CgAAAAAAAAAAAAAAAAAAAAAAAAAAAAAAAAAAMNtMDg1DU5WEFN2VzXhjMnRUWo+vLRnbquOHEtGrbW9WjaXdWdeHPGjCEedR/rNNpY9pvOkbVeI7WNO1nTp1qzuubs40optuPWLy1h7kUnxBBWEbyla16kHUdOcVyqUJJ4almWFv6WB16XqdLU7Z1qHMsScZKWMxa7tm0L4jrc2luIIrWNepaVO0jUSflFXk/pebHDedk/Rt6STu4Oa84opWkak5KnOEa8KS5XJvEknmS5dnv03N4tnSUo6lb1Z0acKylOrT7SK5WnKPjj1tEZmuKprLlf2ULecZ0Kyq87Uc7xx0/eLHT8x6U+ItNq86p3KbhFzfNCUfNW7e67kT/AIw6bDVLbUOfyWqqnZ45motLfpu+ovQ3vL+3saLq3VVU45xlpvL9CW7Jqomx4gncuU06UqMrx0KcpZjmOG+mM526PBqRHdS1uxrVXTp3EZT87ZRePNeHv3dO8ypR17TbiNSdG6jKNKPNLMWtvHdLYqNaXEGnVberXjcw7OlHmm3GSwu7qvsA0hr1tcVKMbSrSqdpUcHz80H0b2TXo9AHnLWVW1mlaW11RUI57ROLbm9vNT6fv9gO3vDX9NlceTq7g6nO6eOWXxk8NdMdSCUyBzXMqqhVVOMZT5cwjKWFJ+DeNguKjpF1dWWhvValrZ9tWmnKtUuJJ1M9W8ReHnGyyVEla8TVK1lO6dtTcbar2dxyzk+VYT5lmKb2fggJXTdSqX8601SULdTcKNTmy6qXV47l4ASIAAAAAAAAAAAAAAAAAAAAAAAAAAAAAAAAAAAAAAAAYzuMTWsu9vuQWITWKVeOoafeUbWpcU6LmpxptcyUlHfDa8BOjl4hfeqvTua1tcUNTrwqXTqxdGpFUcOfMsp75Xf6ifmbqR7X2kXtSFxUhGrHkvu3jGlJKc48qWYt95u3Zlbg9Pr1LWc6drfupO6oyfldSLnKMZRy9tlhIxJia6b2jd2mpXtSlYzuoX1GNOEqePyckmsSy+m/dnoa1ZI30zTbi11C3dSnmNOxjSc10U03lEka53Y49Ptb/TFp907CrcKFtKhOlTxzwbaed2ljzcde8rmmtBtKllp0Y3CjGpKpKfIukOZ5x6wJggAAAAAAAAAAAAAAAAAAAAAAAAAAAAAAAAAAAAAAAAAAAAAAAAAAAAAAAAAAAAAAAAAAAAAAAYn8Xd4A+ee6Xr0rOzpaZZ1HGtV8+s094w8H3rLa+gD5S6jb33x0Az2jztnAExwtrdbRdXpXNKUlSbSqwTwpx9OQPvdtVhWpxq0pqdKcVKEo9Gn3r0AewACv8W6m9N0acqSzcXEuwoJ5w5y9XTbLz6APThzh210ewpYpqV3KPNWrTSlNzfXf9wEwqbXf7H0Aitf0Cx1ixqU7mknU5fMqxSU4NdMP29AOPgvUqt3pkra7f+l2E/J66TcllbJ5fXKXUCygAAGtTCW7wvHwAp/EVOWvcRWvD0HJW9JeU3jjJxbitox8Gm2sgWi1sLazoqlaUYUaa/owjjfGM+noB7yp5jyroBTeKtJpaXUpcRabSjTubKSdaMHyxqU315kuv8QLdY1qdzaUrilnkqwjOOVh4aygPcAAAAAAAAAAAAAAAAAAAAAAAAAAAAAAAAAAAABrLr7AiA4httQu5UaFtautavzq6VZQc13R32x4kxp51KOo07+jqVvp8M9i6ErZ1YrlWU01Lp3dDfxPrWx0i4ta+m1KnI+y7aVRrC5ZTawsd/TqRXLX0W8UIydCNzTje1K07d1Eo1Iybw/DbKeH4GRKcPWdexjddvbU7dVq8qkKVNpqKaXh6jVvTKZilLfD26ZMxUPxJSqxhY3FGhOsre6VScKabk1yyWyXXqTh1yVDXNtdVJ391TtriUZXtGtGKp+dKMYxzhY3fVew6Wt3xJXdSpDVLPUoWd1OlKhKm4RpNzi201zLquhiuc9cFha3yhpsna1ac4u5cueL83LXLn1m+Vn/AJJ/8btRlawua9K3crXUZ6gqdZ3M5qbi5OlJeaumHJ42XeS5P5v+MLrpdJ2+mW8ORwcaaThjGPYP5O+dwrh12NanfafeQt61elb1JdpTpQc2sxwnhddzEWIqlbXVaUanklaPPqjrYnDD5OWS5n4I6ypXvS0u5q8Laja0qbo3VzOthSXK3mTw/owc1RlXTbq/oZzqlWtRppKnXt40ocqnGTisRWcpdCspLU6s9Ss6cqGmXcY206c5050XF1IrOYxTXnYA9LuVTUbyxrW9jdUowuHzTqUXCTXZyWd10XTIbjkt7a5nbWOl+Q1qdW2ue0nVcGqeE28qfRvfoFuY9PILlaNXjG1qKrLU+0WIYk49tnm9WN8+BXNbo/FWfANNJJZ3fV4IK3daUrHRLR1ryhSlp9RVVUrJ9m3hx87+8Coynd6e/Ko3PEemtXtZVK/Z1MZjyqPKt9unUqJ3hydqo3FPTtQoXdnTn+SVOWXSzvy58PAgnYzUlsBsAAAAAAAAAAAAAAAAAAAAAAAAAAAAAAAAAAAAAAAMPqEwayFauGe/cFHDbznnxYRFa7q1DRdKr6hWxJwWIQk8c0u6KDT41rPF2ratedvK5qWyS5VTt5uMV+/7Qyj/AH61P9I3f18vvCr/AME8eXFzd22k6nDnc0qdOuk3Jvu5v3LP0hdfSYNPaOMdwRnssyy37APQAAAAAAAAAAAAAAAAAAAAAAAAAAAAAAAAAAAAAAAAAAAAAAAAAAAAAAAAAAAAAAAAAAAAAAABrNJxaaynsB8V90rtlxdW7SMVilHlcZN5jvjOe8CnAAPSnnDwB+heGW3w5pu2M2tPbGMeagJQABTOPlyU9JrVcToq/gnSWzk2nh83djw7wLjFxSSyBnKAxNpxxlZ7gKfwPn3y4hWzxqM/4gXIAAA1ms4ecY7wKnpj5PdI1KnUfaVJWkZxmtlGGV5uO/qtwLbzx8e/ADmXiBAcbNPhHU+9djnb1oDv4d+Tum4WM2tPb/yoCRAAAAAAAAAAAAAAAAAAAAAAAAAAAAAAAAAAAAAatZeUQaTi+uF4lV8r4043ual1dabpkuyt4N051Fhupvu0/Du9KZUUJ1pf7WWfWyKkNN1/UdLkvIb2rSjzKcoKT5ZNeK8APqvA/FEuIrWdK4UYXVDDnh4U084aXs39hm6i20vie0sGaizDoKODVL+jpen3F5cZdOlFycU1l+hZ7x2tvSq2lDibiaq7q4uq+iWvZrsqdJ5lPO+X0/fuaZm663wnrKXm8Wai9n6P4mb7q14aZr2qaVqFvpHE1u49o3So3ifNGq84WceP0+OCd7qLnFPGUlheBv8A7VrPZ5S5lnw8UZqsOEn49R2jXlSy29m+gVTNR1XWte1Crpmg0nQtKdbsquoc67t3y/Rs17cFR1rhPV9v+tupP2fiBw158RcJV6lavKrrGmtKU6s3idLffb/K73gC3WN1Q1K0o3lq1KnWjzRljG3q9gNrpUJrx8SD1A5r2vStLerc3E+SlSg5Tl/VS6sKpdho9/xd2ep6zcShYSqKpRsovMZRw8N/T7fQVFiXCeg4w9Is9v8A5SAh9V4QrWtaeocMVnYXEYYdGmsQq4ecPwzjp3gTHDeq++2j0rmTUayk6deHXkmuqz9H0gTi6Lp7AAAAAAAAAAAAAAAAAAAAAAAAAAAAAAAAAAAAAAABgDKAAH0eCD5D7qd7KtrlKxjUjOnQpKWFhuMpPfP0LYChPqyqwEb0niWc7rcD9CcN3NW90Kxu67Xa1qMZzwsZbXgQSoAoAAAAAAAAAAAAAAAAAAAAAAAAAAAAAAAAAAAAAAAAAAAAAAAAAAAAAAAAAAAAAAAAAAAAAAAYmsxx09IHzb3UdDqVaMNZt6bbh5lbli3mPc34JdPaB8sAAS3Del1tY1ehZ0lLEpZm1HKhHxfoA/QNpQpW1vToUYclOlFQjFPOEuiA9gAEVrumw1XSa9nUi1KUfMlFYcZLdNN9AIHh7imPaU9F1qlKz1Kl+Ry15s2ls033tY9YFqVxRztVh6+YCta/xVRtqstM02nK71OfmRjFNxg5eLXf6PSBJ8M6S9H0mhbTzKu1zV5uSk3N7vfG4E2AAAaVFnCAqnFttdWtxa6/plHtK1lJ9tTTwqlJrDzjdtbY3wBI6HxJp2t0ZztavZ1KWO0p1Fyyj7O9en0ASNe4oUqU6k6tNRiuZtzSUUurAplzqcuMb6jpWm0ar06lNVLq4a5XJLOIrux9vsAvdCKhDljHlitkl0XoXoA9AAAAAAAAAAAAAAAAAAAAAAAAAAAAAAAAAAAAAACs+6Ff1dP4TualB4lUapZ3ylLww9mB8Nm/yfK9/tA8gAEvw9e19P1e0uaHLzRml5zaTTeMPAH6EhtHHgAqfEYFO4gpQ1jjDTdGuot2caMrmcYtpyllrEvRt6wLaksbZSe+APZdAILi+xpX2g3kKrlF0qTrQlD40ZQXMnnu6Ae3Ct7V1Dhyxu6yj2lSknLl6eH8AJcABV+Ob6tY8L3MrdflKrVJPLylJ4fK13gSmjaZbaTptK0tIyUILLlLdyb6vwyBJQ2WEBpcRUqbUkmns01nK8MAVTgucrXWNa0aDcrazrRlScn5y51uvVtskBcAAFR90dzfD0qFOTp+UVoQdRvEI7/0pdyAs9nTjStqdOEYxjGKSS6ID3APdAUvhbzOM+JaUPNpRqU3GC6JtPougF0WySAAAAAAAAAAAAAAAAAAAAAAAAAAAAAAAAAAAAAAAAAAAPoB8i91Sxq0dcoXihHsq1PlTSSbkur29DQFAfVgYA9KSblhd78AP0Jw5a1bLQrG1rpKrSoRjPDzvgCVAAAAAAAAAAAAAAAAAAAAAAAAAAAAAAAAAAAAAAAAAAAAAAAAAAAAAAAAAAAAAAAAAAAAAAAAAAGtSEalOUJpSjJNNNZTQFI1b3OdLvrt3FGrKyTXnU6NNOPrS7vUgOFe5ZZ9ffOv44dKIExStocJ6hbKhbUI6dcqFGdbzY1FUWcOTeMp59mALXThyyk13gegAABF63otjrdBUNQpc8IvMWm04+OGgKVR4U0Gtxbc6N5DNU6NtGtzqvLMstLH7wLloGg6bodOpDTqPJzvzpOXM5eG73x6PWBLgAAADSpjCz7AKTqFxLivXY6Tp15UhYWb7S7rU9o1JJrEYyXp39mV0Ak9R4O0TVbvym8t5yrOKi5xm4ueO9tdX6X4Acj9z3h2LebWs85y+3kBarK2o2dnStrakqVKnHljBLCSA9wAAAAAAAAAAAAAAAAAAAAAAAAAAAAAAAAAAAAAABUvdNhOfCFbs4Sk41IN8qzhePoXpA+KTWKa9gHkAA79JpTq6haxhCc5OtDEYxzncD9GQ6MBUeI/hkCn3+NO90Cxul+Rt7+i6E3H/wCLWTeOZLq8NYbAtmdtsYx4fwA9l0QENxVdUbTh3UKlxNwjKhKmnhveSwl9LAxwfbVrThiwoXEOWpCisrKfe33ATQB9AKnx9Qq1eHpXNrFq5tJxrQqpqMqaT85xfqQE/YXVK9saF1bzU6dWCnF4xzL2gddPo/X4YAVHhd+O/AFP4PTuOIuINSpefa168IQn0y4p526rGQLkAAgeMNKqaxoNzaUW+1wp01HGXKO6WX0ywNuG9Zo6zpNGvCcFUilGtCLzyS714/8AsBMS+L1WF3tgc91d0bK2q17mcaNKmnKUpbYQFc4NoVLmtqOvzXZrUqicI5yuSOUpLv332fgBbo/FXqAyAAAAAAAAAAAAAAAAAAAAAAAAAAAAAAAAAAAAAAAAAA+jAhuItHo67pU7GvNwfMpwkv6MlnG3f1A+P63wlq+k3ioeTVLmMlzKpb05Si/RstvaBHy0fVJPzdMvH/8A0S2/cBfODeBqttcWuqajKMZQ5alKhl80ZZ2y/wB+PYwPpFNNS3YHqAAAAAAAAAAAAAAAAAAAAAAAAAAAAAAAAAAAAAAAAAAAAAAAAAAAAAAAAAAAAAAAAAAAAAAAAAAAGOWOc4AwoRWNunQDm1Gzo3tnUtq9ONSnOOHGX2gQvDl5dW8qui6hOErmyjGMZxz+Vp4XLLfo8Yz13AsUXJyw+n2gbgAMNLIFQsf+9TUv+Xw+2IFvSS6IDIAABpNtPrsBUOJr+tq9/T4d0i8VOrUy7uot+zj4J+Po/eBP6LpNno1nCzsqfLBLdv40vFt97AkuWPh35Acq8AMgAAAAAAAAAAAAAAAAGO8gFGQAAAAAAAAAAAAAAAAAAAAc1/b0ru2nbXEFOjVTjOL70+4D4ZxTw9X0TVatF05+Syk3QqN5ThnCy8dfECEcIx9PqYGIU1OWEt30Xe/QBeOC7Oz0S6ttS16lVpO4ly2Un8VNdZS8OqS9oH1mlUU1mnKMl3cryBtzN48PWBFcQ6NDXNMnaOrKjPKlTqxW9Oa6P1AV2z4l1XQazs+KLWVXzE6VxbQc+fHVP0+kDrl7oGmcrcbfUMrpm3/EDjsbXWOLLu21DV3C20ylPtaVtB+dNp+ap/u9fggL3BYWMJJdyQGwB9GB4VIRqRcZxjJNbxaymvACiSjrHBM5SoLy3Q1VTalvVpJ7behNr17dAJNe6BpKa/0bUd//AA/4gcNzrGt8V1alnoNN2llyqNa4rxcZ79VH2Z9foAtmjadS0vTqFlbybhSWOZreXi2BIgeSnJLznj17AU/WuKa97XnpHDUJ1ryc3TlXS8ymu9p+K/d6QMX3CFxGdPU9IuVQ1VOM6nL5tGq+j83uzn0genNx9y7Q0Z7+MgPClwzqmtX7uOLK8XTgkqdvazapvdN5z6un7wLrSoUqNKFKlTjCnBJRilskB6AAAAAAAAAAAAAAwyUedaoqdNylLlXjnA49qc0nFNSzldUi/UrHarm5OdOWM4T3+grUnTMKilupZXf6PxDH16R+KskVkAAAAAAAAAAAAAAAAAAAAAAAwvADVpZ6AVX3OKk63DdWVWcpy8rqrMnl4ygLXyR8AM4QAAAAAAAAAAAAAAAAAAAAAAAAAAAAAAAAAAAAAAAAAAAAAAAAAAAAAAAAAAAAAAAAAAAAAAAAAAAAAADEoqXUCA4ksbiEqOr6cqs7u12lSg89tSzmcMPZvGcd+QJPTb2jf2VG6t89nVXNFSWGl4NP2gdoADDAqNj/AN6mpf8AL4fbEC3oAAA15/OxjIFZ4q1mtSlQ0nSqtL30vJcsU5fzcMPMvQ9ts+nAHZwxw/b6JZtQk6tzVfNWryy5Tl633f8AuBNRpqMs5fh1A2AAAAAAAAAAAAAAAAAAACL1/Ua+maXO6tqMatVThCMZPZuUlH+JFk15U9ZnVvbCjTpw5LqlOcm3vFx5dv3v6ClmOipqsXO5o2dKVxcWzSnTTUd2k+r26MI20PUJ6npdK7qQjCU1vGLykwO8AAAAAAAAAAAAAAAAAAYazj0AeVxa0LmlKlcUoVaUsc0JxUovG/RgVyXufcNynKXkc1zPLSrTS+0Du03hPRNMT8lsafNzKanVXaOLXenLOPYB2anp1pqllUs7yiqlKXc9sPxT7n6UBTYu54EvOSTq1uH609nu5Wsn/DP0+sC5adqFrqtpC7sqkatGfSWP3Ndz9AHUt5dV17wNuyWc5YGeRYxl+zYCuWdOOl8VXdl2q7G+g7mlTdRuSnnz0k/HLewFip53znHcBuAA15Fj8AKdx/fVFb22iWkXK61CrGMeVNuEYtNyWPBpezIFrtKcoWlKnUnzzhBRlLxaW7A9VTSWE2kBnHKs9ceIGlSvGlSlVqSjCnBOUpy2SS6vIFK1fWLniO/lonD0828f+130fixX9WMvT6PvAtGi6PZ6Pp1O0sqfLGK86T+NN+LfiBIOCbz3+IGeX0sDDhl7v6dwNgAAAAAAAAAAAAAAMMl8VCcX28K/D9zKbqfk4OSUZtJ+tLqvQxwHRcRu52VOFhUjRrebvOOfNTWVjuysot9S+IO95qfFdxfU05zt7WlzYWeaDc+ZL6EVueO/hOcJWNxOmvNndVWmo45k5vDDl9WBdCNMgAAAAAAAAAAAAAAAAAAAAAAAGH1AqXuZ/Jmr+uVftQFuAAAAAAAAAAAAAAAAAAAAAAAAAAAAAAAAAAAAAAAAAAAAAAAAAAAAAAAAAAAAAAAAAAAAAAAAAAAAAAAAAGlVZivWBWKCfDeuujGnJaVfzSg1PahW3bWH0Ul6e4C0dpHbfqBsBhgVGx/71NS/5fD7YgW9AANXNLOc7AQfFOt0NF06pOU1K6qJxt6aXM3Pu271nqBzcMcN+QxlqN/UVxqlys1Kst+VPflQFlhFx64bA2AAAAAAAAAAAAAAAAAAADD6MCH4koVbrS406NN1Jq4oywn4VIt/uTDXG44Fp93Q4roV4Qbsuym+b+pN8uV+5At1JeU3FO5vJT02o4U2lCVLDlWWE3s2ugZePCSuKejwt7q0r29Sls1US87PhhsCcAAAAAAAAAAAAAAAAAAAAAAAaODbfpA0qUFVWKkYyT7ms4ApeoaTqfC1/LUuHqHlFjWy7iyUscr/AK0f8/TnYLDw9rdnrdjG5tpcs47VqUvjQl4MCXc0l3gbLdAQPFVrWnZ076yz5XYz7eCUuXmivjRbw+scr2gSmm3VK+sqV3QadOrFNY7vFAdQADVzS8QKRZyjr3uh3F0nVnaaZT7OnJtcqqvZ9Oqaz9AF3prEfD0AZclHqB5VrilRozqVJqEYrLcnsgKPcV7rja/dtZynQ0OhL8rWxiVxJd0fR/7+gC36dpVppdv2FjQhRg92orq/EDujHljgDIAAAAAAAAAAAAAAAAAACjh1XTKeqWrtq1atTpS+MqUuVyXgycZg8Z6LTq6fGzr17irGM1PnlU89tSTW+OmxfpXrHS6Mb2pdJyc6lKNKSb25Vn72VqXprpuk0dLt3Qs3JU+eU0pPOG3l+zfoGM7SK2RFAAAAAAAAAAAAAAAAAAAAAAAADD6gVL3M/kzV/XKv2oC3AAAAAAAAAAAAAAAAAAAAAAAAAAAAAAAAAAAAAAAAAAAAAAAAAAAAAAAAAAAAAAAAAAAAAAAAAAAAAAAAADWaygOHU9Oo6lYVLS5pKUJrZy6xkujT6gR3Dt7WqRq6VqCpq+sOWnNxnl1I4XLPffdNe3IFgyvEABUbH/vU1L/l8PtiBbspdQDax16gRus6pb6Pp9S8u6sYRgtubvfcku9sCvcM6HcXt1HiLXWq11XipUKafmUINbYXjj/OQLnBYjh9QMgAAAAAAAAAAAAAAAAAAAAxLowPNpyWVhetdwCWMJtJJePiBEw4h0iWqeQLUbeVxzcvIqi+NnHL/wAWe4CXpyWM5WH0A3TTeEwMgAAAAAAAAAAAAAAAAAAAAAAAGtRZg1jIFP1zhOtK8q6toVapZ3+0nThLFOtJf1l0z+4Ds4e4nt9VStb3ktNTjLkqWsnyycknnlT9TAsuUkt+4DSe7bWNvECv8N1fe6/vNBuKuZ0X21u5SjmdKTfcvBp/SgLJlAH0Aidf1GOkaNc3qlTU6cG6caj2nLGy+kCK4A07yPhm2qYi3dJ1nKKw8S3SfjgC0xxFb7Ac2p3lvYWU7u6qqlSpLLk39Ht9AFKoWeo8b3Ery7rVrHR45jRpQeJV/TLxW33d4F1tLOjZWtO3tKSpUaaxGK7l7e/0gdWUsZfUDIAB06gYyvEDIAAAAAAAAAAAAAAABkDHMvFeIDmjnGVkBzLxXgBkAAAAAAAAAAAAMZXiBlNPoAyBjK8UBnK8QAAAAAAANW1kCp+5n8mqv65V+1AW4AAAAAABNPowAAAAAAAAAAAAAAAAAAAAAAAAAAAAAAAAAAAAAAAAAAAAAAAAAAAAAAAAAAAAAAAAAAAAAAAAAAAxL4rArnENGvaXFPXLJV51KCUbijSin2tLOWsNrdbtATFldUbuzpXNvPno1VmLxjZ+gDrXQCo2P/epqX/L4fbEC2T+Ltn2Ac93c0bS3qV7mrGlSguaUm8JICn6Tp1xxVex1vWuXyGEn5Hap5TWfjP6AL1FYiku5YAyAAAAAAAAAAAAAAAAAAAAABiXxWBE61rmnaLQ7bUbiMG88kMZlPC6LHj6dgKv5RxBxZVn5JUnpOluSjmpBqtNY3x9K2AkJcBaL7zOzVLlr8n/AGrH5Tm65+nu8NgOGV3xBwlXh74Opqulycl2lOOatPvWfo6dALRoeuWGt0XVsK8aijjmjupReM4aYEqAAAAAAAAAAAAAAAAAAAAAAAAAMT+I/UBXdf4Ws9Yg68VG31GGJUrmCxJSXRN+AEdovFVWjc09I4koVLe9U3TjXlHFKo1jD5vF5AtyzjZ93f09QEDxLFWdSy1eEaubOrip2ckvyUvjZy1lZUQJ6hUVRRnB80ZL43cwPYCkcazranqWncN0IvFzJVq0uVPlgn13a6YbwBdacOSnGC/orAEbr2rWmjWcru7ljC8yK3lOXgkBVrPStW4rrW99xHy0dPi3VpWUMqXXbm/zn0AXalGNJQpwSUVhJeHqA9wPCrUhRg5VJxhFY85vH7wPaDzBPxAyBrVkowy3henoB5UalOrThUozU6cksSjLKaA9wAAAAAAAAAAAAAAAHheXFG2o9pcVIU4L+lOSSyBSrrirUtZlUsuFbGrODzB3tTzIxWcOUfFd/ivADWekcS8PzhfWF/V1Vylm5tqj5VJtfGT8duvUCa0Liqy1ZuhVjO1vIJc1GuuVvP8AVz1Wdl3+gCxx+KgMgAAAAAAAAAADihd0K1xWo0qnPUpPz0s4j6M4x7AOmjOFSnzU5RlHOzi8oDNTOEl1A5XeUKdxToTqcs6vxE01nHdnGANry4pWttVuLifJSpRc5yxlJLd7AQ/w64Y/S1P6uf3APh1wx+lqf1c/uAfDrhj9LU/q5/cA+HXDH6Wp/Vz+4B8OuGP0tT+rn9wD4dcMfpan9XP7gNfhxw05Z99qeP8Agn/6QK/wNxRoelaFO3v7+FGrK4qTUXCT2eMPZAWL4dcMfpan9XP7gHw64Y/S1P6uf3APh1wx+lqf1c/uAfDrhj9LU/q5/cA+HXDH6Wp/Vz+4Dehxlw9dXFOhb6nTnVqyUIR5JrMm9l0AnYPcDcAAAAAAAAAAAAAAAAAAAAAAAAAAAAAAAAAAAAAAAAAAAAAAAAAAAAAAAAAAAAAAAAAAAAAACgW/wk1rWtZhY69K0o2d3KlGm6MZ7b+j0AdvvBxg+nFqX/0sQHwf4x+dy/ZYgPg/xj87l+yxAfB/jD52r9kiBzWPCnE1lbKhZ8TRpU4tvkVDmw316sD3eg8XJb8WJ+OLWIHNHhPiGGpVb+HE1NXlWmqU6itllxXozjuA6loPFzx/1sSfXDtYgcepcHcQ6nbK31HiSNenzcyi6HKs+xrPiB0UeHeKaFONOhxRCnTjFKKjaRUUu5Aevwf4x+dq/ZYgPg/xj87l+yxA5dU07i7TNLur6pxS6sbelKo4RtopvCzjIFk4dua93w5YXFxV7StVoRlOfe21uwPX3wb1F2lOEpdnFTqzcsKCfT1vZ/uJaPO01u1urhUafbJzy6c6kMQqY/qvv8SyCQc8NqTwvXgUxz315OhayuKVN1o01mcYySeO9rxfo7zI6LStG4pRqwlzRlFNP0GjXuAAAAAAAAAAaTeJbeHTvA8q1eFCnOpVmoQisyk30wBUbvi27vrudhwtaK9nDCncyb7KGc/5yB6aHwkrerHUNaru/wBRmnzKq+anByeWor2+r0AXFRSikkkl0XgBnC8APOpBS2aTTTTXiBUdc4T5609R0GvOx1COGowajTqOPTMfoXh6ANbHi66sbuNjxRaKwm3JRuU/yU8eGftyBbaNWNWEalKanCaymnt6APaPxUBkAAAAAAAAAAAAARh9NiVURrtWo1b2NGcoSu6vI5x6qKTk17UmvaOPo5dVq39i7CNrXp07Z14UpRcW5NPP9Jvp+/0i+iccnh8ry0v3lvioawudQlxBe2t5WhOFOlTlCFODilzc2+7bzt4kng9LONSx1utZ9pKVCtHtaUZNtxefOWX7X7Ssu/UpculXcoyxijNp/wDlYVReGOFqes8P2t/c6xqsKtZS5o07jEU1JpYyvBICV/k/tf03rP7R+AHlW9zbTrjl7fVNVq8vxeespY9WUB6/yf2v6b1n9o/ADWp7ndlVpunU1jV5wls4yrpp+zAGY+57aQiow1nWIxisJK4SSX0AZ/k/tv03rX7T+AGj9zmwlWVZ6tqzqxWFN11zJeGcAb/yf236b1r9p/ADyre5vp1xy+UapqtXl6c9ZSx9KA9f5P7X9N6z+0fgA+AFqt/frWdv/EfgBw2umPROPtNs6WoXtxSrUKk5K4quW6TxssIEWTUv9L1uzsZrNCMJV6ifSTWFFP8AvMFeOpOrT4i02ULmr2cnODoprkXm9Uks59bBExJSVL4/K8dUFQ3D0asb7V6NevVuOS4S5qrTbXJF42SXf3IDp0tRtNTvLGmvyUWqtOK/oqXVerLCJkAAAAAAAAAAAAAHlJtbN4XVvPQCta1xfRs66sdLpPUb9uSdGlLeDS7/ALgI604a1DW7t33FlaXK3Hs7KlPFNRSz530+teIFwsbS3sqNO2tKKpUaa5YxS2SA63jAFf1vhjTNaaq3MJU7lY5LmjLlnHv9XtwBAU9Q4h4TpqjqNvLUNNp83Lcwb7SEcrDk/Dfp19IFu03V7HVLdV7C5hWhsnyv4razhrx3A7aW+7T6AegAAAAAAAHNcVHToTnjeMW8IxRGaJb06vD1GFfz3cQVSq1Jx5pPdvK3LB58KxVLQKUaUnyqpNR7+kmaGmo1Ly51yjZ0L6pbUZWznN0+XOVLubTRVeXb1L/hONzXea9J8ym1jzlLGfoZPqXx28RS5+ENSqPq7Oo8+nlZUjk4P06xq8J6ZUq2VtOcqCblKlFt/uMrU0tK039H2n1MfuKM+9Wm/o+0+pj9wD3q039H2n1MfuAe9Wm/o+0+pj9wD3q039H2n1MfuAe9enfo+1+pj9wD3q039H2n1MfuAe9Wm/o+0+pj9wD3q039H2n1MfuIHvVpv6PtPqY/cA96tN/R9p9TH7ih71ab+j7T6mP3AVPja0tba/4cdvbUaTepU03Tgo53XgBd0AAAAAAAAAAAAAAAAAAAAAAAAAAAAAAAAAAAAAAAAAAAAAAAAAAAAAAAAAAAAAAAAAAAAAAAAqHBn+vOKP8AmD/iBbksIDIAABhwT6oByrOe8DOAMcqAKKXRAHFPruBkABD8X/JPVH3q2n9gGnCCXwR0t4z/AKND7CXweWnwlP34WW6krh4z1+JHGCSCI0106tHh21pyiq1q328U/Ohim0+Zd2+2508Ehr1e11O0tY0puVNX8Kcnhx3Seyz/AAJWo9NFoUbPVdUs7alClb05QlCnGOIxzBN4XtZlmuzhv/VsF/RTah4Yz3GmZEuRoAAAAAAAA85VGpYW+AK5r/GNhpkXQtpK81CW1K3pedl5a3a6b93UCJjw9q/ElxCtxRONG0pyk6djRlum9lmS2fXrnIFv02wtNMtlbWNvTo0s5apxxl4xl+PRbgdqhFPOAMgADWQMcqA49Q0mw1K2dC+tadaHVc8U+V4ayvB7gVCWha1wzWnW4ZnGtYzanKyqy3z34b6d2/X6AJfh/i+w1WnCjWnG0vo+bUt6vmtSzjCz137uoFh531WMYA2i236PtA2AAAAAAAAAAARrJ4RKqI1xOhUs79xcoW9XM8d0ZJxz7M5HH0+PLWLW+1CFt72ztOyhUjV5qkpec1nphPYX1Ht2+oz1e3t5KEaMKTnWcY5UpdOVN/SW+NPC3tNUhrta+q+RuhVjGm0pT50o536Y7/3EnhXpbVFfa7WrQ3pW1PslNPKcnu8P24Ky7tTX/RN54dhP/CFRHuer/qVpz/3Z/wCOQFkAAAAAAAAAAAB9AKfqf/eboy/8JV+yQIltTU7XUbXUYwlOMc0aqim3ySx52F1w0vpBTUNKub3ULe8o6jOgqGXCCpRfVYe7CN6NtfT1W4rVqso0I01CjFPZvvljpnb94V5afplxp97dXVXUJ14V3zzh2MY74S2xv0SA9NH7S4ubrUZ03CNeajTUk1LkWybT3WdtmBMAAAAAAAAAAGJNpZQGnP352TwBG6zr9jolv2+oXEYKTxCK3lN+hfxAqk62ucaOrToRnpmjPljLtYNVKqe7x7H6mBaNC4d0rSKGLKzjCck1KcvOm1nOObwykBL8kcYwBlRinlIDIGrhF9UBiVKE4uE1zRaaae6aYFR1Lg+pb3zv+GbxadWly89LpSnh96Xd6MAeemcZuzqxsOJqE7O9XmutKD7Oo00tmvX16ekC4UqvaKMotOMt001uB6gAAAAAA8pxUoPOcPYzRFWNpWpWlXTq6nGlT82jWpz5cx7kmt00iwea0KFvpVe0sLivDtotZq1pTUMvfGemdy30dlDTbe3nRrU48sqFBUIJN4UPDBRx3OnyVtR0yzoyjbynzVakpJpJPLXjlvHo2J9S+PXibC4V1RdP9EqYX/lZUjTgv5H6X+rxMtVMtyT67FBTzuugGO0edui67MBztYy+uwDmk3jOPSB50bylcTqRoz5+zfLJpbJ+vo/YBv2j8UBlzfo8VnYlBzaaWeveBhVHy7tZ8V0Azzy2fcUbrdAVDj3/ALdw3/zOH8ALggAAAAAAAAAAAAAAAAAAAAAAAAAAAAAAAAAAAAAAAAAAAAAAAAAAAAAAAAAAAAAAAAAAAAAAAFQ4M/15xR/zB/xAtspcvdkDgu9Wp2t1Qt521zN13iM4QTivW8+0LI8LjiClb1q9OVjez7BZlOFNOLXity4zbjyXFFDl5pafqEYuDmm6K3SWfHwM24s7e/v/AGzdryULicLranOME45xnD367Mt6HlHiW2lUrRdnexhQly1KkqS5Y+3PgXOtI9LjX6VC7lbeRXlWUVzc1OmnFr15M8bpStxBQpW1rX8kvJq5bjCMKeZJp4w1nYDL1+1jQlOpSrwqxkouhKH5TL6LGSjK122drXrdhcKVBJ1KLhiok/RkDay1ujeTUPJ7mhKUeaCrw5edeK3YEknlARHF/wAktU/Vp/YBpwhvwjpcfG1h9gHStNlT1by23rRhGpFRrU3HPPjo1vs/wA61aUYylKFOEZTWJSjFJv2ijxtNNt7S1hb0Y5hCTknLd5ff6wMahZ1bm1nRtq0KEqu06nJl8r2eN9njowOi1tqdrRhSpLEYR5UB7AAAAABhvCyBjtF4AcOqaxZ6Ta1Lm9nyU4Rztu36EgKhW1LW+LLjstFpVdM09uXaXlSOZVFjGEu7r0/fsBYNE4a03RqMOxoKdwornry3nJ9cgTC82KT6rr4JgbRa2fgBu579AjSNeEpygmnJdVncDfn9AVrKryvoTRmNWMm0mm11w+hRlyQHm8JN749AELr3DOm63RnKpRVO6UX2dentKDznPp3AgaWra5wrVlb63Rq6hYc0ezvaUcOKw9nHv6dP3gW/S9TstTs6d5Y1o1KdSOdnvHxTXoA7VLfAGwAAAAAAAGHLfGGBkDDA0nSjUi4z3i9mn3knQxGjGEVGLwl3CjZ089+xaMdn13W4i6xTo06axCMYrOcJYWQzjn1bbSbvvfYTW3/CwqI9z544K01f7s/8cgLIBEavq13p9akqGnxuac9m1W5ZLx83ley9ZJdXHvdapClSou3p9vUuP5qHNy822c57lg1YY4LzXNSs6XNU0eOzSb8p83Lz0fL6DH67RvR1u8na3NeWnUuSjByjKFzzQm08OOeXZrDNDHwgq1PIpULKM43M+zlzVuV05Yy1jl32QnY95ardzlKpaad21tFtc/bYlJp4eI433XiTRpqOr31nGjKnpsKkarUfOuORqT7scrJ+uxpqGs6hZRoP3rp1XV6qNzvF53x5u6XiaWTUvRrwr04VKT5oTipRfigzr0b2Cqdq840/dK0ac2opWlXdvH9YC0OtbS63FH0eegNu3tcf9oo9MfHQTDyi2/OKX99AwdxbP/8AU0vbNBWFXtk8q5pernQG/ldt+cUf76AeV235xR/voB5XbfnFH++gHldt+cUf76AeV235xR/voB5XbfnFH++gHldt+cUf76AeV235xR/voDDvLZf/AB6X99AaVLy2VOUpV6SjHdtzWwFPv+LLzV5VLHhS0qVaj813c9oU98cyXf6/3AdujcH0be8Wo6xdVNRvU5NSqLEFnvUf89egFll2dOGcxjCPpwkgNba9tbinCVtWp1IyjmPLJPKFBX1OV15PGMnJLMpLGI+h+kkul6enlVJS5eeHM+keZZL9w+DuqMXidSEceMkgMuvTUFNyio/1s7AY8ppcvMpx5fHmWANe3pVJeZUi8LfDTwBz6jplnqdpUt7yjGpCa5XnqvU+4CpS0nXOFLiFxoterqVhz+fZT3klhLPN47eG3gBN6JxjpurUKkpOVrVowU6tOttyrG7T70gPV8Y8OrH/AErbb7/GfQB8MeHP0vbf3mA+GPDn6Xtv7zAfDHhz9L2395gPhjw5+l7b+8wMfDDhvOffi2/vMDV8XcNv/wDeLbHrAPi7htrHvxbfSA+F3Dm//TNtv6Sph8LuHE21rFs36yGI7iHinQ7nh/Ube31O3q1atvUhCMXu24vCBIleC/kfpf6vEKmpdDPLl+ZoresW17TuadWGq3dONesoKnS5VGCw+mUxw5fseOrxvLC3s4S1C/qzc3GUrfl55ruymsZQ/X9sGKlK+ejQuVql5F1XSnBZjzwUsJxbxh9XjZGhKaiqlLQ6sad3XVSFPKqZXPn07Y/cBHcOxuLip2/lV/GNHHPRuVFKo5RTzhJY3fiBy0/K6mrVbJX2rQ/KzjCopQVOCXRfFbb+gokreneX9SqnqFWkrbFOKppefJJZlLOc5fcsGeVwcNpf3ru6/lN1PsWlTquDSVOb/pQ26N7b+JJdS3G+nyu69ra2i1CvzVnUnVrvl51FSaSjthdN9mb/ACs7SunO4oXlWxr15V4wj2lOpNLma8JY2zv6CCXjskBUOPf+3cN/8zh/AC4IAAAAAAAAAAAAAAAAAAAAAAAAAAAAAAAAAAAAAAAAAAAAAAAAAAAAAAAAAAAAAAAAAAAAAAABUODP9ecUf8wf8QLa45edtugHBqtrKraOVNZrUmqlPxbW+F68YJasRlTtY6BdXNxRq9vcLLp0oNzin0WI77Yf0l1mxE2tzbWWlXFtb2uqValxSzN1rWq3CSgl1ay1t7DnyWOulRqTu9Lq21tU8llW7SSlScJUZ8kt2ms4ef3HT1KWl8oVNToqzvXWrVm6blazUZeal8ZrGMp94t6I5Lm3oW+o0qV5HUn5PRhFTo0Ks4TkmnvhYl07ycJmrUlqeoKpQ0278lvVGVbmlCNvOUoxi/6UUtvaVHlUlVqazT16na3DtqUezcHSlGeGt5KLWcrp0KPS8rSvKd1fQtbinQjR7OC7GSqVG/8AdxzbervMjXSPKaVWyuLt3VzCpTVOEp27hOi+jTiktvS0UWiisU1vn05yFRPF/wAk9U/Vp/YBWOHtP4uq6BYTsNZs6Ns6EXShOgm4xxsm8bsCS97OOf0/Yfsy+4B72cc/p+w/Zl9wD3s45/T9h+zL7gHvZxz+n7D9mX3APezjn9P2H7MvuAe9nHP6fsP2ZfcA97OOf0/Yfsy+4B72cc/p+w/Zl9wD3s45/T9h+zL7gHvZxz+n7D9mX3AYemccf0tesGs/my+4Dj1DUOLdCtK87mjS1LLiqVSjBJQ2lzZit87LfoBycLaJpmvKGq6pqT1K8xzulObxR85trl8PQ1gD6BhYxslhdNnjuA0uozlb1IU6rozlF8s1FNx9OGBCaBOtG1s6l3rDru4hmnRmopt9dn1eAMpapV1a6t4alCnRpqM1Lsouaznbp0269QOO81S/8plXtZzlZ06qpSUlTjDKeJLL859/QLj1nSqT4lrRtLqlZyq20JynGEZSlhvuezW+79QMelbVLqVhGlQqyneTqOlTlRjF9py9X53mrbqRHvpNxe31ncUq1V0rilPlVTEJOPrS80Dztpz0urqEr26daEKarVKnYxjJ92fNXnbJdSVY89MvtT98Y2185KFaDcXUdNSiu7Ch/EsLGkaur06M7uWoc9OnVcVS7KK54+l4yn6vA3IxasqXT17egy1GlSEZQeUnnrkCgcT6Lp3DyqappOpPTbv46t4z82r539Xwz3dPED3027441qSq0ux0uhy4j21JPLWO5rm3z6tgJL3s45/T9h+zL7gHvZxz+n7D9mX3APezjn9P2H7MvuAe9nHP6fsP2ZfcA97OOf0/Yfsy+4B72cc/p+w/Zl9wD3s45/T9h+zL7gMS0Hiq9XYalxBTjbveTtKSp1Mrph4QGPgRdfOnWV//AHAPgTdfOnWfrmA+BN186dZ+uYD4E3Xzp1n65gPgTdfOnWfrmA+BN186dZ+uYD4E3Xzp1n65geF9wbc0bC4qvibV6ihSlLllVynhdAJP3Pt+CtOfon0/45AWQCt39nq95ralRVW1tqVNxhVjKnPnb65T3XcZg89Ns9Xo2lvKtaT7Wzk1GM6sM1YNNLo8JrJq0cl1o+oVadWpGwupxqNJ2te8VRd7b3k449BjOx3UKN/DTriyoaJ5Nb9nLkp9tBuUpN5Sw8Jb95q+DWOlX07uwuOw7KHPm5pOotsRaUlh47y8aOyktVsafklKzVxHMuSt2kYpJttJrOds9xJ4rz1uOp1FQp22nu4cZxnKcasIrbqsSZjO0c9ehrWoapCp2FWwp06bUanPSqbvrtv6Oh1JXdw3Svraw8mvredPsninKU4y5o93xXt6iGJhgUXinTLbV+PNJsb6m6lCpa1G4qTjlrLW6A7/AOTnhj8xqfXz+8B/Jzwv+Y1Pr5/eA/k54X/Man18/vAfyc8L/mNT6+f3gP5OeF/zGp9fP7wH8nPC/wCY1Pr5/eA/k54X/Man18/vAfyc8L/mNT6+f3gP5OeF/wAxqfXz+8B/Jzwv+Y1Pr5/eA/k54X/Man18/vAfyc8L/mNT6+f3gP5OeF/zGp9fP7wD9zvhpLEbGe/jXn94Hjf+55pFWxqUbSdxaOTTk1VcoyazjKbw+oEfp+talwhQp6frumYsqfmRuraPmpc2OaSW3s6sC7Wt1bXlBV7SvTq02sKcJJoIzWoQr0alOpCNSM004SScZLwa7wqv6BTsrepRtqWjOncQi1WuPJlTjHHeptLmy/BsXw+vPy2ypcRu5o6fdwzBwqVI2NRc0s4WXy7+snE5OW8sZR1Os7yrdqrKpJ0qlPT41mot7efytrC9OxfpPHbdWlhX13F3p9S45bVZnK1lJSfpeMcxUc9WnVu9CtVCF1ChQqyVWnO15pOHSP5OS85Lbu7jLTelb28NAvk1dXFKXLilPT3S5d/6MFFZ+gqPeypWdnqtirKwrW7q0fyko284p7f0njGc+O4Flbxu2sPphgQGv8TWWjzhRp813eTnyK2ovmqZ9K7uvtAr1Hhq+4tvoarxBRhZ0nCLhSppc8l1859em2+6AtdtwxottQhRp6XayjFYTnTU5P1t7sD3+D+i9+kWGf1eH3AZ+D2ifoiw/Z4fcA+D2ifoiw/Z4fcA+D2ifoiw/Z4fcA+D2ifoiw/Z4fcA+D2ifoiw/Z4fcA+D2ifoiw/Z4fcA+D2ifoiw/Z4fcBh8PaLjbSLD9nh9wEXxJoelUOHNSrUdMs6c4Ws5RlGhFOLUXutuoHXwX8j9L/V4gTeOuxOU2CK1XSa2oVaM6d9Ut1SlzpRhGXneO6HCYMahpNzdzt5w1CpQlReU404yy/HdfuJn9tHhV0S+r0Zwq6zcSlOSk26VPCx0SWMLxNIe8V1KNZ1dVq1KlSn2an2UI8i9CSw/aB62ek3tCtbyrarWr0qMWlSdOEU9sLLSy8BW9hpl3Z3dWrLUKlWlVk5ypOnFLL78pZA1utGqTuatxaXtW0nXX5ZU0mpvGE9+jwksoWasaW+gdhUqLyqcrepTUHRlFNbd/N1z6SYzYzHQY09PoW9GvUpztnJ0qqw5LLy852fqY1Y6dO06Vpz1KtaVa4qPM6kklnwWFsvYUSEViKTAqHHv/buG/wDmcP4AXBAAAAAAAAAAAAAAAAAAAAAAAAAAAAAAAAAAAAAAAAAAAAAAAAAAAAAAAAAAAAAAAAAAAAAAAAKhwZ/rzij/AJg/4gW9Aa1MY3ySjVZ37/uLIHXu2a2JYNUml8V56dOg/jKytl6icvUjG76+018Wm/RJ8vqMWozjK6PHoNShh58QHSLaXdthFG9NYjgKieL/AJJar+rT+wDXg75JaV+rQ+wCaAAAAAAAAAAAGJZxsB5zWVjGfHPgBVdZ4Nta7neaM3YajHz4Sg8QlPOfOXr7/wBwHJQ4q1PR6/kvFGnyjHLUbm3WYSSaXTuW/X9wFvtq1C6oqrb1YVINfGg87PoB5UNMsba5lcUbanCrLeUl3sDwhoWmUa6uKdnTVbm5uZN5yBtW0PTa1WpUqWVOVSptKTz5y7waVdD0ytOUqtlCUpYy3ndLp9rBr0r6XZV7WNtUtYTpQ3jDwwQaR02nbUKvvZGla1aiS5+RyS9azv3ga2enVqcqtS/uI3NWrHklinyRUV0WMv7QFHRNNoVYujZwi4ttPfzX9JcNJaFpXYyou0p9lKXPKGXvLx6jTHTc3FvZWrnXqQo0oLveNl19ewFQueI9V4glKy4YsqtOlKUee9qLl5E85aW/h1/cBI6VwbYWdXyu+lPUb3mc+0q9Obmyml3MCyQjiouWOF34A9wAAAAAAAAAAAAAAAADk1b/AFRef2E/8LAhvc9+ROm/8M/8cgLIACMEAYoW+AZ4gaihn6jBtlkjYEVHVP8AvO0X9Uq/ZIC3gAAAAAAAAAAAAAAANZ/F/ADnr2tK6t50a8FUp1E4tSWcoCo3/Cl1pdzHUOE6vYVk3z21WT7OUX3JetLYI6dH4thUuXp2vUPe2/jypRm9qmV1T7t+794VaUko7Yed+gvh9FFdcvJOJyZSlhZ6i+k8FFeGGt+hUZ7sbkUwljPs26FHFqWp2Gl0lVvrmlQgt8zf0bdeoFSq6pxDxVGVLRraNlp88xd1V6zjlbrHR4ztv6wJzReFtL0eSqUaUqt133FV5luknjw6dAJ6OeXGMP0dMgei6AAAAAAAAAAACI4q+Suq/qtT/CwPHgv5IaX+rxAnSfQJaMFhQIAZCgAAAGAUAKfx7/27hv8A5nD+AFwQAAAAAAAAAAAAAAAAAAAAAAAAAAAAAAAAAAAAAAAAAAAAAAAAAAAAAAAAAAAAAAAAAAAAAAAD5xpXEumaBxBxFT1CtKE619KUFGDntvnoBML3R+Gls7it9RIDP8pHDX5zX+okA/lI4a/Oa/1EgH8pHDX5zX+okA/lI4a/Oa/1EgNZe6Lw3J7XNbx/mZAZXui8Nw2lcV8+mhIDP8pHDP5zX+okA/lI4Z/Oa/1EgH8pHDX5zX+okA/lI4a/Oa/1EgH8pHDX5zX+okBHcQcd6BqOg31pbXFV1q1CcIKVKSTbW27AsfB+FwtpWM/9mh19QE4AAAAAAAAAAAAAABzXdvRuqFShcU41KNROM4y6NAU244UvNEuVe8K157z8+yqVX2TTSXXrnbvefADt0bi+ldV/INXo+9l/FRzTrPlU2/6ufT0QFpjnn6539IHqAAAANZ/F2zn0LIHm3v8Av9gFU1XjSlG6np+iWtTUb6PMnCnFuKaxu33r1Ac9vwld61cyv+Kric5Sm3Czp1H2UFjC6d/+WBc7ShTtraFCjCMKcFiMYrCSA9gAAAAAAAAAAAAAAAAAAA5dUhKpplzTgm5ypTUUurfKwKNw7rWp6Lolrp1ThjVKs6CeZxptJ5k30a9IEr8MNS+aOr/3PwAfDDUvmjq/9z8AHww1L5o6v/c/AB8MNS+aOr/3PwAPi/UmsfBLVl/5PwA56HHVzcVq1Khw1qVSpQko1YRWXB+D229oHR8MNS+aOr/3PwAfDDUvmjq/9z8AHww1L5o6v/c/AB8MNS+aOr/3PwAxLi/UnF54S1df+T8AOKzr6hrHG+nahU0a+saFvQqU5SrQeM4ffjbwAvncAAAAAAAAAAAAAAAAAAAERreh2GuW86N5SjzPaNVJc8H3Yf8ADoBWZLiDhKupJ1tX0t83NDDlVpLrzOXs9QFi0LiDTtdoupYVt4YU6cliUX6vB+PoYExHuw9vtA3A8ObD2SazjYCp6lxnTq16un8PW1TUL5JrmprMKe6WfStwMaXwjOve++XE9daje+byRe0KeF05Vs/T3MC3W1OnShGFGEY00sRUViKXgsAewAAAAAAAAAAAAH0Aj9Ys5X+k3dlCXLKvSlTUsNpNrGWBVrPh3iyytaVpacQ0KdClHEI+Tp4S7s4A6fefjX5zW6/+lj9wGfefjX5zW/7LH7gHvPxr85rf9lj9wD3n41+c1v8AssfuAe8/Gvzmt/2WP3APefjX5zW/7LH7gHvPxr85rf8AZY/cA95+NfnNb/ssfuAe8/Gvzmt/2WP3APefjX5zW/7LH7gHvPxr85rf9lj9wD3n41+c1v8AssfuA56vDPEd3fWVXVtboXNG1rxrKKocvR77rHcBdIett9QNwAAAAAAAAAAAAAAAAAAAAAAAAAAAAAAAAAAAAAAAAAAAAAAAAAAAAAAAAAAAAAAAAAAAAAANHRpNtulBt9XyoB2NL/ZQ/uoB2NL/AGUP7qAdjS/2UP7qAdjS/wBlD+6gHY0v9lD+6gNKlCiqcvyUOj/ooCq+5lTpy4QpuUIt9vU3a9IFt7Gl/sof3UA7Gl/sof3UA7Gl/sof3UA7Gl/sof3UA7Gl/sof3UA7Gl/sof3UBtGMYpKMUkvADIAAAAAAAAAAAAAADC8AGF4AROtcP6brFNK8tVKa2jUjtOKznZ9wFWlb69wfJVLHtdW0yMGnSlLEqO+dl7e7r6ALHofEljrUHKhUlTqxk4zoVVipFr0ATCk/TuwN4PMUwNak+UCG1ziSx0aMVcTlWrSlyxoUcSm36sgVunZ6/wAXSdTUnV0vTXCOLenLLrbp79NtvYBbNG0ay0ezjb2NJRinzOT3lJ+Lf7vYBJpJpPqBlJJYQAAAAAAAAAAAAAAAAAAAAADC8AAAAAAw0msNAVHhBJ8UcVbdLuGPokBbwAAAAAxheAGQAAAAAAAAAAAAAAAAAAAxyrPQDzmllppYx09AFa1ng+1v7zy+zrVLLUE4tVqPR472vH0gRtnxPqmgShZ8U2dVwi+WN7S8+M1nHNLwXp6+gCa1fizT9NtqVSFV3dWq8U6Nvicpbdfs9IEHHTdd4un22sTqabYNQcbSEsup0e77vW914AW/SNJstIsadrZUVCEe97uTfVt94HdyrwAzhAAAAAAAAAAAAAAAY5V4AZwvAAAAAAAAAAAAAAABhPqAAAAAAAAAAAAAAAAAAAAAAAAAAAAAAAAAAAAAAAAAAAAAAAAAAAAAAAAAAAAAAAAAAAAAAAAAAAAAAAAa1P5uXqYFT9zH5H0/7ep9oFrqVOzg5vGI7szLbRyW2qULi1lc706MU5c81hNLvXivSavQ6adZVIKcGpRaymt8oFZ7R5xj1eklv/ojWdfkpynytqKbaSy36hLVa2V5SvraFxQbcJZ6rDTTw0/aVnXvkKyAAAAAAAAAAAAAAAAAGk+oGjiopsCta9whp+qV53dCVSyvnl9vQlytvGFzLw8cYfpAirfiHWeHo06PElk61ukoK8oZafX43c3t0WALK+I9Lho3vp5TDyTk5+Zb/wDlx452x4gVq41rWuK6qt9Bo1LCzUpKd7UhnmWMYS9vTqBLaBwhp2l1ldVO1u77Z+UV23JPCW347gWXkQBQS6AbAAAAAAAAAAAAAAAAAAAAAAAAAAAAAAKhwhtxRxW//FQ+yQFmuLunbUZVa04U6cFmU5bJLxCVsrhOMZRw1JZTTDWPRTbWcfSSs617XdvKaj1Gq87W7p3dNVKFSFSm3jmg8oajpKoAAAAAAAAAAAAAAAAAAAADDim8gY5EB5XNnb3dvOhdU41aVRNSjLo0BFaXwloulXcrq0tEqzk3GUpN8i8F/nO4E12ce70gbJYWAAAAAAAAAAAAAAAAAAAAAAAAAAAAAAAAAAAAAAAAAAAAAAAAAAAAAAAAAAAAAAAAAAAAAAAAAAAAAAAAAAAAAAAAAAAAAAAAAAAAAAAAAAAAAAAAAAGtT+bl6mBUvcx+R9P+3qfaSia4knKGiXHJs5Rwb4SDw1uytKvD11Sq29OdOjQm4KUFiDjF4aOXO39Qvjp0+tTo6TbSqVYU49nHzpNRXTY6c/8AicP+oHUvKpXOuVo39zT8jgqlGFOo4xUuzT7uqb7jPBvn46bCVxbaxY053Vaqrq2nUqRnJuKknHeK/o9eiNcvWOPjv0hKlqup0oNOHaRn6m4rIEx3mfqslAAAAAAAAAAAAAAAAAAPdbAacm23qA1nR54zjPElJY3Xd4AVeHue6FG/Vy6MpQT5lRcsw5s56eHdgC0wpcqSSil4JbIDaMWmumwGwAAAAAAAAAAAAAAAAAAAAAAAAAAAAAAAAqPCHyo4r/WofZICU1TFbVdPtpL8kpSqv/ijuv3mePacnJr1FR1bSK6q1s+U8rjzvk/m5f0emfSdI1PE9Lzo4z6DNZiE0ehG217VIdrVqY7N81Wbm0+XxZMbe9li34huaMH+TrwjWwuilum/akvoDNTZQAAAAAAAAAAAAAAAAAAAAAAAAAAAAAAAAAAAAAAAAAAAAAAAAAAAAAAAAAAAAAAAAAAAAAAAAAAAAAAAAAAAAAAAAAAAAAAAAAAAAAAAAAAAAAAAAAAAAAAAAAAAAAAAAAAAAAAAAAAAAA1qfzcvUwKl7mPyPp/29T7RRZ722jd2lS3qLzaiwZ42yjgoadUu9Njaa1SjWcfNbjNpVEuksLpnwNcpvY1noNBWtC1ts0aFKsqsoZcubGdsv2GZt9PPHXU062qeUKVBNXSxWznz1jG/s2NeG6VLKnCULinbxnXo03Clu1hPGVnw2Q3Txpo9nVtqNSpc4dzXm6lRrou5JepJL2FRId5lWSgAAAAAAAAAAAAAAAAAAAAAAAAAAAAAAAAAAAAAAAAAAAAAAAAAAAAAAAABUOEPlRxX+tQ+yQEzq9GvGVve21GVWpbSy4R6yi9nj046DjMTk87/AEZapWoXFW6vqDptThCEopRlhrO8Xvhte0tanjeGn3L1rymrUbt6dBU6azu5Nvmb/cZjDW20VWuoVb+N5e1J1N5wnOLjPCwtlFdO7crWs6VQr1b+41C4pSpdpinTpyWGoxzu14vL+hBEwFAAAAAAAAAAAAAAAAAAAAAAAAAAAAAAAAAAAAAAAAAAAAAAAAAAAAAAAAAAAAAAAAAAAAAAAAAAAAAAAAAAAAAAAAAAAAAAAAAAAAAAAAAAAAAAAAAAAAAAAAAAAAAAAAAAAAAAAAAAAAANan83L1MCp+5h8j6f9vU+0C3AAAAAAAAAAAAAAAAAAAAAAAAAAAAAAAAAAAAAAAAAAAAAAAAAAAAAAAAAAAAAAAAAAFR4Q+VPFX61D7JAW4AAAAAAAAAAAAAAAAAAAAAAAAAAAAAAAAAAAAAAAAAAAAAAAAAAAAAAAAAAAAAAAAAAAAAAAAAAAAAAAAAAAAAAAAAAAAAAAAAAAAAAAAAAAAAAAAAAAAAAAAAAAAAAAAAAAAAAAAAAAAAAAAAAADWp/Ny9TAqfuYfI+n/b1PtAtwAAAAAAAAAAAAAAAAAAAAAAAAAAAAAAAAAAAAAAAAAAAAAAAAAAAAAAAAAAAAAAAAABUeEPlTxV+tQ+yQFuAAAAAAAAAAAAAAAAAAAAAAAAAAAAAAAAAAAAAAAAAAAAAAAAAAAAAAAAAAAAAAAAAAAAAAAAAAAAAAAAAAAAAAAAAAAAAAAAAAAAAAAAAAAAAGADbARb7wMkAAUAAAAAM7QKBQAACAAKAAAAAAAAAAAAAAAAABrU/m5epgVP3MPkfT/t6n2gW4AAAAAAAAAAAAAAAAAAAAAAAAAAAAAAAAAAAAAAAAAAAAAAAAAAAAAAAAAAAAAAAAAAqPCHyp4q/WofZIC3AAAAAAAAAAAAAAAAAAAAAAAAAAAAAAAAAAAAAAAAAAAAAAAAAAAAAAAAAAAAAAAAAAAAAAAAAAAAAAAAAAAAAAAAAAAAAAAAAAAAAAAAAAAAADj1S/p6bY1rytCc6dJZkoLMuuNifR5R1e3mrJxjN+WJ8mEvNwsvJrBx3PElO2r3dKpYXb8lUXOS5MPmeI487O5Po67LVK13U5aml3dtHGeetyY9XmyYwSRBq5YeMFDnWAMdospZ69AMqee4DHPnu/EmjPM/AuA547ugGOfwTyEHPwX0hqRjtNugStZV1Dmc8RhFZcm8L/2EVmVeEYc8pRUOvM3tgthjSd5Qp8jqVqcVP4rlJLm9XiZR68+Hh4GAp+K28QMqeehRsAAAAAAAAAAAAADWp/Ny9TAqfuYfI+n/AG9T7QLcAAAAAAAAAAAAAAAAAAAAAAAAAAAAAAAAAAAAAAAAAAAAAAAAAAAAAAAAAAAAAAAAAAVHhD5U8VfrUPskBbgAAAAAAAAAAAAAAAAAAAAAAAAAAAAAAAAAAAAAAAAAAAAAAAAAAAAAAAAAAAAAAAAAAAAAAAAAAAAAAAAAAAAAAAAAAAAAAAAAAAAAAAAAAAABC8VRfvFdPP8AVe/d5yJnYiZU6ttxLptt2b7CUp1abSeI5huvpy/ab2Dk1i6tq97rNChcR7R06EUo7tNTWfo2Mz3RZNNsK9u+0rardXUXFLkqRppJ467RRq0S5ijSSzsBUrbVL6FHWXc3Em1K48mk4xXJ2fNhdN+mdyiRlqtSjb2VClQldXdzT51FTUMpYy8426r6RBo+IXOjau2s6lWtcVZ0nSUknTnHKabx0yupaa0+EVWMJSqabOFOjU7Ku+0X5J5S2287ruZxccek61VtbdOvbVHbVLqdNXDnnDc2ls92vabwxKU9bq1K1x/oMo2trUnCtXlNJYjndLG/QlMZstaqV7mjTubR0I3CcqM+0UudLxWNtmhJrNdd5YWt/TULhVJRi8pRqyg0/XFrPtMy7calQvDlja2+krUKvbyr0+duU6830fg3j9xeX9fUs1G3fEsrvTK8ZV7KpC7t6ijCjl1KS5W1zb4fh0RePXqy69tS1mnGnCwnVsqdOjRhUnG5cs1X3KOGvB9c9wti3pvTq1b3XrS4cLR2qtI1lTnScnBczzy74zt1x4DjNieuu21rUJKxuK9GgrO/nywjTi+0p7NrmbbT6eBcRrQ1vUKlOlc1qdsrepdeTuEVLnfnNJ5zhbLpgi/m5reWtX0Y1L6NOi7Cncdi4OL7WXncvMnnGMvOMdCM/qLPGSlFSXRrIVkAAAAAAAAAAAANan83L1MCp+5h8j6f9vU+0C3AAAAAAAAAAAAAAAAAAAAAAAAAAAAAAAAAAAAAAAAAAAAAAAAAAAAAAAAAAAAAAAAAAFR4Q+VPFX61D7JAW4AAAAAAAAAAAAAAAAAAAAAAAAAAAAAAAAAAAAAAAAAAAAAAAAAAAAAAAAAAAAAAAAAAAAAAAAAAAAAAAAAAAAAAAAAAAAAAAAAAAAAAAAAAAAAeVXlTbljlSy8vAHz/AIj90W3tqlW00in21SLce3eORf8AD44fjswKw/dF4h/29u349hECb4c90iTrdjruHGcko1qUcKC78r7twPp1KrTrU41KVSM4SWYyi8prxAzLdPwIK1ccO1bnSb22VSnCvVr1KtKph4ipSbSfseGB7VtLv41bK6sqlLyi2pOlKNVtQnF4zullNNLuESsW2h1qNSzqurCVSlWqVqr6JynnKj6m+8pHHWhZzs9Rt/fXT1O6uO1i3XWEuZPdeOwalaaZp9e4pqwV9YVrWlcdvKVvVcptczko4xhI1q6lrbSZRtdQoVpRSvKlSScO5S8fSjNRxaPw/OwuqVR2WmQ7KLSrUIPtJ+DeUsencvG5rNWPDXcm/sMcZ2scNjpkLTTPIW+0g+bmbjjOWX+TtXA+H66s6tm9TqK1dKVKMFSjmEWmkubq8fwNJxbXOlO3qO6ttRVio0owqylCMozS6N56NZf0kWoytr3Dllqjd3q8KlaFBUZLs5TT6vOUmn1LPGZ08dBq6Jf3tta2utO5p2rdS3tZ03Dk2x1fxsJvYtqJz3jhGyo2qrSbp3Hbc3Ksy85yx+8y3+unlPh3NSpSjdSjY1KyrStuRYcubm2l1SzvgOeLDFYikuiDbIAAAAAAAAAAAAa1P5uXqYFT9zD5H0/7ep9oFuAAAAAAAAAAAAAAAAAAAAAAAAAAAAAAAAAAAAAAAAAAAAAAAAAAAAAAAAAAAAAAAAAHsgKjwh8qOKn/AOLh9kgLcAAAAAAAAAAAAAAAAAAAAAAAAAAAAAAAAAAAAAAAAAAAAAAAAAAAAAAAAAAAAAAAAAAAAAAAAAAAAAAAAAAAAAAAAAAAAAAAAAAAAAAAAAAAAAKvx/qVbSuHa1ahlTryVGM08cmV1787Jr2gfDqvVAeYAD7L7merTveHnbVU3Kzkqam3nze5Y7ksAXePREBgaVZKFOU5PEYrLfggKTbx1HjG7r1alzWtNEg3CkqE0pV3F/G5sdMr+BRKLgzh3PnaVSljrvLPt3A4NS4PdvVV5wpXem3VODi4JZhU70t+j367k1Utwxq9TVbGflUI0b23k6VxSi94yX3hE5DGOgRuVWH0Ho8svlf9bHcv4E0UWbu+ONRabnbaDazw09pXE13er/Pqotlro+m2ltCjRsLeFOGcLlTx39WKYj9Y4W0/VaUPybtK1JPs6tviDWV0fivoCY8eD9Qu1O50TVKiqXthJLnx8em15rz3vqBagoAAAAAAAAAAAAADWp/Ny9TAqfuYfI+n/b1PtAtwAAAAAAAAAAAAAAAAAAAAAAAAAAAAAAAAAAAAAAAAAAAAAAAAAAAAAAAAAAAAAAAADWp8R/5yBUuGI9lxPxEqjjGVWvCcN/jRxLdAW8AAAAAAAAAAAAAAAAAAAAAAAAAAAAAAAAAAAAAAAAAAAAAAAAAAAAAAAAAAAAAAAAAAAAAAAAAAAAAAAAAAAAAAAAAAAAAAAAAAAAAAAAAAAAAUf3VLSVbh6nWiqsuyrJtQcnFLD3klt4bvpn0gfHquM7Y33A8wAH1j3Jac6el3tSVJqEqsXGeHiWE848QPokXmKYGQIHja4lbcK3jpzqQnUioRnDPmtvq2ui9IHVoNtC00axoQhTgo0Y5VPHK3jLaa2eXvnvAk8LGMLADC8EBUdOXZe6bqlCl5lKdlCrKEdoufNHzmvHd7gW5AZAPoBC8R169Dh6/nbRm6saM2nCSTht8bPo6+PgA4Pt6FDhewVB05xlTU3OMWueT6y33z6wJrC8AMYXgBULhJe6vZpLb3tl/ikBcAAAAAAAAAAAAAAANan83L1MCp+5h8j6f9vU+0C3AAAAAAAAAAAAAAAAAAAAAAAAAAAAAAAAAAAAAAAAAAAAAAAAAAAAAAAAAAAAAAA86jaedwOPUtWstMt3XvrqFGGG1l7yx1wur69wFTescQ8VOrT4fjGz07MoK8qZUp7dy6rfvXQDafuf2lvb0aml3NWjqlJqcbmU3iUu/K7s57gN6PFepaFdws+L6EacJpuneUlzRqbvql09X0gW2heW11SVW2uKdanJ4U4TTW3pQHRB5T3yBsAAAAAAAAAAAAAAAAAAAAAAAAAAAAAAAAAAAAAAAAAAAAAAAAAAAAAAAAAAAAAAAAAAAAAAAAAAAAAAAAAAAAAAAAAAAAAAAAAAAAAAAAABx6laUr+yr2laClTqx5ZZ6AfDdf4X1DRK0lc0nKjz8tOsvizXVP0PfoBCun4ZA7dO0a51FTnQj+RpJOrWltCmvFv0AfdNC06jpWk29nbuNSMI7zisKo31l7QJaPxUBkCN4jsXqegXllGfJKtTaUsZ369PYBHcHalG+0SjRqRjTuLNKhWo82XTlDzd/XjPtAnlVy34LqAq11Spuc2klu23hJAVThxvVOKNT4gpf9mlFWlGS3jUUWm557unTHeBboPOQNgAHJe21K7sq1rXz2daEoT5Xh8rWH+4CtcH6tTtKFTQL+tTp3lhJwjHop087NN9eoFtc3u0un7wPG4u6VrCVS4qwp04ptuTwBVuHZe/3FF1xD/wDpqEfJbV45XKPWTa9b2eQLkAAAAAAAAAAAAAABrU/m5epgVP3MPkfT/t6n2gW4AAAAAAAAAAAAAAAAAAAAAAAAAAAAAAAAAAAAAAAAAAAAAAAAAAAAAAAAAAAAAPGVbl53LlUY98nhL1sCq6txj/pc7DQrGpqF7HMJSjtCDxl79+PDb1gaaPwfO5rx1Hie5d/dOCUaUl5lHfOPT3eHtAuEKNOnHlpwUV3KKxgDPZxecrqB5XdlbXtCVC7owq05pxcZLOzApl/w9qmg3c7/AIXrSlQdRSnp0ukl0eH7dkBJ6FxhZ6jPyW5pVLG8im5Uq2y2eHyy7+nh3gWTnbfgAU8tAbgAAAAAAAAAAAAAAAAAAAAAAAAAAAAAAAAAAAAAAAAAAAAAAAAAAAAAAAAAAAAAAAAAAAAAAAAAAAAAAAAAAAAAAAAAAAAAAAAAAAAAABq45ecgeVe0oXNJ0rmjSrQby41IKSfhlMDmeh6U3l6ZZZ8ewj9wHpDTLOnbTt6drQp0ameeEKajGXrQFf0+rT4a1KWlXE6sNPryXkVSq04wl308v92fAC088U+XpgDaL5lsAksoCpa9wjUldVdW0G5nZ6g0pOnB4p1Wnnden6PEDlnrPF1G4o29bTtKjWrZ7KnK5SlPC3wubcDSto/EnEdeNPXKsdOsacHmnaVObtG+ueufUwLfp2n22n2VO1s6UaVGnHEYL7W+9gdcU11ASeFkDDmgIrXtbs9D0+d3eT6ZUIRfnTl4ICu0NBuOJ9Olea7bRtb2TcrScE1OlHu5vH0Z36ge9HReMoUo04cSWrUEks2yb9ra6gafA3UdTu6MuJtVje2tFNxo0odmpSfe8Yz6+oFutbWjZ29K3t4KnSpLljGK6ID3AAAAAAAAAAAAAAA1qfzcvUwKn7mHyPp/29T7QLcAAAAAAAAAAAAAAAAAAAAAAAAAAAAAAAAAAAAAAAAAAAAAAAAAAAAAAAAAAxKSissDXtY9/rz3AQuvcU6fokezqPtrtyjGFrTac5N9Nu4CvPTde4trqWtOppmnxg+W3pSxOeW/jp+pbP2AW3SdHsdJtFb6dR7Ck3lpNttvxb3A7qcORPxYG5NAoAaShmWcgQ+v8NadrtNK8ptVoRahWg8Shnw8faBW1X4h4TnUp1qFbVtLjKUlW5nKtBYb39Xe2BatF1qw1q3VayuIVGoqU4Jrmhn+su7oBJ8/+6wNgGRehrKfKumX4El0FNPCXXrgoc+3RhcYU89EwzLrcKAAAAAAAAAAAAAAAAAAAAAAAAAAAAAAAAAAAAAAAAAAAAAAAAAAAAAAAAAAAAAAAAAAAAAAAAAAAAAAAAAAAAAAAAAAAAAAAAAAAcGpadS1LT69pcQTjUi10zh90l6U8MCL4fvbmnXq6RqUYRvLSEXzRxy1qbyoyXfnZ5QFhgklhdwGwGJZcXjqBTOJI4484ZXprY39CAuHLJbJd3jhAbxWFjwAyBiazHCAidc1m10OwldXUv8AggvjVJdySAr+haNea1fR1/iOGKnxrW0e6pR7m1494Fz5dsY2A2gmk8+IGwAAAAAAAAAAAAAAAABrU/m5epgVP3MPkfT/ALep9oFuAAAAAAAAAAAAAAAAAAAAAAAAAAAAAAAAAAAAAAAAAAAAAAAAAAAAAAABjK8QGV4gcmp39pYWcrm8rwo0YPeUn/DvAp1fX9W4lqOy4Xg6FDkl2l5Xhyp7tLlxnw2f7kBLaJwjpWjuFfs/KLqOM16u8k8Y28ALC0mlt03wBvGSjFJsDPPHGckGeZeIwMrxKHNHxAc0fEDWbWeq9QGjjGS87DT23QFV1bgy3nUd9oclY38JKUHGTUJNZ649fUDwseMKun3MrDiqi7atCbSuIw/JTXVen1fvwBc6VelWpRq0qkZwksqS3TQG3Ms9ScvFRWv6lPTrWNWFpUuE5xTcWlGOZJZl3437kxwHTc3dva0ac7mqoRqyUFlZzJ9w+pXBDVpT4grabUpJU4Qi41c/Hm1nlx3bZ39BWs6dmkXr1CxjcOmqWZNcuc9G1/AOc9SK6BoAAAAAAAAAAAAAAAAAAAAAAAAAAAAAAAAAAAAAAAAAAAAAAAAAAAAAAAAAAAAAAAAAAAAAAAAAAAAAAAAAAAAAAAAAAAAAAAAAAAAQHEelu7h5ZYqVPU7bzqFWDUW/9152afpA7dD1ahq1rKrSjKnVpy5K1Gfx6U++LAkgAFN4m+X3DHrrfYgLkAAAcmqX1tpthVu7yqqdGmsybePZ6wKjodrLibWZcQ6jaTja0sRsaU22n1zNrx6ej6ALml4f+7A9Y/FWAMgAAAAAAAAAAAAAAAAADWp/Ny9TAqfuYfI+n/b1PtAtwAAAAAAAAAAAAAAAAAAAAAAAAAAAAAAAAAAAAAAAAAAAAAAAAAAAAAAAPKpl83X2dwFY4r4rfD1PEbCtWnLKjOUWoZxn43f6UgI7R+Gq+tdjquv6pK/UuWcKFJrsts9cdevVYAutKjCjBU6NONOC2jGCSS9iA8L+vK2s3OMFOcpKMc9Mt4WfQsgRdKF9T4htvLZUZTnRmlKjKcYtLGE4uT33e/p9BodFm7n37u6Fx2L81ShKnzJ8uejTbWfSkYoj73WtVt72cPJqdOjGajCU6E+V+lzzy/uEHWrrWaup3VtQ8ghCjJYnOEnmLSaWObrv16Gh6PVLm5VGjZxowuakZNuqnKMeVpNYTWeq3A8bnUdRo2dfs4W0rq2moz2ajNNJ7b+a98b5INK2ralp6rK+oUK04QUoO3jLfLUccrbeza+gDbTdT1K4qyo3NpOLcW41fJp0oxx0T5m85CNLXUdX5KNxdwtFbzqqk404SUl3ZWW9s9wFhzsBzXtla31CVvd29OrSllcs1nGe9Pu9gVRdTsNQ4JpK90zVXUsVOKlaXDzlb+bF93oS3AtXD2tR1yzjdQtbm3TW3aR817tbS6N7EviscTSqvSXRo2lzWnUlHajTcltJN58NkxwHrWuXOytqkdOrVVKcY8k4YlT3+M01tgfWeXjkuNPr3Go6nOEZQbjSlQnjZyis7P2YfrK6Tx08MUri30ShTuqU6VXmk5Qmt+rDlfU4ui2wGgAAAAAAAAAAAAAAAAAAAAAAAAAAAAAAAAAAAAAAAAAAAAAAAAAAAAAAAAAAAAAAAAAAAAAAAAAAAAAAAAAAAAAAAAAAAAAAAAAAAB5z679Fu/SBXNYp3mkXlbW9PbqwaXlltKXxopfHjnZNJe3AE/aV6d1Sp3FGalCpHKaaa/cB0AU3ib5fcMeut9iAuQADk1O+t9Ps5XN3VjSowWZSf2esClWdvd8aXsNS1SlOjpNJ81tav/4vhKQF5pKNOEYRWyWOmEvBAe4AAAAAAAAAAAAAAAAAAAANan83L1MCp+5h8j6f9vU+0C3BGCodxlqAGUUAAAAAAAAVgUZJCgAoAAAAAAAAAAAAAAAAAAAAAAAAAAAAAAAAAAAAAAHhd0KVzSlRuKcZ0prlnGXSS70wKbdcK3+izd9wtd1U1JOVlOfm1Us979ffsgOrTONbarcKz1i3qabeZ5cVU+STy15r8PS8ICyXFCnc0JUqqzGXVfZ9D39gEfHQqFO6pXPb3k6tLOJzruTw+scvqtugGI6BRo3SuYXmoSqJrPNcyfMl457gMx0G1jKLjVunTUubsXXbh/d6Acq0i8uNarXNxUhSpVWvOt6841MJYSe2H03WQJOrpdtVo06UFUoulHlhOjNwkl3pNdwHjU0a2qWsraVW4jzyU5VFVanKS2Tb6vol7CBV0ehVuu3rVK1TNPs5QlVbi4+p+lJ58UB62mk0rbmSur2eVjE68pJL0ZKPH3hto2sLfyi8dOnUVRZrybz93oAkK1Wnb0JVK1RU6dNZlKb2S8QKfecW19UuI2HCdGVWpKaUrupBqlBYy+vf/lAe2m8F01cwv9euqmoXkcPMpNwi1nCS71v3+AFxgsQQGwAAAAAAAAAAAAAAAAAAAAAAAAAAAAAAAAAAAAAAAAAAAAAAAAAAAAAAAAAAAAAAAAAAAAAAAAAAAAAAAAAAAAAAAAAAAAAAAAAAAAAAxJ4i2gKVc65xNdcSahpujUrCVOzcN6ykn5yT6533yB69t7oP5tov96X3gY7X3QPzbRf70vvA1lPj1pqpa6K4yWGm5PK+kDi0rT+N9K7aFlR0tUqs+dUpTk4U/wDh719LAkO290H820X+9L7wI2+0zjS+1ix1KrQ0xVrJydJKbUfOWHlASXbe6D3W+jf3pfeBh1+P0syt9HXqlL7wInV9F4y1q6tquoUrCpToPKoRqtU5Pxa677d/cBKQlx9CChC00VRWySckl+8DbtfdAXW20Xb/AHpfeBx6vrfGukWE767oaUqMWl5ilJtt4WFkC9W8nO3pzl1lFNgegAAAAAAAAAAAAAAAAAA1qfzcvUwKn7mHyPp/29T7QLXVbUHhterqBoq0WlLnjyt4TT2C4zz5XX1vuQSNY14SjzRmuXPUFbRnlKSkmn0CRpK5pxnyOrBSzjDkgr0hKTkm3swPQAAA0nLAGsZvPK3l4yCnO8LzuvQlIjq+u2tvd+TVVV59knybNvuXp+4shUkp7Nv1v0GZ6OalfQrX1e0hzc9BR5/N23WdmbwdcW31INgAAAAAAAAAAAAAAAAAAAAAAAAAAAAAAAAAAAABpPqgMYQEfrOi2Gs2VS3vKKfMsKoliUfBpgVF2mv8JVlVtKlbVtM85yt5bzpLrnm9nX9wFh0PiSw1yMnbTcKsGuelUXLKLa8O9fcBMJ7Z8F6wN4Jb7Abcq8AHKs9AHKvAgYXgBpPzXs8bFFa1fjPT7Gs7S2jK+vObljRoPo84w5dz9gEVQ4d1fiSau+JbytQt5OTjY0vN5FthN+zowLla2lvZ0FRtqFOlBJJRgsLC2W/iB14WOgGQAAAAAAAAAAAAAAAAAAAAAAAAAAAAAAAAAAAAAAAAAAAAAAAAAAAAAAAAAAAAAAAAAAAAAAAAAAAAAAAAAAAAAAAAAAAAAAAAAAAAAAANZWAKZw6v/wDInEy/3aP+FAXMABiUUwMRgo9ANmsrAGvIvXjo2BsBhxzLIGrgs5ws+OAM4w+ufWTRnJYKl7pi5eC7qSb2qU8f3kBZ7WTVrR225F3+gDxhqdvO+nZxk3WprM8RbjHvSz0zjuCX16Wt/a3kZO1uaFbl+N2dRSx68dC4t6e7m8ZSySpK5brUaFm6KuHKPayUYtQbWfS109oakdXNnoGdbLdBQAAAAAAAAAAAedWaUZL0AVX3MduEYLwr1PtAtF5/2Wr/AMD+wLHz+2lG04XsbTdQrSoVabfTPPFyS9PVhq9S1bb+N0oqpRqwVsqM1WhKOZSeNt+7v+kt6Z/jn6iq6VGta6TT0OnlRv6cJ0Wv6MZY7Tdd/wAZids8uWXE3w7Tu1w/p0bKtTgqc8VZSjnnhvsvTnG/oJzucsazEdWtlca7rEfeSnfVHUilVm4Jw/Jxxu3n07GpEWvTKNWhaUaVxUdSpCCUp5b5njx7zI7gAADSp+8Cr63G7d/VqqN3VtKdNPFrddk6T/pOSyubO2OvRgk1GO61HUKty7Wne1Fb04KhKNzGlFZgnzTi5Lmy3u3kSJbjZzuZWV7qFe9uO3t7xRpxhWfIlzpYwnh9Tcizt3a2619qatrOpVpVaNBVZylc1KUMNvGFF7vKe/qOPG9hwbc1by4r3Nw+etOjRc5ro3ybs7XwWunnBgbgAAAAAAAAAAAAAAAAAAAAAAAAAAAAAAAAAAAAAAA1lYA07NPrnbo/ACua5whY6pdeXUZ1LS/jhq4ovEsrO/r9PUCHpa5rXC9SFvxJCpe2qjBQvKMcqn0T533+3dgW/TNStNTtI3djUjUpVOksY+nw9TA7Yybe6X0gbAa8+e4mCL1ziHT9CoqpqFZQc21Tgt5SaWei+0YKv2vEPF1aVSjOro+lqUUsrlrT7213rr6mUWXh/h7T9EtY0rSmnUUeWVdpc1T1vw9HQCX5FjDAcixv9gGwAAAAAAAAAAAAAAAAAAAAAAAAAAAAAAAAAAAAAAAAAAAAAAAAAAAAAAAAAAAAAAAAAAAAAAAAAAAAAAAAAAAAAAAAAAAAAAAAAAAAAAAAAFN4d/7xeJv+Gj/hQFyA8a9zSt4SnWlyxj8Z+AHLR1vTa9OVSldRlGKcn5rTwuu2AN7LVrC/hOdpcKoqfxmk1j6QPGjxBpVe6VtRu1Ks3hR5ZdfoA0qcS6NSqzpzvYqcHiS5ZbP6AOmOrWEq/YxuIuo6facuHnl8SDmfEujKkqrvoqDk455ZdfDp6ANfhRonK5K+hyrG/LLv9g0dNjrGn6jWlSs7hVJxjzNcrW3juhiV3BYqfunfIm6/tKf+JFRZKO1nTkllqmvsCqzXUocGalcxlzV6qrSnUWzeG0voSS9gbkdNvGFDiG0hbJQhKxk5qK2+NHca5c729tXqVbjUtOtba8nQpVu07SVJrLSS6Pu7xXThP615W8pXWhahQu5ut2E6sI1JdWot8rb8dkSE8S+m1JVdOt6k85dNZNOf12x+KiNMgAAAAAAAAMcyA1dWKTbysbgVnXeLbKzrxs9Oh7439SXIrelLGM+L9oEVwbrdtolFaJrFvU064WJQdaWVVcnvh429X7wLvOdOvQahNOM1hSjuFiLnoVhW060sp87pW0oSoy5vOXLhrfHoBb06brSqd1cUq86lRSpQlCKUsLEsZyu/oWnC5G9rptC2o21OnHPk0OSnKe8ksY6kjNm3XhDQraNrbW8Z1lC2qdpDE+r32fitycu7rVdNvp9O3ubm4g5OdzNTnl7ZSS2XqSNajrUWnkg2AAANZJt7YAjrzRbC7uFc3NtCdVYWctZx07wscPEEdBtLaV7q0KeaUNllqTXgkmsiM1AU9du7uhWWmcJV69lUquXPKooc7TTy1jZ5SNasLjXac7+2lxRw7OxoyzCncSq83I/B4S2MSdi16TbaZG2hdaTGkqNSnFRlTzvFLb9xrRJQec7+gg3AAAAAAAAAAAAAAAAAAAAAAAAAAAAAAAAAAAAAAAAABq4vuA850eePJNRnF9VJZAqGpcIVrGtUv+G7ydncPmk6Gcwk3jZf1Vt6QN9N42hQrK04ktKum3MUsykswfm5znu9W4FnudTsrWzld3FxTp26SfaN7YfQCn3XEepa9XdlwtDlhh891Wi4pdy5X7Nn+4CS0Xg2hZ3XvhqFzU1G+efylXaKz3qO+4FlVNJYwvYsAZhFx6pdPEDcAAAAAAAAAAAAAAAAAAAAAAAAAAAAAAAAAAAAAAAAAAAAAAAAAAAAAAAAAAAAAAAAAAAAAAAAAAAAAAAAAAAAAAAAAAAAAAAAAAAAAAAAAAAApvDv/eLxN/w0f8KAuQEXrWYK3rSi5UqdaMqmFnEfEDxp6rpVxWdajcUKrpQblXg1KMF35n3fSBwaVxBpVOyp0o3ltUqzqNKnGtHPrwB6WmrabW4luIUb+2nKdOMIpVU+aWd1jPUCMnqFlT166q1tbtqVKnVXPbucEqqxJPPe36AOy7r2lxrFsrO6oRuY28Z28W0s7tqOOuMYMjexuLV8O3l7d8lDFWs1Kts4N5WMv14A5bu906pwpTrQvLaMny0nWUotxfXGfRnOPSFSnD15Z1ajt4apR1G6jzzdWDjJ8rl346eroajNTxKsVP3Td+CrpLd9pT/xIqLLbb2tFdfMX2BUbZWla3rXFrVpqpY1JOdOWV5uesWu/fL9pUtulLRbe0tLiFmpxq1qbpqpUqSqOKxtjLePUjK8pr0stLt6FCyg4flLWDUGm0sv4zwuuS/ElsmPK9sakbWpa2FLEbqq3Wm5/FTeZPD9uyDUSlGnGjShSinyxior2FY+vaLyskaZAAAAAAAbS6gaya5fQBE61r+maNTUtQuYQk8Yh1m98ZUerSArCrcScX0H5Ly6ZpNZNRnj8pVjle1bZ3WwFk0ThzTNFo4srVKp1dSXnSbxjq+i26LYDp1PR7LVrfstQtYVljGcYce/Z9V07gKp728R8KKpPSJxv9Mg5TVrUzzU1t0fV9+yAm9D4o0rXHCNrWjGu0vyM3iecZeM/GS8UBYM7FSjaXV4M1WU89BBkoAAADK8egGMrGcrAHnXqQp0J1JNckIuUts7IClaFpNtxNe1uIdUoqtTlVxZ03NuHJF4zyvxaeU9gLpyuMcJPG3dnAHldWlK7pdjcUKdWm/6E4prPjgCraLRhw1xTU0OLl5HfRdazUpOXLJfGj6FjPXrgC5QTWcoDYAAAAAAAAAAAAAAAAAAAAAAAAAAAAAAAAAAAAAAAAAAABrNN9yfoYHDqOnW2pW0re9t4VoNNJTjusrufc/SgKDw7wvRv9Z1Gwvby7r2elXEI0redR8jW/VejHcB9Go21K3pKjbUYU6S6QglGK9nQDoWyWXkAAAAAAAAAAAAAAAAAAAAAAAAAAAAAAAAAAAAAAAAAAAAAAAAAAAAAAAAAAAAAAAAAAAAAAAAAAAAAAAAAAAAAAAAAAAAAAAAAAAAAAAAAAAAAAAFN4d/7xeJv+Gj/hQFyA0kubOd0B59lBJrs4pPqo94GPJ6WMqnBNd6ikAVGkulOCl6I/xAz2FF7ujBv/hQG3ZwT53GKa2yl09QGsoQeYuKkv6r7wHk9Llcezik305Vj14AzSpU4SzCnGD9CSA9gKj7pTxwbcd35Sn7fOQHlR4Y1t0abXFt6k4LZU1tt6wM+S8dUE4Ub3SqkIvEZVIy5pJd726sDWWv8WNb8Kyfc8XS+4DePHVpDzK2kapCotppW6aT7987oDtpcYcPVakKcdVpOcmksRklv0W6AlvfGx7r223zsqsQOulns1nr37AbgAAAAAA5r+8trGg613WhSpxy8yeOm/tAp9xxLqmtXM7bhS2hOlCSjK+q5UI5TzhY9W/X0Aduj8IUre5eoaxXlqN+3GXaVVlQaS2X3/uAs0YqKSjFJeGP3AesPirr7QMga1N44Armt8KWOpyjcUv9DvoSUoXNKHnbejwAh6Wu6zw1cRt+Jacru0cPMu6EeZrD/pZx4r8QLZYapZapSVXTrmnXg98xeO/w6gd9P4i7/ZgDYAAAAec3iTbaSXewOCvq2n0aMqk721UYRzL8qnsl3YAiLvifSL+zrWun6pSdxWpSVPzJSzs29ml3AenAM6c+EdPlRpOnDElyuXNh8zy8+nqBZgAFP1z/ALyuHf7Gt/hYFwQAAAAAAAAAAAAAAAAAAAAAAAAAAAAAAAAAAAAAAAAAAAAAAAVHhD5U8VfrUPskBbgAAAAAAAAAAAAAAAAAAAAAAAAAAAAAAAAAAAAAAAAAAAAAAAAAAAAAAAAAAAAAAAAAAAAAAAAAAAAAAAAAAAAAAAAAAAAAAAAAAAAAAAAAAAAAAAYk8RbAoem6lY6Zx/xDU1C7pWyqqkoupJRUsRWcZAsnwr4e/TNl9cgHwr4e/TNl9cgHwr4d/TNl9cgHwr4d/TNj9cgHwr4d/TNl9cgHwr4d/TNj9cgHwr4e/TNl9cgHwr4d/TNj9cgHwr4d/TNl9cgHwr4e/TNl9cgHws4e/TNl9cgKzx7rmlX/AAvcW9pqNvWrSnCXJTqKTaUk+noQF5tEvJKLx/Qj9gHsAwBrNeY1hdO8CNq6NpVanKMtPteWUWnijFZT9ONgIqXA/DaXm6alttKNSfm+nqByrgidNKrbcQavGtDzqbqVU4qXdlY3WeqAytO4ztPy8dcoXsoPKoVKChGp6Mrp4+wDdajxrSXbXGkWFSlT3nChUbnJeEd+oD4Y3NBc+o8O6jZ20Pj15LmUF49PHC9oHZo/GGk6zfKzsp1pVmnPE6TisICbcnnEp4b6Z2ArGscaWtvV8h0eSv8AUJtRpwhvBSe27Xhjp6QOahwtqGs3ivOLK6r0483Z2VN4hDLeN1u/tAt1lb0LWCpW1GFGmv6MIpJvxfpA6sLwAYXgAAAAGANKlKnVpyp1acJwksOMopp+wCnapwjOheO/4VuFp95iXPFbwq5y8YeUvDwQGbDjJ2t3LTuJoRsLyD2nFPs5xx1y+nTr3gWuhUVWnGpTmpQmuaMovOU/ACF1fX7/AE++dC30G9vaain21H4n2dwHA9T4yukq1po9lSoy+JC5qtVEv97DQGHpfGVd9tPiChbOp5zowoKUaef6Kfel4gYXA8Zb1tc1Wcm8zSr4UvFdOn3gd1Dgvh2lVhUjpcFOElJZnOWGnt1eGgJVaZYU3z07G2hJf0uxitgKnRvpcFardWt5RqvS7uo6tCsvO7OTW8MLZLPRIC5W93QuLenVoVYzpVI80JqWVJesDh1vX7DRLZVtQrOCm+WCh50pP0ICH4XhcatqNxxJqFvKj20Ozs6b35af9ZZ6N+K6gW2l0abzgDcAAAAAAAAAAAAAAAAAAAAAAAAAAAAAAAAAAAAAAAAAAAAAAVHhD5U8VfrUPskBbgAAAAAAAAAAAAAAAAAAAAAAAAAAAAAAAAAAAAAAAAAAAAAAAAAAAAAAAAAAAAAAAAAAAAAAAAAAAAAAAAAAAAAAAAAAAAAAAAAAAAAAAAAAAAAAAGsoCMuuHdGu7idxc6ZbVa095TlTTcu7dgePwU4e/Q1l9UgHwU4e/Q1l9UgHwU4e/Q1l9UgHwU4e/Q1l9UgHwU4e/Q1l9UgHwU4e/Q1l9UgHwU4e/Q1l9UgHwU4e/Q1l9UgHwU4e/Q1l9UgHwU4e/Q1l9UgHwU4e/Q1l9UgM/BTh/v0ezfo7JAS8YqEVGKwksIDIAA90BjlQGOSP9VAZ5I+ADlTAOKfUDEop9d9ujAi9Z1Wz0Sznc3cJyWG1GFNybwvFLC9uAKlbV9a41lVqWl4tO0lTceWD/KzWGsPHj3p7AW7Q9C0/SLWMLO3jCfKozqY8+eO9v2sCSklHGI58QISOvSd5O1Wm3krinJc0VyYUX0lnmxj0Zz6ANtQ4jo2Vz5OqXazWOfFWnDkzvupSTe3hkDF7xNa20aMqcHXVaPPHlnCC5fHMmk/YBtW4io0dNo3k6U066fJSlKEZbNpvLaX7wPSz1yF5Y1bijQlOpS+NQjOEpLw3UuX94Hnaa/K8i50NNvHBRb5pKMfOX9HrnPp6ekg8/hJPyKncLSrxudXslTUqfMn0384DZ8R04akrKvbzpOTwqjqU2s+HKpc37gtTXLF7tdVuVlx6lptnqVu7e8tqden1UZxzh9Mr07hVMu7DWeDbed1puoRu9MotOVrcSw4rmbajnbv8c+gCzcO8R2fEFLtbWnXhLfMakGlhPHXp7M5AmuRenIDs45z/AJYDkWMYAOEWsAOSPht4Aedxa0LmjOjcUo1Kc04yjJZUk+5gVmXud8PSbfZ3Kb8K7A6dN4J0PTLyF1b0asqlPePaVHJJ+OH3gWHkjjCWEBslgAAAAAAAAAAAAAAAAAAAAAAAAAAAAAAAAAAAAAAAAAAAAAAAKjwh8qeKv1qH2SAtwAAAAAAAAAAAAAAAAAAAAAAAAAAAAAAAAAAAAAAAAAAAAAAAAAAAAAAAAAAAAAAAAAAAAAAAAAAAAAAAAAAAAAAAAAAAAAAAAAAAAAAAAAAAAAAAAAAAAAAAAAAAAAAAAAAAAAAAAAAAPKVCM4OFRKcWsOMllMCoaxwnWo3r1Thiu7W8VRTdFyxSqd0sru6/+wHppnGTo3fvfxHae9901zKpJ4p1N2ts9OniwLYqkaizTaks42YELbWGs09RqV531nKlVa5oxtpJ4WcYfN6QNr3Q6lS9nc2krNOtjtFc2/adFjK3WOgGLrRr6qoqlXseVQUezq2vNGPi4rKxkDNXh/On21GnUpOvbczhKrT54PPVOOentA9qOn31KwrU41bCFxP4sqds4w9OY82Xt6SUZ0ex1GzgqV5dW1anFYj2VGUH1zu3J+IGVo8Vqbu3VbppZhTx8Wb6y9u/0gRPwcu1mMLq05Yz54Tdu3Ue/SUubf2YC1ZXUUI5m+i3fcVlW9c4strWurPTKb1DUJNx7GjL4jS7/u9YVG2fDWo67d+XcWVsRTh2dnQk1BJb4kv8v0gXKjSo20FGjCFOCfxYpRWfUB7Kee5gOfwQGebfpsBlPPcBkAAAAAAAAAAAAAAAAAAAAAAAAAAAAAAAAAAAAAAAAAAAAAAAAAAAAAVHhD5U8VfrUPskBbgAAAAAAAAAAAAAAAAAAAAAAAAAAAAAAAAAAAAAAAAAAAAAAAAAAAAAAAAAAAAAAAAAAAAAAAAAAAAAAAAAAAAAAAAAAAAAAAAAAAAAAAAAAAAAAAAAAAAAAAAAAAAAAAAAAAAAAAAAAAAPNwlzZT7/ABA4NV0Sy1e17DULaFdb8rkvOjnq0+qeyAqlTT9a4Nl2umJ32kdqnK0gnKpBPry9/V93tAsHDvEmn67Hltako14LM6NSPLKP3+nAE7zR23W4DmQGU8oAAbSWWQa8yktn1QEVrWtWGiW6r6hXjTUnyxSy5S9SRSqs6+ucZ9rSto1NL0mUYxm6scVKqaTePWn6mgiz6Lw3pei08WFrCE906klmbXhzPfGy2CpVweOm72yngCB1fh281C+lcUNd1Czg4qKpUZ4jt39QOFaPxha/krPXLarQp7Q8opc1SS67vHjkDWet8TWsO21Hh7NtH46tqylUTeyxFPdZx7AM0+ObSE/+k9M1Cwo4x2teg+VPuWy6vf6AJbTuKdCvqc5UdRoQ5ZYarS7Nv0rmxkCXpXFGvTjUo1Y1ISWYyi8p+pgbOpFNJvd92AHPHxAc8c4yBnmT6MDOQAAAAAAAAAAAAAAAAAAAAAAAAAAAAAAAAAAAAAAAAAAAAAAAqPCHyp4q/WofZIC3AAAAAAAAAAAAAAAAAAAAAAAAAAAAAAAAAAAAAAAAAAAAAAAAAAAAAAAAAAAAAAAAAAAAAAAAAAAAAAAAAAAAAAAAAAAAAAAAAAAAAAAAAAAAAAAAAAAAAAAAAAAAAAAAAAAAAAAAAAAAAAAGs1nHXbwAreu8JWeqy8pozqWV5FYhVo7Lr3rvx7OoEVaa9qnDlxGy4npyq20qrjDUl0afTmX2/wAQLdZ3ltfUI1rSvCrTksqUHlNP7AOuHxVnAGwHnXq06NJzqzjCK6tvAFN1Liu51KrU0/hWg7qq4rmuovzKWds/Q+vd4MDp0jg6lRvFqGrXNXUL7LlzT+Im8dF4rAFnpxUFyxjhLZY8APWPQDIAAB5dO/Z+gDzq0YVElUgpR/qtJoCPvuHNH1CaneadQqSisRfL07+7AEVV4E0mdScqdW+oQe6hTr8sY+hLHQDT4PcSWi7Sz4iqVVS/mrerTXK0vixcvVhZA1jecZ2T7W+0yzvqb82MLSbjOL65ec7bY9oGfhdc2eHrWgXtlGX804fleZ967sAdlDjTQalFVKt67WWf5u4i4y9q9IE3Qv7SpFSjc0eVpY89bgdeQADIABkAAAAAAAAAAAAAAAAAAAAAAAAAAAAAAAAAAAAAAAAAFR4Q+VPFX61D7JAW4AAAAAAAAAAAAAAAAAAAAAAAAAAAAAAAAAAAAAAAAAAAAAAAAAAAAAAAAAAAAAAAAAAAAAAAAAAAAAAAAAAAAAAAAAAAAAAAAAAAAAAAAAAAAAAAAAAAAAAAAAAAAAAAAAAAAAAAAAAAAAAAAYl8Vgc13bULqk6VxRp1oNpuE480c52ygKhccKX2jXcr3hK4jQ50lUtZvmjUeV0z079/oA7NE4woXt49M1Sl5FqkZuDovKjLww/85A6eIuKbLRYO3blXv5xXZUKabbbaSzjp19oERHQda4kqU63E1SNGwhPnVlSeM7Lq1v8AS8oC2adp1nptCNCyt4UYRSTUI7vuTk+rfpYHeAAAAAAAAAAAAAABwXemafc3PbXNja1ajSTlUpRk2vagIKfAPDspuorGUJvLXLWmsP0b4A8Fwjqdl/pGm8SX0rmO0fKpdpD05i+uwG6XGthjllY6qp+hUlTx6sZz/ADWXEevWWaeqcOV61SXnRdl58ceDe+/8APSHH2iKUaN5Kva3OVGdGrSeYSfc9tgJihruk16sKFHUrOpUlJRjGNaLcm+5LIElSacnh5x13A9AAAAAAAAAAAAAAAAAAAAAAAAAAAAAAAAAAAAAAABUeEPlTxV+tQ+yQFuAAAAAAAAAAAAAAAAAAAAAAAAAAAAAAAAAAAAAAAAAAAAAAAAAAAAAAAAAAAAAAAAAAAAAAAAAAAAAAAAAAAAAAAAAAAAAAAAAAAAAAAAAAAAAAAAAAAAAAAAAAAAAAAAAAAAAAAAAAAAAAAAADGF4AMLwAiNd0HTtapRpXtNpxlzQqQ82UX6wPDh3hbT9F5qtOMq9zOKU61XdvHgu7cCe5Y5zgAkksJAZAAAAAAAAAAAAAAAxhPu6gOVYxgA4p9wDlWc4AOKfVekDyqWltUjKNShTkppqWYrdMCDueDeH6lOVOnplGk5Rxz01yyXpT7mBw/AunaefourX1jWe0583aZj4Y278Aaux4ysPyVjq9reUn5zqXsGpp962zt0+kA9Y4xs32FXQqN9Jb+UUK/JGWemzWdgPWnx5Y88adzZX9tvidSpRxTh4tsDvteK9EvLhULbU6MptZSeVnCz3pICVo3dGvnsK9Oql15ZJ4+gD0jUy2uZvHXKAypPZNyA9AAAAAAAAAAAAAAAABhKxuCBm+qGqMieAQCgAAAAAACo8IfKjiv9ah9kgLPUrKnCVSo+WMU3Jt4SwLR4U9Qt520Lh3EIU59HJ8qf04JCumNTmXPF5j3Y7y1lrKcsYT6vbcNPO2vaNxWqUqdRSnSeJxw8r6Sq6yIAAAAAAAAAAAAAAAAAAAAAAAAAAAAAAAAAAAAAAAAAAAAAAAAAAAAAAAAAAAAAAAAAAAAAAAAAAAAAAAAAAAAAAAAAAAAAAAAAAAAAAAAAAAAAAAAAAAAAAAAAAAAAAAAAAAAAAAAAAAAAYcU+oCMVHOO95AyAAAAAAAAAAAAAAAAAAAAAAAAYaT6gY5F3tgY7NZb8QCppdANZ29OrTnTqxVSE9pRmk014YYEfd8N6LeUHRr6dbuDab5YKD656rDAiLjgTTIuPvZXvNOjvzxtqzxPwznPQDwfD3Etp+R0/iaStofzar0Y1JpdXmWN98gbQuuMrSKjK1sL2nR61oyanWS6vGdm+oG3w2q2/5TVNA1Cxt+nazg5LPcuneB02fHWgXc5RV6qHLHOa67NP1NgTNlqVrf0O2s7mjXgnyuVKXMs+AHR22ei38GBntHjdL27AZU8rPd4gbgAAAAAAAYbwBHz1N++XkVKi5uMeapUzhU0+nr6Aedprlpd3KoU+0XPns5yg1Cpj+rLo/HbuEMSMp4aW3pM30c19eTtbWpXp0XW7Nc0op4fL3v04Xd3m74Pe3uIXFGFWnJOE45TRJ4zvb1yRpkqAUAAAAACo8IfKjiv9ah9kgJXiCPa21C1aUqdxXhTqLucG/ORlY5L+jRuOJra3uacalCNrOUYzSlFyTis4ffhs1xSujhicpaLSc3nlnUjFvwU2Xl6kRE7vUoU7i98vnyUL90Y28accSg6nLu8Z2T7mRUzXSpcQWVeCxKvTlCov62MOL9mX9JTU0QAAAAAAAAAAAAAAAAAAAAAAAAAAAAAAAAAAAAAAAAAAAAAAAAAAAAAAAAAAAAAAAAAAAAAAAAAAAAAAAAAAAAAAAAAAAAAAAAAAAAAAAAAAAAAAAAAAAAAAAAAAAAAAAAAAAAAAAAAAAAAAAAAAAAAAAAAAAAAAAAAAAAAAAAAAAAAAAayjzeAGFDxxjP0gORtbsDEqXN1x9AHLeaRY6hCML60o14QeYxnHKzjGQIa84D0G7rKo6E6KxjkozcI+vC7wPF8H6hBdnb8UajSoR82nTW/LHuXXuWwGjocb2MXXlX069hT3dCEXGdRdOrXXv9gHk+KtYs3z6xw3dU6c/ieTSVVy8crO2wHXb8e6O4t6hC601/0I3VFpz8WsZ6AS9rr+k3dGFWjf27hP4rlUUX9D3QEjzrG2+enpAKabxgBzrPTqAc0uqYGy6AaTTz7CaIHToc9bWMybquth53a8yOEv895VROmuNS34ct6bj5RbyfbwjLzqeKck+Zd2+25fO11IcQ3tne2VFQr5pRvYU6sk3BJ4eVl7YMyamM8P07alqWpwsOVWOYqCptcmeVZ5f4muXhju4dz71Q3zHnkov0ZJPHLO0rnCWSY6xmMk33r1lTG2QGQGQGQGQMN7AVHhB/8AWjin03UMfRICd1e2qXVjig0q8Jc9LPTmXTIo8Z2EdWt6Ne6p3FpXiv6FRRnHPVZi3sQrFXRIuvYRpyjG1tG59n3uXc/tftLSdPapo9pK2rUJxk6dWt28lzf0ubm+jK6AeVvRuLjWXXr0nSt7aLhQUmm5t/Glt3bLHtCYmMhWvOgMp5WQMgAAAAAAAAAAAAAAAAAAAAAAAAAAAAAAAAAAAAAAAAAAAAAAAAAAAAAAAAAAAAAAAAAAAAAAAAAAAAAAAAAAAAAAAAAAAAAAAAAAAAAAAAAAAAAAAAAAAAAAAAAAAAAAAAAAAAAAAAAAAAAAAAAAAAAAAAAAAAAAAAAAAAAAAAAAAAAAAAAAABiXxWB58j6PIHlVs7evJO4t6VXl2XPBSwvaBE3PCGgXNxOvV0uk6k+sk5L9yeAI/wCAlKEee31jVI1o705SrJpNdG1jf0+IGnvXxnYSda31mjqE/i9jXoqEfXlAbe/HFVgnHUOH1d1J7xlYz2ivB5zuA+HFrbfktU029s7nPN2Tg5Zj3PP0/QBMWvFWg3UqNOlqdDtauFGnKWJZfc14gSnbUpSUY1ISb6JSRKOH3vnDVvLKFSMYVI8tam455mukuuz3x7EWDoja29OUpU6MKdScfOnGK5pet94vgja2hUZWFvaUnFQo11VfaR5ufdtp/SXj0rpvLOcrGVtYSpWvPlOSp9E9nhLG+Oj8SUdlrQp2tvSt4fFhHC9IjN9bywtuoWK1eccaNYX1e0rK6dSjNwnyUXJZXpC15fyi6F/Uvv2dhD+UXQv6l9+zsB/KLoX9S+/Z2A/lF0L+pffs7Afyi6F/Uvv2dgYfuiaG00oXuf1dgQGg8XabYa1rd3Xhddne14zpYotvCTznw6gT38oeh7vkvV/9O2gNl7omhY+Lffs7AfyiaF/Uvv2dgYfuiaE1tC+/Z2Bhe6DoUX8W9fqt2Bu/dE0JJtwvkl1fk72AsGnXtLUrGje23M6NaPPByWHj0oDtgmopMDIAAAAAAAAAAAAAAAAAAAAAAAAAAAAAAAAAAAAAAAAAAAAAAAAAAAAAAAAAAAAAAAAAAAAAAAAAAAAAAAAAAAAAAAAAAAAAAAAAAAAAAAAAAAAAAAAAAAAAAAAAAAAAAAAAAAAAAAAAAAAAAAAAAAAAAAAAAAAAAAAAAAAAAAAAAAAAAAAAAAAAAAAAAAYfR4A8+Xl+KsLwAh7zhnRLuFXttMts1U+ecaSU231eeudwIt8B6RRTnYO6tLlbwr060nKD8Vl+GV7QMe8HEGnrn0ziOpVlLaXlyc0kunL1AzK641sc0JWFrqPf28Kyp5z3Y2xgDRcY3do+xv8Ah3UVXhtUlRp89NelSXXYDvteM9Auq8KFHUKcakk2nVjKEcderWEBLW2o2N1Psra9tqs8N8tOpGTx44TA6usev4AVbhHPwl4n8PKo9/okBbQAAAAAAAAAAAAw847wIriLbhvU/wBVqZ9PmvcDw4J+R2l/2C+0CeAAAAAAAAAAAAAAAAAAAAAAAAAAAAAAAAAAAAAAAAAAAAAAAAAAAAAAAAAAAAAAAAAAAAAAAAAAAAAAAAAAAAAAAAAAAAAAAAAAAAAAAAAAAAAAAAAAAAAAAAAAAAAAAAAAAAAAAAAAAAAAAAAAAAAAAAAAAAAAAAAAAAAAAAAAAAAAAAAAAAAAAAAAAAAAAAGEAwvAAAaTWMLAEbdaPpt5byt7mxozptpuPIlnDz3ekCJuOCtDqxUaFpK1ec9rb1HCXq79vuA5pcJX1q+XReILuzpSeZxnFVeaXjnbAHlwDSrW+rcQ0Lm4dxWp3EFOq1hzeJbtAXV7RYHm3h9enXfoFHnq3t/AIxGWye+/TvwBlywQM+bhPfxRRlPPs2A15mk+bGM9fEDLfdnddfBAMvvGrBy5c5foKzSOXJZe667dTOdq4OJfkzqn6pV/wso5eCPkdpf9ggJ4AAAAAAAAAAAAAAAAAAAAAAAAAAAAAAAAAAAAAAAAAAAAAAAAAAAAAAAAAAAAAAAAAAAAAAAAAAAAAAAAAAAAAAAAAAAAAAAAAAAAAAAAAAAAAAAAAAAAAAAAAAAAAAAAAAAAAAAAAAAAAAAAAPCvcKjSnUanJQTeIwcm8eCXUCt1uNFmL07R7/UaEop9tb08xT74vwa8APP4a3nzU1n6r8AHw1vPmprP1X4APhrefNTWfqvwAfDW8+ams/VfgA+Gt581NZ+q/AB8Nbz5qaz9V+AD4a3nzU1n6r8AHw1vPmprP1X4APhrefNTWfqvwAfDW8+ams/VfgA+Gt581NZ+q/AB8Nbz5qaz9V+AD4a3nzU1n6r8AHw1vPmprP1X4APhrefNTWfqvwAfDW8+ams/VfgA+Gt581NZ+q/AB8Nbz5qaz9V+AD4a3nzU1n6r8AHw1vPmprP1X4APhrefNTWfqvwAfDW8+ams/VfgA+Gt581NZ+q/AB8Nbz5qaz9V+AD4a3nzU1n6r8AHw1vPmprP1X4APhrefNTWfqvwAfDW8+ams/VfgA+Gt581NZ+q/AB8Nbz5qaz9V+AD4a3nzU1n6r8AHw1vPmprP1X4APhrefNTWfqvwAfDW8+ams/VfgA+Gt581NZ+q/AB8Nbz5qaz9V+AD4a3nzU1n6r8AHw1vPmprP1X4APhrefNTWfqvwAfDW8+ams/VfgA+Gt581NZ+q/ADHw0vPmprP1X4AYfGV2//wCJ6z9U/uAPjK7f/wDE9Y+qf3Aay4yvG/ktrKz/APK/ADz4BuZXescQ3M6FShKrcQk6VRYlDaWz9JKLrJ7Mo4dVtad3Y1YTlWgsOWaVSVN5S8U0zHK4qEo2UafCtWpG4vO0qRy5yuakmmn1TzsbvjEvaO1SMq3Y06t1dU68IVIuVK4lDnSg5RlhPd7JmZXTHVOd9eQsLW48ppxo1Ixq1YTlT7ZtZWJLDxtudJGW87GktD1WpK5vVKDqzjLyyosJN4w+bZbGKOXUbOpHU6NOhG/rwdvHMYX1SON0ubCll9WIO/VtNlbWdhb06l7cyjUkoqN3KlOabzhyys4zgo5Ha1JWFzQuZ39tKjOEqcJXU3KKbw8zi/OznvewEzfUaMNEnaQq1VLsm0+3l2j7/jZy+viY5erEZwzp9Wc6d3Xd9QdOMWlWu51Y1VKPV5bXV9x0jNWqGeZJ5wugquDiX5M6p+qVf8LIKdw3xTdWPD9law4f1O5jSpqKqUqeYzXitugEquNLz5q6y/8A+r8AM/DW8+ams/VfgA+Gt581NZ+q/AB8Nbz5qaz9V+AD4a3nzU1n6r8AHw1vPmprP1X4APhrefNTWfqvwAfDW8+ams/VfgA+Gt581NZ+q/AB8Nbz5qaz9V+AD4a3nzU1n6r8AHw1vPmprP1X4APhrefNTWfqvwAfDW8+ams/VfgA+Gt581NZ+q/AB8Nbz5qaz9V+AD4a3nzU1n6r8AHw1vPmprP1X4APhrefNTWfqvwAfDW8+ams/VfgA+Gt581NZ+q/AB8Nbz5qaz9V+AD4a3nzU1n6r8AHw1vPmprP1X4APhrefNTWfqvwAfDW8+ams/VfgA+Gt581NZ+q/AB8Nbz5qaz9V+AD4a3nzU1n6r8AHw1vPmprP1X4APhrefNTWfqvwAfDW8+ams/VfgA+Gt581NZ+q/AB8Nbz5qaz9V+AD4a3nzU1n6r8AHw1vPmprP1X4APhrefNTWfqvwAfDW8+ams/VfgA+Gt581NZ+q/AB8Nbz5qaz9V+AD4a3nzU1n6r8AHw1vPmprP1X4APhrefNTWfqvwAfDW8+ams/VfgB51eObmjTlVq8M6tCnBOUpSp4UUu9vAFss7mneWtO4oyjOnUXNGUXlNesD3AAAAAAAAAAAAAAAAAAAAAAAAAAAAAAAAAAAAAAAAAAAAAAAAAAAAAAAAAAAAAAAAAAAAAAAAAAAAAAAAAAAAAAAAAAAA85U055ywKr7mm/DVV/wDi6v2oC3AAAAAAAAAAAAAAAAAAAAAAAAAAAAAAAAAAAAAAAAAAAAAAAAAAANZRyBU+EN+JuKe7F3Dp6pAW1r0gct5YK7oOk7ivST/pUpcsvVkzeOjihw/RhY1LPy29lSnt51XLj6njY0kmMXfDdpeQoqtXuu0oxcVWVTE2msNN46bkkb16VtCpVqVtTle3q8malBqru2umdtzWslbQbWtczqurcRhUadSjGeKdR/7y7zNmjFxoNKveeVK9vaM+XkxSq8qx4dBJgxPQKMrWhbq8vYqjKU1ONXz2285bwUec+GrecJqV7fOdRrmqdr58kuibx0A2hw5bxjUUr2+qOpDk5p1cuK9DxsTF1taaBSta9Cor6+qqh8SFWrmK2x0x4MrOJbl9IVGcS/JnVP1Sr/hYHJwTHPCGlv8A+QgJ5LCwBkAAAAAAAAAAAAAAAAAAAAAAAAAAAAAAAAAAAAAAAAAAAAAAAAACK4nj/wBWtUf/AISo/wD/AFYHhwV8j9LfjQQE4AAAAAAAAAAAAAAAAAAAAAAAAAAAAAAAAAAAAAAAAAAAAAAAAAAAAAAAAAAAAAAAAAAAAAAAAAAAAAAAAAAAAAAAAAAABh9QKl7mfyZqfrdX7UBbgAAAAAAAAAAAAAAAAAAAAAAAAAAAAAAAAAAAAAAAAAAAAAAAAAAGG8AVLg9r4S8Utd93D7JAW4ABjmQGU8gYbS6gMoDIADDkl12AwqkW2k8tbtAZys47wDaSy9gIviWcXw3qkU9/Jav+FgcvBTS4P0tPvoICfQAAAAAAAAAAAAAAAAAAAAAAAAAAAAAAAAAAAAAAAAAAAAAAAAAACL4n+TGqfqlX/CwOfgn5HaV/YICcAAAAAAAAAAAAAAAAAAAAAAAAAAAAAAAAAAAAAAAAAAAAAAAAAAAAAAAAAAAAAAAAAAAAAAAAAAAAAAAAAAAAAAAAAAAAw+oFS9zP5M1P1ur9qAtwAAAAAAAAAAAAAAAAAAAAAAAAAAAAAAAAAAAAAAAAAAAAAAAAAADWaz9GwFSrcH3UtUvbyx1+8sfKqnaThSgkm/XnfAGfglrHzx1P6PxAx8E9X+eWpfR+IEDq9HULDU7bTbfiXVL28rTXPRpYzCHi3nCfoAno8J6w45fF+pR9GPxAPhPWEvlfqT9n4gQ9zputUeKbPRlxTqLjc0ZVXVzhxxnbGfQBM/BLWPnjqf0fiA+CWsfPHU/o/EDVcKaum/8ArbqT9PL+IFe0qlqtzrFfStR4i1GyvKc32UZPKqw8U89QLDHhPWHFf9b9SSX+7+IGXwlrGPlhqT9DX4gU7UI65YXtez4g1PVqWn1JOnCvFKpCUHLlzJZ2WO7r6APovDM7OOh2tvYXsLulRgo9otm13Nru9TAmotcoGcrxAAAAAAAAAAAAAAAAAAAAAAAAAAAAAAAAAAAAAAAAAAAAAAAAAAi+J/kxqn6pV/wsDn4J+R2lf2CAnAAAAAAAAAAAAAAAAAAAAAAAAAAAAAAAAAAAAAAAAAAAAAAAAAAAAAAAAAAAAAAAAAAAAAAAAAAAAAAAAAAAAAAAAAAAAMPqBUvcz+TNT9bq/agLcAAAAAAAAAAAAAAAAAAAAAAAAAAAAAAAAAAAAAAAAAAAAAAAAAAAAAMTeIN77LuApmu6zd6jfy0Dh1p13tc3GcxoR6PD8QJXQOG7LRVKdNzr3VV5qVqsuaT26L0AT0FiPTAGJ9223eBUoYv/AHTPN8z3rtOV535+dd3hjm/cBbwAACB4o4fo65brD7G8pLNCvHZwl/FARvDvEF1K5ei67HsdUpdH3VljqvTjcC1rffdrGwGlxRpV6bp1qcakW1mMo5Wc7bAVO+4Jp0qzvOHbyrpt0n8WLzTlhPqn3vPft6APL4Q8QaE6ceI9NjVteSClcWuXyvOG5eL9GwFi0rXNO1ikqtjcxmnhuGcSi2ujXj1+gCVj1WOn2gbAAAAAAAAAAAAAAAAAAAAAAAAAAAAAAAAAAAAAAAAAAAAAAABF8T/JjVP1Sr/hYHPwT8jtK/sEBOAAAAAAAAAAAAAAAAAAAAAAAAAAAAAAAAAAAAAAAAAAAAAAAAAAAAAAAAAAAAAAAAAAAAAAAAAAAAAAAAAAAAAAAAAAAAYfUCpe5n8man63V+1AW4AAAAAAAAAAAAAAAAAAAAAAAAAAAAAAAAAAAAAAAAAAAAAAAAAAAA0qzUIOTaSXVt4wgKTea1qvEt9X03hmqqFrRThXvZrCk/CP3r19MAT/AA/odroOnq1tllvDqVH1qPxf+dgJnC8AMgaVW8bYAqXC798OL9c1Wn5lKMo2jhL43NBJN+GNgLgAAAGk+qAguKeHrfXLaD5uwvKL5qFxHaUH1+jP3gRnDnElxK6loutwdHUqOylJYVddzT73/nxAtUW5JNYafhvgD1wvADzlhSe30dQKrqnBVhWuFdaXKWnX0N41LfzV0a6Lp13fUDjeu8Q8NZhr9n5daRzy3dvu8JLqu7v3YFn0zXNO1el2un3kKyWcxW0kltvF7pekCQi3jLf0AeizhZ6gAAAAAAAAAAAAAAAAAAAAAAAAAAAAAAAAAAAAAAAAAAAAEXxP8mNU/VKv+Fgc/BPyO0r+wQE4AAAAAAAAAAAAAAAAAAAAAAAAAAAAAAAAAAAAAAAAAAAAAAAAAAAAAAAAAAAAAAAAAAAAAAAAAAAAAAAAAAAAAAAAAAABh9QKl7mfyZqfrdX7UBbgAAAAAAAAAAAAAAAAAAAAAAAAAAAAAAAAAAAAAAAAAAAAABiTxFvwA85VlCHPNxil1y9l7QImtxZoNGrOnU1S3jKEnGSbeU11QHrZcR6RqFdW9jqFGtVab5YvfYDuuLyja0J17mpGlSgsylJ7JAUe+1S+4zuFp2lxq2ulLErm5lHEpf7q/wA/ZuFy0zT7XTbKlaWlJUqUFsu/1vxYHY6afiBjmfT04A5r7UbbT7fyi9rwo0k0nKeyy2BXJe6Do7fmUb+Ue6UaGU/39AIvgLWbOnqOq0KrnQqXd1O4oqrHl5ov194F+VXLWMbsD1AAAMNJrDAhOJeHbfW7RNSdK8o70K8esX/FAQVnxbdaXp1xQ1+zq++Fq+SPJHa4eMprweN2/b6AN4alxxeKdxbWen2lFvzKVzzc8V6WuoGtbW+KtGqUbnXbS0r2Ep8tR2ak5QT6Pf8Ay/QBZNK1Wz1mzhdWVTnpy7n8aL8GvEDtqU41IuNSPNF7OLWcr0gVnV+C7G7rO706rPTr3Oe1pPzXLKb5o9/TxQEfT1finh9Tp6ppvvjb04KSuaLw0svPN4vp0QFi0fifTNXTVtW5aketKr5s4743QEu6jW3ewIbWeKLDRKtKjeOc61RZ7OhHnkl4teAEYuKtefThK6a/tlv+4D30rjOhc3s7DVraWl3sZKMaNWXNz56YeEBZudvw/ADdboAAAAAAAAAAAAAAAAAAAAAAAAAAAAAAAAAAAAAAi+J/kxqn6pV/wsDn4J+R2lf2CAnAAAAAAAAAAAAAAAAAAAAAAAAAAAAAAAAAAAAAAAAAAAAAAAAAAAAAAAAAAAAAAAAAAAAAAAAAAAAAAAAAAAAAAAAAAAAMPqBUvcz+TNT9bq/agLcAAAAAAAAAAAAAAAAAAAAAAAAAAAAAAAAAAAAAAAAAAAAAAMS+K+ntA+Qcd8Y1dSq1NMsOenZ05ctSeGnUkuq9Xo7/AKAKP2r78gbUbmrQqRq0ak6dSLzGUJNNe1bgfQOGql3xxCjYapfPyaxSdWlBOMqy7m5L6PHbPUD6dQtaVGhChQhGnSprEYRWEl6PAD1UMNPIG4HLc16Vrb1K1WahTppuU5PZL1voBV9O034XRhq+r05q15s2lpLKUYp7Tku9tezDAtlC2p0KSpUoQp04rChCOIr1ICK4h4a07XqKV/T/ACkE1Tqx2lDP2+p7AcHCN7cUql1omo1nUvLKWIzksOrTfSSXVpePpAtQAAAA0r1FSoVKj3UIuW3oAp/BfaazXuuIb6Dc6tSUbWUms06SeMJLp6+8C3xp4bedn0QDst88zAp9OEeHeOqVpbQjC01iEpKlTikoVIb59CxnZAXBQzFrPUDLhnw3AwqbS2a9feBX9a4M0zVqiuFHyS7jLmjXt1ySTznO2zfpe4EBe3vFHCdpUheVqF9bYjChWmnzubziO27ffl7bAWThzRaNra0724g6mo3EFUrVqsfPjKS3iv6qXTC8AJxQfj6gIrXeHbHWrSdK5pR7XlxCsornhu2sP1vp0A4eDr+tc6bOyvm/LdPl2FfLct1snnvbS7gLLDeKwBkAAAAAAAAAAAAAAAAAAAAAAAAAAAAAAAAAAAABF8T/ACY1T9Uq/wCFgc/BPyO0r+wQE4AAAAAAAAAAAAAAAAAAAAAAAAAAAAAAAAAAAAAAAAAAAAAAAAAAAAAAAAAAAAAAAAAAAAAAAAAAAAAAAAAAAAAAAAAAABhtZAqXuaNLhqon18rq/agLcmn0AAAAAAAAAAAAAAAAAAAAAAAAAAAAAAAAAAAAAAAAAAAAAAEdxFVdHh+/nGnUm1QntDGenXr3dQPzy29+rfe89QPEABbvcy5vhfQSe3Zz28fNYH2ynHlA3AAV3jbtVwtqDpwi802ptyxyx72tt36NgO/h3sYcO6fGhOUqStocspR5W1yrDay8P2gSXMvEDEmmsZAp1OCl7qlZLotOX+JAXMAAAAcup0nW0y5pxnODlTkk4PDW3cBW/c4klwhbU1LE4TqKce+L53s0BbeZd7AZXiBTuIX2nuh8N9n53ZxrOeN+VcvV+AFxi0+gGQAACme6VCp722E41EoK9pqUeXLb3w8527+7vAt9PZtt9fT1A35l4gOaL2z3AVDg7Hv1xKv/AB+OvXqBb49AMgAAAAAAAAAAAAAAAAAAAAAAAAAAAAAAAAAAAAIvif5Map+qVf8ACwOfgn5HaV/YICcAAAAAAAAAAAAAAAAAAAAAAAAAAAAAAAAAAAAAAAAAAAAAAAAAAAAAAAAAAAAAAAAAAAAAAAAAAAAAAAAAAAAAAAAAAAA85Zzs8PPhsBU/c+xR0i6tZ5jXpXU+0py+NTz05l7GBbYZy/T6QNwAAAAAAAAAAAAAAAAAAAAAAAAAAAAAAAAAAAAAAAAAAAADwvaEbmyr2821GrBwbXVZWAPz3q1jU0zU7myq/Goza+Mnt3boCNAAfQfcn0mdbUa2rSclTt04RSa86TW+V6mB9ZgtwNwAHFf2lO+s7i0rx5qdZOLW++V6NwKvwzrkNO5uHtXuFSvLSapUpVMQVaGcQ5c+jHpYFvTy1/Bgcep6rY6Tb9vqFzCjBZxzPDm1u1Fd7AguE6U9S1C64kuacoyufydqpLDjSXq2ae2/oAt4AAAAxL4rwBR77y/hPWLq/srGV1pV5mtWhTWZU6mMubb6Ze/gBL23FehV6VOs9VtqbnHm5KlRRcX6U90wPDU+MtKtqcIWNWOo3NWahChbTUpSbA14W06+ndXOt61SULy7ioU6aTTpU1vytexdd9gLPDr1A9AAACL1/TY6tpleynnM4Zg1jMZLo030f3gV/QOKE6tLRNYhK21Oi1RxLKVVpbPmfe/3gW7K3aaXr7gK3xFxZbaZVlp1nB3eqTxGFGCbxJ9MtfTgDs4W0qel6PTo3HnXdTz685Ybc3u9+/1sCdh8VAZAAAAAAAAAAAAAAAAAAAAAAAAAAAAAAAAAAAAARfE/yY1T9Uq/4WBz8E/I7Sv7BATgAAAAAAAAAAAAAAAAAAAAAAAAAAAAAAAAAAAAAAAAAAAAAAAAAAAAAAAAAAAAAAAAAAAAAAAAAAAAAAAAAAAAAAAAAAAGAKjwh8p+Kf1qH2SAt6AAAAAAAAAAAAAAAAAAAAAAAAAAAAAAAAAAAAAAAAAAAAAAGJfFArfEnCen8QQcq0eyuoxcYVo7P0ZXel94FE/kq1r88sf70/8A0gdul+5hXpXkHq93QlbrLcaEpc0n4bpYA+j6XY2+nWULS0pKlSprCSXXxfp3A7AAAABC8QcPafrlKULujFVeXEK6Xnw9T9fcBDx4V1enGMFxZqKUVhJLp+8DejwZSndwudav6uq8kHGMbiO0U933vPUC1QioQjGKSSSWF3ID1AAaVM92fvAxDfKyn4sDdAZaTWGtgIWXCnD0pOUtHs228t9kgPS00DSLC5Vez023pVI5xKnBJrKAkOm62/iBtBpy/wA9QPQAAAAReu6JYazbwpX1FyUZqUZwfLKL8UwIJe59oUt+W7We5XDAldF4d07RO0976UnKo05TqS5pPHRZfcBOAAAAAAAAAAAAAAAAAAAAAAAAAAAAAAAAAAAAAAACL4n+TGqfqlX/AAsDn4J+R2lf2CAnAAAAAAAAAAAAAAAAAAAAAAAAAAAAAAAAAAAAAAAAAAAAAAAAAAAAAAAAAAAAAAAAAAAAAAAAAAAAAAAAAAAAAAAAAAAAMd4FR4Q+U/FP61D7JAW9AAAAAAAAAAAAAAAAAAAAAAAAAAAAAAAAAAAAAAAAAAAADA0nJpLHiBp2sZLacZJdcMl86HLa3VW5rVlKg6dKnJRhUk95+O3gWedkedbV4Ur92qi6klQdbzGm2l3eszu0rrVeDjCUsR5llc2zNeDd1YxSbmkn0beMgJ1lCEpykuSC5pPwRL0OS31mwu6sqVteUatRJS5Yy3wzXxca0da0+tlUr6jNxh2ksSz5viZm6y2paxY17WpdUbylO3pfHqJ7R9pVjT36sq1O4lbXVGrOhBynDnxy4W+X/EM3dK2r2NrToyu7mlQdVeZzS6+rxW4aeFpr9jd6pXsKVaHa0mlHE8upsm2l6OnsA9rfXNMr15UaN9QnUgnKUVLdJdQMLXLSb5aFxRrT54pxU8YUuj+5E5bB61NXsaV5GzqXlJXL6UnLzmWeD1vb2nZ2lS6rv8nSjzSwiaK1U1DUPfKVS5talmoafUmoRrKT2ec9MJr0plipGjrtepc07O2sqlxUdCFaU5VFFJSyt3jrt7S4EuJOStKUrb/Q41VRlX7RbSzy/Fx0z3kRtba7XuV5RCxkrBtqNx2qbaSzzcuOm3iBzV9cvK2l17xWFWjQ7CdSnVjUTm0k8PDWzfdnInqNNR1GVzSqWlKhWrQoUo1bicKyptR646bvbux0HLpp0z1yUbilbadYyuHK2jWi3V5UovK3ynvsJ4k9SenX8dQ0+3vKaahWpxnh92UE3tyVtftqVzUoRp3NXsWo1J0qXNGD8G+7uDV8estato287hufZwr+TyxH+nzcv0Z7wzxlrnq8S2dOrVpuNdqjPkqTVPMYP0vw3C8unpe69aWdeVOqq04xip1Jwp80Ka8ZPu23CPLUOILa1lWt6VKvXuKdHtOWnT5tmnhv0BqRw6JqVxN2k61e6bu3JuFzRSSSSfmNY2WerzkvTPLp3fCO2qwrdgq/LGM+Su6TdOTim3h9/Qla9bVdfoUKdDtO0rTq0lUaoUm3Ff1mu5fiSazliWtbindW8K9GSlTqJSi13plXXqAAAAAAAAAAAAAAAAAAAAAAAAAAAAAAAAAAABF8T/JjVP1Sr/hYHPwT8jtK/sEBOAAAAAAAAAAAAAAAAAAAAAAAAAAAAAAAAAAAAAAAAAAAAAAAAAAAAAAAAAAAAAAAAAAAAAAAAAAAAAAAAAAAAAAAAAAAAY7wKjwh8p+Kf1qH2SAt6AAAAAAAAAAAAAAAAAAAAAAAAAAAAAAAAAAAAAAAAAAAAYZmiM4jlcR0K7do5Kt2b5eXr7PSBWbilotDRefRFS5pQpqvKg/OdLnjzOff0653xkvH0rSt2dv74vQMQtfJYNqh8Tmy845f6WMZ7+hrn4QqUNKpVb33njQjTlpNVzdHD5nh9Wur9Zn+L3srarCwr16y1lUHCnZQdrGvjly0+blz1e0Ry/zrXxrbRsK7sKWs9nKz8gj2KuPic/e8vbOPbg3I52pnS51pcHN3PaJ9hPHafGxjbJz/AJPGuKN0l07xaOrG3qwVpTk6rdKUIrmXRZWHl56ZNzxt6UbGa4Gt6NK3cZx7OdSlyuLniSctuudm/SOPrLn1N+V0NV1GjRqwtfIY0c1KcoOUk22uVpN4TW/pIvF61UtQda4sLevCjS02pRy6U4ec1tFRaTfsDPL1z16N1bXsa9WrWt6FezhSi6dp27ys80XhNx6r/KC1IcOryC+uLapC4/LUqcqM6lNpOKglu1tHp0CIa5jXuqVu6/vlU1CNaTq03Go6VPzJrzVjl8OniBNTtXR4Z0qjSoShyVqEpQjB5i8pttd2+5efrVcdRShb3mkSta0rytedrTlGDcHFzUubn6LCT2yXj4xVk1Gx98dHq2U5LNSHLzS3w/E530iNlpWqXd1Vq31S0jKVnO3SouWMy78tGorqsNLq2moeUVJwlF2tOg1HPWLlv6ty29CMjwvGlfTdOx0yrRnX7Xta1PNWKbzLG2Nt8bmIrrttK1C2tfex1bZ6esrm3VRwa6dMZ9puMtJaZrEtHqaZVr2it+xlRpzjzKTWMR5ljCxtnBPpG1bSNQo1azsri37O6pKlVVbm81pYzHC8G+o5NPez0iVreqcJ5pRtI26znPMnJt+rcTxJ66dGs5afpNraVJqdSlBRlKGcN97QZ+oe7sr2pqVeVnZXdvUnVWK8LiPYy6edKHNlvu6dyDfLx43On6kqVWyo2cp03fK5Vfnik4upzNYbzlLxQXhjRRvbuWrafb2M5qtdYdw5R5IfFb2by+ncgnNtd6LdUr68UaF/dW90o/8AZ7vsorEVFqSclnp3Z2KzEhDTa8a+octD8lWtYU6WWnmSjJY8e9B01haddyWjQlTlHsKUoVsSXm5iku/fddxlm9vCzo6nb6TLR3p02oUZ01X7SPLNcrUWlnOW8dUaqcP+uevpF9SuaN0qN7XU7WFGcLa5VOUHHL3eUmvOf7yRrniy6Jbq20yjRjSlS5V8SUuZxfg33stc+LvI0AAAAAAAAAAAAAAAAAAAAAAAAAAAAAAAAAAAi+J/kxqn6pV/wsDn4J+R2lf2CAnAAAAAAAAAAAAAAAAAAAAAAAAAAAAAAAAAAAAAAAAAAAAAAAAAAAAAAAAAAAAAAAAAAAAAAAAAAAAAAAAAAAAAAAAAAAAMd4FR4Q+U/FP61D7JAW9AAAAAAAAAAAAAAAAAAAAAAAAAAAAAAAAAAAAAAAAAAAAAGk4cywwPCFlRpqXJRpR5liXLBLJL50NqdrTpQ5KVOnCPfGMUkyzzsjWFnShFqNCjHmjyyUYJZ/z4EzsqO1PSLy6q4t7m1p0XHlcatvzuP/C8rAk703rHbS023hbUbaVKFSlRioxU0n0N6zj2rWyq0KlKW0ZxcNu5M55W9YtLRWttTt4NuNKKjFt5bSN6j15JZ7senqZiPC8sYXlnVtarlyVFh8rw0VZ09IUHCnGGW8LDbe7CWVv2e3gFHB4ey9CAckvWvABKm210/AnKWhyS/wB36CwZUZL0sQaunJvLw2gjbkaxjBFY7PfwXfhlGeT1AHDMcdP3iejEqbbXTHeS9qy4P2liMKD5d1h+h9Amdsdk874+4NXuNuR753DPHY8aNpSoSqSowUHUlzT3+M/EF7esYPG+3qfQKyoNLphvruBjkl1bAcks5yKtFTfNl/QTGe20E0nnBVbAAAAAAAAAAAAAAAAAAAAAAAAAAAAAAAAAAAARfE/yY1T9Uq/4WE1zcFSS4O0v9XQVK1L63p3FO3qVFGrV+JB9WML09VWg5OKlut8AbcyxkluJLrwr31tb0VWrVYxpNpKfVZfQs7V7KcXFSW6fQXpNbJ5JLqhQAAAAAAAAAAAAAAAAAAAAAAAAAAAAAAAAAAAAAAAAAAAAAAAAAAAAAAAAAAAAAAAAAAAAAAAAAAAAAAAAAAABjvAqPCHyn4p/WofZIC3dAM5XiAAAE0+jAAAAAAAAAAAAAAAAAAAAAAAAAAAAAAAAAAAAAAAAAAAAAAAAAAAAAAAAAAAAAAAAAAAAAAAAAAAAAAAAAAAAAAAAAAAAAAAAAAAAAAAAAAAAAAAAAAAAEXxP8mNU/VKv+FgxycGfJDSl/wCHTA206Eq+q6hczjHnjONKn6IpJ/a2E9eWk0FbcR6nTpznJSjTnzVJOUs4fe98El7bs6Sl/bwubOpSnOcYyi96dRwl9KeTPNnjEZw1RjW4Us6NSOYVLdRktujWGng7cp+V4+OvQKsp6ZCM226UpU8vwXQ5frWL6lYbosmNMlAAAAAAAAAAAAAAAAAAAAAAAAAAAAAAAAAAAAAAAAAAAAAAAAAAAAAAAAAAAAAAAAAAAAAAAAAAAAAAAAAAAAGO8Co8IfKfin9ah9kgLZN4WcgedGoqvLOEoyjLdNPKx6APcDXv6bgecakJuSjOMmnh4eUvWB6QWF4egDYAAAAAAAAAAAAAAAAAAAAAAAAAAAAAAAAAAAAAAAAAAAAAAAAAAAAAAAAAAAAAAAAAAAAAAAAAAAAAAAAAAAAAAAAAAAAAAAAAAAAAAAAAAAAAAAAABF8T/JjVP1Sr/hYNcvBj/wCp2l/2EQN40a9prNdwpSnbXmJzlHpTmljf0YS9uQnja30eFvqFS8p3d5OrU+Mp1E4y22ysdDPGdtW9PK00qdPT6tGvcVIVrio51J0p4eW8JJtbLGC84zxrajYvRdLdKw8punFctKE5KTj3Jd2xf1+muLu0y08jsKVGTzJedN+Le7H5xjl67Y9A0yAAAAAAAAAAAAAAAAAAAAAAAAAAAAAAAAAAAAAAAAAAAAAAAAAAAAAAAAAAAAAAAAAAAAAAAAAAAAAAAAAAAABjvAqPCHyn4p/WofZIvwTPELnOxha0pSjK6qRouUXhxTeG0SDi4ht52ujw8huJ2tOlUp+ZSjFKS54rwyuvdgzP84l8Tal5kcvdx6m+TXFDRVxDi1QneVZ0qlvKUabxywxLuwvtyZ4pyesqUbHX6VSmlGN7BxqRWy5o9H69y1Im446oKyAAAAAAAAAAAAAAAAAAAAAAAAAAAAAAAAAAAAAAAAAAAAAAAAAAAAAAAAAAAAAAAAAAAAAAAAAAAAAAAAAAAAAAAAAAAAAAAAAAAAAAAAAAAAAAAAAAgOLr62teHr+FzcU6brUKlOClLHPLleEvFgeXB1zby4fs7Wlc0a1S2oxjVVKamoS7stdO8CwwaksrDXiBvheAGMJ9yAzheCAYQAAAAAAAAAAAAAAAAAAAAAAAAAAAAAAAAAAAAAAAAAAAAAAAAAAAAAAAAAAAAAAAAAAAAAAAAAAAAAAAAAAAAAABjvAqPCHyn4p/WofZIXwTmvUqk7FVqEOetbTVaEP63K849pnjRy39vV1zTYRtr121KpyylmhlvDTXXGN0W9XRvUt9Q8r0+kq8pU6bcrirFKHPjHLHGenUboxX0q8lrcNQhqCUVFwVLsFhRby98lhSEpX2vJqDVvZQa52muacu5Z8MLf0gTMM4A2AAAAAAAAAAAAAAAAAAAAAAAAAAAAAAAAAAAAAAAAAAAAAAAAAAAAAAAAAAAAAAAAAAAAAAAAAAAAAAAAAAAAAAAAAAAAAAAAAAAAAAAAAAAAAADSpPkjn0gYUptrOOuNgPTIFF4w0a9rcQW2qUNOWqUI03CdrVqYin4rPd/EDThTSb2jxLW1GtpVLS6Hk3Yxt4TUlKTafMsbd3fgC80vFrH2gbt4QHmqjbeMY6bAeoAAAAAAAAAAAAAAAAAAAAAAAAAAAAAAAAAAAAAAAAAAAAAAAAAAAAAAAAAAAAAAAAAAAAAAAAAAAAAAAAAAAAAAAAx3gVHhD5T8U/rUPskL4LbKPMt+hmTBqqSwl4Gr2HZbLEnnxJINuTbCKNVSSect97A3isIDIAAAAAAAAAAAAAAAAAAAAAAAAAAAAAAAAAAAAAAAAAAAAAAAAAAAAAAAAAAAAAAAAAAAAAAAAAAAAAAAAAAAAAAAAAAAAAAAAAAAAAAAAAAAAAAc99TnWs6lOlVlSnJYjUjjMX4rOwFC0m24w1B3EK3ETtbi3ny1KcreLW/Rp96a3AkfePjDGXxbH9liBt8HuLsL/rXHPptYgZ+D/F2MfCuH7LEDWeg8XwWfhbFL9ViByalY8V6fYVLurxU6kYYxTjaR5pttJJettAWThynqNLR6L1m4lVuqmZVObCUPQsJd2PbkCaAAAAAAAAAAAAAAAAAAAAAAAAAAAAAAAAAAAAAAAAAAAAAAAAAAAAAAAAAAAAAAAAAAAAAAAAAAAAAAAAAAAAAdOoEDecY6DY3VW2u72VKrSlyyi6M9n9G4Hh8PuGF11L/wCzU/8ASBq+P+F8/wCs/wD7M/uArnDfFmh2Wva/c3N7yUruvGdGXZyfMlnwW3XvAsi4/wCF/wBJf/Zn9wD4f8L4z75//Zn9wHdpfE+j6vcu3066daolzPFKaSXrawBMAAAAAAAAAAAAAAAAAAAAAAAAAAAAAAAAAAAAAAAAAAAAAAAAAAAAAAAAAAAAAAAAAAAAAAAAAAAAAAAAAAAAAAAAAAAAAAAAAAAAAAAAAAAAAAAAAAMTTcdgK5r9nVsLqPEOn0OetQT8qgp8rrUsb57m49VnwAmravTubancUpRlCpFSjJPKwwOlfFW+dgDaXUDWTT3Txj0AVihR+Eut+U16anpunzlGinU5lVrJ/HwtnjfHrAsyg08YTSeUB6AAAAAAAAAAAAAAAAAAAAAAAAAAAAAAAAAAAAAAAAAAAAAAAAAAAAAAAAAAAAAAAAAAAAAAAAAAAAAAAAAAAAAYl0AqfEmmdhcx161oc9anyq6pOnzqrSyk3juklvn0AS9hS0u9tKdzbULadOe8ZKmt0B2LT7LC/wBDt/qogPe+y/M7f6qIGs7CyWH5Fb4W/wDNoCM1utpulWMqlS1t3Xn5lCCopupUa2SQGOG9EjplCVxWXPfXeJ3E+XlXoikuiQFgAAAAAAAAAAAAAAAAAAAAAAAAAAAAAAAAAAAAAAAAAAAAAAAAAAAAAAAAAAAAAAAAAAAAAAAAAAAAAAAAAAAAAAAAAAAAAAAAAAAAAAAAAAAAAAAAAAAMSUZRcZJSTWGn3gVaxk+H9Z97a3Yx0++nKrbSTceSe2YYedujXTvAtK6IDSe8n3bYyBXuJLqtdShoWn1IQub2D7Scm26NLvlhd/XG6AmrCzo2FCFva0406UEkoxXcB1gAAAAAAAAAAAAAAAAAAAAAAAAAAAAAAAAAAAAAAAAAAAAAAAAAAAAAAAAAAAAAAAAAAAAAAAAAAAAAAAAAAAAAAB9GBU6q+DWrVLqlQzpN5Jdoqbb7Cp/W5emHnfHggLYuiyAA5tQuqNlZ1by4bVKhBzk0m8JegCD0K0q6jqU9e1K27OpKKjaUpvMqMPHHSMn34AsoAAAAAAAAAAAAAAAAAAAAAAAAAAAAAAAAAAAAAAAAAAAAAAAAAAAAAAAAAAAAAAAAAAAAAAAAAAAAAAAAAAAAAAAAAAAAAAAAAAAAAAAAAAAAAAAAAABrU+L+GQPKpONOMpzlGEYpybbwkvHPcBTNc1231uvPQ9KtKl++0hzXMIqUKL3eU+ie3X1gTnD+q1L6lVtb6UFqFpN068MOOUntPD7msPPTcDs1bUaOl6fUuq9SMUtoJ/05Pol3tgVfgzVKVzfX/lsZUtYrT7StCdLllyJJJRWMtJJbe3vAu0PjZzldwHoAAAAAAAAAAAAAAAAAAAAAAAAAAAAAAAAAAAAAAAAAAAAAAAAAAAAAAAAAAAAAAAAAAAAAAAAAAAAAAAAAAAAAAxN8sc5wBx2eo219Ur07WsqkrefZ1cf0Jd6fpAXtrQu7Spb3EFOlUjyzT6YAgOG9XpW91U0arf8AlMYSas60uk4rrBy73F5XdnAFmnUlHdtKHi2BWK1SPE+qOhGc56VafHSWIXFVPpzd8VtnbxAtEcRWF/RXcBzW+o29xd17SjXjO4t8dpBLeGemQO4AAAAAAAAAAAAAAAAAAAAAAAAAAAAAAAAAAAAAAAAAAAAAAAAAAAAAAAAAAAAAAAAAAAAAAAAAAAAAAAAAAAAAAAAAAAAAAAAAAAAAAAAAAAAAAAADzqykmsdO8CO1jWbTR7Kpc3taKUV5tNPMpeCS9eQKpG113jJueoyqaVpjhD/R4edKt0e/T8PAC36bpllpVv2FjQhRg92orr3Zb8QIviGlcWNxT1uxVR1LdRhcUYRUu1o587bxSy0/QB42VT4SavG9VSr72WUk7eDhhVqmGnJvvS6dO8Dp1/hunq1SldW9eVnf0GnTuaccvC7mu8Dg4d167tb33j4jkqd9D+arN+bcLxT8QLZzNvaXeB6gAAAAAAAAAAAAAAAAAAAAAAAAAAAAAAAAAAAAAAAAAAAAAAAAAAAAAAAAAAAAAAAAAAAAAAAAAAAAAAAAAAAAa1FmOP4AVa8rw4f16rfVIyhp15hXEopctCr0UpYWcNd772BGXes6hxXUVhoNCrRsHOUK1+01FxWMqPp39YExW4V06PD0tNtKMYzhFyp1ceeqn9fK3znuXqA4Kl9qesWy0JWE6FwsK9rNyUI00+sZLrzY238QOjTFLhzUqOkVZwnp11KXkU5NJ05dezfisvZ+kCzSqU4RlUqSUIQi5OTeyS7wKzwqnf6nqmuU6HY0LqahTWX+V5Nu0y9nnpttsBbQAAAAAAAAAAAAAAAAAAAAAAAAAAAAAAAAAAAAAAAAAAAAAAAAAAAAAAAAAAAAAAAAAAAAAAAAAAAAAAAAAAAAAAAAAAAAAAAAAAAAAAAAAAAAAAAaTnyvH0AVLWOLXXrT0/h23eo3bhntKT56dPLSy8dVv7O8Bo/B6qXj1PiSqtQvm4uOViFPHdy9P4AW3s16fT6QM8iAwqaXjnxA87WzoWlpC1t4clKmsRWW8L1gevIvFgRHEnD9rrmn9lWzCvT86jXhtKnLx27gIDSeJLzR61HSuKKE6UuZ06V81inV6YefHfqBded+G+O8DaEuaKfiBkAAAAAAAAAAAAAAAAAAAAAAAAAAAAAAAAAAAAAAAAAAAAAAAAAAAAAAAAAAAAAAAAAAAAAAAAAAAAAAAAAYcsPAHnWr0qVGdSrUjCEVlyk8JICiXFS444vZWtq5UdCozXa1ejryT6L0f+/XYDNO34n4Wl5LYUKeqadHmcIc/LOmtsZb9uyyB00+PqPYx7XRdWVRpc3Jb7J9+N9wMfDawVadaOhavGrNLmkrZZeM43z3Zf0gcur8SW+uaZW06jomqO4rRaourQUYxm/ivOdt+8DmsNO1nijUpWnE9byenZJSdtSajOeVs9m9vT7O8D6DQpQoUadKmvMppRXqSA6QAAAAAAAAAAAAAAAAAAAAAAAAAAAAAAAAAAAAAAAAAAAAAAAAAAAAAAAAAAAAAAAAAAAAAAAAAAAAAAAAAAAAAAAAAAAAAAAAAAAAAAAAAAAA3hZYGvN6GByalq1jpdrUuL2vCnGEXLDfnS9S7wKZWutZ4zqVaNhF6dpEnGM6lWOKtTveF6n6vSBbdJ0Sw0i37Kwt4U20lOXfNpdW+9gSEYtPLwBuAAAAAGGsrAEfqej2uqWM7S8gpwl0fRxfc0BVNJ1S64Yv6ei67UnOym+W0u309EJeHh+G4F3pVoVKcZwlGcGsqUWmmB6Jp9AMgAAAAAAAAAAAAAAAAAAAAAAAAAAAAAAAAAAAAAAAAAAAAAAAAAAAAAAAAAAAAAAAAAAAAAAAAAAAAAAMZWcZA5dSvbaws6l1d1Y06VOOXJgUqnb6vxtUlWr1Z2OiOSjTopefXSbzLPX+HoAutraUbO1p21pbqlSp7RjHuA9lF/0lnxA9EngABrNZxtncCB17TLl3FDVtNp05Xtpu4vK7aGGnDZ+nKzndICR0u9Wo6dSuqcXDnyuVrDTTw0/TlASAAAAAAAAAAAAAAAAAAAAAAAAAAAAAAAAAAAAAAAAAAAAAAAAAAAAAAAAAAAAAAAAAAAAAAAAAAAAAAAAAAAAAAAAAAAAAAAAZAxzLxAc0dt1uNDK8RoZXiBnKAAAAAABrJrle4FX4h4soaXWdjZwd3qU0lTowi2uZ9ObHseO8Dl0zhCveXEdQ4qr+XXDiuzpNcsaXfvjr/nOQLbCk4NcsUklhLGyXoA9YJpYYGwAAAAAAAADg1HS7TU7V21/bRr0ZNPEs7Nd6xugKhTnd8D3/AGVV1K+g154hPq7eT/z+71gXi1rUq9CNWjOM6c0pRlF5TT6NAeyafRgAAAAAAAAAAAAAAAAAAAAAAAAAAAAAAAAAAAAAAAAAAAAAAAAAAAAAAAAAAAAAAAAAAAAAAAAAAAAAAOHUdRtdNo1K99XhRpRTeZNZlhb4XVsCn2lrc8a3sb/UacqOjUZ5t7eXWs/6zX+fQBeaMI00oQioxiuWKS7kB6gAAAABiXxXkCp3VKPDOrRvreNWOl3U35VThHMaU3jFRJbpPvwu4C2gAAAAAAAAAAAAAAAAAAAAAAAAAAAAAAAAAAAAAAAAAAAAAAAAAAAAAAAAAAAAAAAAAAAAAAAAAAAAAAAAAAAAAAAAAAAAAGJPCA5r66haWdW5n8WnFyYENLUNRtrW1VeNOd/eTxClLKhT2y4tpbpJPcCQ0q8qXdKrGqoRrUKrpVFFtx5sJ7N743RMV432o1bbVrSzdpJ07huLrtrGyzhLrkYFzc3Vrq1BVJc1lcPs0sedCp1T9TSfqwXES0MJ49gG4AAAA57+6o2VrO5uakKdGmuacpvZJfxAo9TVdc4qr1LfQ4TsdPcPylzXjhzy/wCjjPcnuvaBY9A4csNCo4s4t1JRSnVm8ylhfuXfgCdAAAAAAAAAAAAABy3ltRvKNS3uaUalKquWcZLKa8GBSa1rq/BUXXsn5ZokanNOjH+cpRe7x6E/Dr3gXLS7631O2p3lnUjOjUWU19j70wO4AAAwyKGkDP1AqsgAAAAAAAAAAAAAAAAAAAAAAAAAAAAAAAAAAAAAAAAAAAAAAAAAAAAAAAAAAAAAAAAAAABE6zrFpounyurupLriEIvzpy8EBW9L0KvxFcPWeJoZpzX+jWbziEPF+n/PoQXajCMKajGMYqOySWEgPQAAAAAAGJ/EfT2gct3bUby1qW9xDmpVI8so5wpJgQmjXFXTNQqaDfXFSoutjUqxw6kMbrPe1/ACyx+Kt8gZAAAAAAAAAAAAAAAAAAAAAAAAAAAAAAAAAAAAAAAAAAAAAAAAAAAAAAAAAAAAAAAAAAAAAAAAAAAAAAAAAAAAAAAAAAAAxICL4gpTqaLcxpx5pKGWvEDj1NTrrTdUtIzrwt5c7jSWZSi4tbL2geNrc1dMoXF3WtZ9rf3a7GhJ8st0lv1w9mNV6a5XrLV9OlTsbqvChNznKlDK3i0v3voNHTq8lN2NCDxVqVlNR74pJ5fq3/eES8Orw8p9ANwAHnOWM43wBXuIOLLPRfyC5rm9nFyp0aSz6ubwWfsAiLXh3VNfuFfcW1nCm4xdOzoS5Y9zal19q/eBdLejCjSp0qUFCEFhRSx+4DowvAAAAAAAAAAAAAAAAB5VYxknBxTUlhprKfrApF9ZXnCF/LVNKjKtpdZ/6TaL/wCG/wCtH/P052CzaHrVprds7izqN8suWcZLEovwa7gJYABCanzXesW9lzNUace2qpZ87GyWz8Wn7DNvaou6vbxR1HUKV3VjCxq9nCjGS7OeFFvmWM587ua7jcRZcznRc6U8Sccx5llLwyCeorRat1cQv6Go1lWlC4lT8xcixhdFltL2kOXT20OU6M7nTqlSVR20/MlLrytZS9mcewMypldA0AAAAAAAAAAAAAAAAAAAAAAAAAAAAAAAAAAAAAAAAAAAAAAAAAAAAAABrJtPbBN7HJT1ClO4r0VNt0F58lB8sX4c3TPiu410Nra+t7uLnZ3NG4iniUqU1JRfsMd6PWpXjSp89SUYQT3lN4S9poeVa/pUK9KlWm4us8U5cr5c+DfRPw8QOtboAAAw3hNgQmv8SWuiQpKpCde4rNKnb0Vmc9+5eAELo+jXmtahDXeJKTzF5tbSXSkvFp9/+X0QF0jGLj3NejoBlRS6d4GQAAAAAAGsgY5UBEa3pj1K1h2Vedtc28+0t6sXjlljG/isZT9AGOH9Y98rJqo4K8oPkuKWHFxku/D3w+oEvBtrzlhgZk8ICOu9QrU72haUIKVSo+abknywiu9v09xnVctTiBU684+S1Hb06ipVLlSXLGTeMY6vfG6WDUZqVq13Souo05Rju8LLx6EiLHDYas9TtatWzpyhKE5Qiq8HHLW266r7Sle+k3sr61c6kHTqwk4VINfFkv8AK+kJHcFAAAAAAAAAAAAAAAAAAAAAAAAAAAAAAAAAAAAAAAAAAAAAAAAAAAAAAAAAAAAAAAAAAAAAAAAAAAAAAAAAAANZA1cItNPo1gDnsrC3saLo20XGlnKg5NqPoS7l6APadvSnKMp04ycXmOVnD8UTBsoJLCzj1jBzrT7ZXzvOWTrOHIm5NqK70l3Z7/HCKOlRUegGX0A8K9xChRnVq1IwpwWZSk8JL0vuApd1xNf8RVq1hwpR5qbjipeTThyNvu5sbpZ9PgBNcN8K6dose3p03VvJrFSvU3cn3tJ9P4gWDlXgAwgMgAAAAAAAAAAAAAAAMOKbTa3AxJJICl65ot5pOoz4g4bp/llvdWsV5tdd+3j6vtAn9C16213T43VnLzulSm/jU34MCXXRZ6gQuoVFZa9b3VRpUa1N0HJtJQl1Tfrxj1szfVjju9Fu6sruhRqUVZXk1Vrc2e0jLbPL3dEupqJXbbVL6rqF5HCja04qNKMo4U5NZznvXcaqS3XjplnqFjc3VW+qWboVqjrPs28xeEsb7Y9Jlb29dGflFxeahCLVKtU5aTf9KMUllejKePFYCZiZXRBWQAAAAAAAAAAAAAAAAAAAAAAAAAAAAAAAAAAAAAAAAAAAAAAAAAAAAAA8a8nGnUklnEW0vHYlVVa6lHgmU03z1pKVSXTOZrJibqO62jChxLKnRShSVnGT2SWeZ4Z2uflDiihb3OjSuORVJU5wdOSfRucfYYV1azSjV0Osm3zQp80X/VaWxoSdpUlVtaVSSxKUU2QeoGs5cuAIPibiOholooxg617X82hQi95PxfoAj+GOH60Lh61rslW1Stuk/i0F/VX+fvAtfZ7de4DaK5YpZyBkAAAAAAAAAA15MvLf4gVriC3uNLu5a9p8k+WMYXVCS2qQT2ax/SWX9IE9a3dvc0IVracZ0qi5oyT2aYHrKSknhPYCIprHFFRzS862j2bz1855RlUHWahaXulck/K6972lOPK3mHOnlPp0TNcWasdLULaVe4oR7T/Rop1J483OOnjnGPpIsRvDN7b3FS/p0ptyd1UqxzFrMXJ4e67yrXfou97qU4fzbr7P08qz/ArMS5FAAAAAAAAAAAAAAAAAAAAAAAAAAAAAAAAAAAAAAAAAAAAAAAAAAAAAAAAAAAAAAAAAAAAAAAAAAAAAG8LIHFqWpUdM0+te14zlSoLmnyLLx6EBXv5QdLaUlY6m112t8+rvAfyhaX+Yar+zfiA/lC0r8w1X9m/EB/KFpX5hqv7N+ID+ULSvzDVf2b8QH8oWlfmGq/s34gP5QtK/MNV/ZvxAfyhaV+Yar+zfiA/lC0r8w1X9m/EB/KFpX5hqv7N+IGtT3QtN7OXJp+qSlh8qdvhN+vIFNnrVTXb2UuJaN9Czgn2dCzovfL7234Y9foAtVrxnoNnRhStdL1KlCCUYqNptj6QO+x450y8vqFlTtr+FWvLlg61FRWfpAs8JqaygNgAAAAAAAAAAAAAAAAABx6rqNnplqq99cQoU3JRUpZxnw/cwIn4Y8N9Pfehv06/cBUtdq8PeUT1bQNap22oqSqciyqdV752xs3uBYdF490m70+FTUbinZ3EVy1ISzu/FYXQDqq8X8M1VierW+Nnun9xFbfDHhn9L2/0S+4qMLjDhtY/6Yobeh/cVB8X8My+Nq9u14NP7iKR4v4ZjFKOrW6S8E/uA9Fxpw0l/reh+/wC4B8NOGv0vQ/f9wD4acN/pah+/7gJezvbe+tqdzaVFVo1FmM10aA6AAAAAAAAAAAAAAAAAAAAAAAAAAAAAAAAAAAAAAAAAAAAAAAAAAAGsotsmdiJsdPr0qdzY3NKNS1b/ACU218V/0WvFePpNdDSegUqOnXVvp7lTrXEHDtatSVSUe5bybePQZ7G9fh+0udPoWdaNXsqKSUYVpQW3/C1koxfadcSs6WnWkH5PLzatSdTLjDvW+7b8QJiKUYpJYS7gDkljPeBWeKOI6lpWhpOjU/KNWr+bGCWVST/pP2b/AL+gGnD/AAzUtr+eraxXV7qVTZTa82kvCK6ICyuEu5ID1AAAAAAAAAAAAAB5zp8zfRqWzArFGEeHNeVs+yo6fqNVug1PCpVMZccN9JeC72BZ4tN+nqwOO707ymvRrqcqVWjJuM4Y2T6rfxRnFdiptek1Ga56FhTt6tadKKjKvPnnLq28JZ+hIix61qVSdOapzcJSTSkusfSvxKVpp1lTsLWNCllxW7k3lyb6thI6goAAAAAAAAAAAAAAAAAAAAAAAAAAAAAAAAAAAAAAAAAAAAAAAAAAAAAAAAAAAAAAAAAAAAAAAAAAAADEllAQHGqceDtT6PFF9fWgOzh5f9XdNaSWbWl0/wCFASaWEBnAGAAAmhsU0AACaBRryPG238ANksJAVLi/5T8Lrrm5qL90QLZFY+/xA2AAAAAAAAAAAAAAAAAAFR90lKWh2UZfFlqFJPP/AJgJ33k0rO2l2Ptt4fcBiWh6W00tNsln/wAPD7gMR0LTEt9Nsn/9PH7gNlomk487S7HP6vD7gM+8mkfoux/Z4fcTdD3k0j9F2P7PD7hbgz7yaR+i7H9nh9xQ95NI/Rdj+zw+4mh7yaR+i7H9nh9w0PeTSP0XY/s8PuKOPWNH0qno97OGmWUZRt6jUlQimnyvdbAeHAizwfpsu7s33/7zAsQAAAAAAAAAAAAAAAAAAAAAAAAAAAAAAAAAAAAAAAAAAAAAAAAAAAAAAAAACqcT8SOhVhpuiYutUuFiEabyqfdzSYHtw5w0tIpTrXFTym/r7168ur8VnwAsMU1Lpt6APQAAAAAAAAAAAAAAABxarp9tqdnO1vKfaUprdd68Gn3MCN4YvLiMa2lallXlkopzc+btYPPLJd/d4AT4AAAAAAAAAAAAAAAAAAAAAAAAAAAAAAAAAAAAAAAAAAAAAAAAAAAAAAAAAAAAAAAAAAAAAAAAAAAAAAAAAAAAEBxx8jdT/sf4oDt4d+TmmfqtL/CgJHK8SBlYzkoAAMZWepMGSpDKXVhWMompIcy+kTtWcokujOV4mgAqPF/yp4V/Wqn2RAtyAAAAAAAAAAAAAAAAAAACo+6T/qWx/wCY0f8A8gLagMkDK8QMPqL4MZWOpOIZLZtGRuBlLvQDKAyBxa3/AKjv/wBXqf4WBF8BfIvTP7OX+JlFhAAAAAAAAAAAAAAAAAAAAAAAAAAAAAAAAAAAAAAAAAAAAAAHnXqQpUpVKklGEVmUn0S72BDrirh/mz78WeP7VbAb/Czh79M2X1qAfCzh79M2X1qAfCzh79M2X1qAfCzh79M2X1qAfCzh79M2X1qAfCzh79M2X1qAfCzh79M2X1qArPFHGNK5nHS9DvqMHX82reuXmU4vd4fjjIHVoNXg/RKUXa6nZyuJRSq3Eq2Zzf2L2AWjTNSstShUnYXVK4jF4lKnJSSYHaAAAAAAAAAAAAAAAApdbX+JLrX9S0/R7HT6tOynGLlWlKMsNbd/rA9Hd8dNbaZpOfDtJf8AqAjNQseML68oXPkOn293RlzQq0qrUnHvi8vEl09QEnG8443UNN0nb/5suv8AeA28s4+/Rej/AFsv/UA8s4+/Rej/AFsv/UA8s4+/Rej/AFsv/UA8s4+/Rej/AFsv/UBh3fHrWJaZpCXoqy/9QHRwtrmpane6lZ6rb21KvYzhFqjnGXnPVvPRAWcAAAAAAAAAAAAAAAAAAAAAAAAAAAAAAAAAAAAAAAAAAAAAAAAAAAAAAAAAAAAAAAAAAAAAAAAAAAAEBxx8jdT/ALH+KA7eHfk5pn6rS/woDtl8Z7d5Enqoa5WsLXWZVXd+T3NCCqqLrTSqy7o8ucdy6Irfx36lStdRjp11mpOFSaSca04Jxab35WvBCs8fXveKndXtvprqzjR5W5xhNqUsdE31QWuDULOFCNxZRrVJW0ezko9rLmpyckmlLOcNN9WysV2TsLaOt2Dg6q/Izz+Xm08cuHjOH1ZmNvO20q1jxDXSjW8yCnFO4qNKWd3hyx/AcvEbQ0+3jr9armqpRpxms1ptKTzl4zh/QYl/pyq4jLm1hca/PsrarcW83T55xu6kVTTeHLCl/wCxv+C7xR76xbW9pPTqdXy24pU4unJUpzcpLHV8rWenUx/Dd5WCV4flKWnOSnOVFzbpRnLMlHphvr1z1OgmUsJLOQKlxf8AKnhX9aqfZEC3IAAAAAAAAAAAAAAAAAAAKj7pP+pbH/mNH/8AIC2oDWUlGLk/DOCCEp0b+/h5dS1KrQ5uZRoqEHTWG1l7Z/eBo46hf3NajS1CpawtkouVKEW6svF8ye3qF8EXaave22p3Xl1xz21OKg1y7Qm84x4p+n0jiFa51Klw/UvbjVK9vV8rUJvlglTg6nK0sx6JeO5vhN5j3pXtadjeRstXrXVOnTUld4g3B/1ViOP3HDnc5DfQb2rXrwjS1SepUZU81ZSUH2UsdE4pfQzry/xGbGvdW+qSqVtSq3VpOq6EVUUPNlhtvzUvAvH/ABFoj065JRx63/qO/wD1ap/hZIIzgL5F6Z/Zy/xMosIAAAAAAAAAAAAAAAAAAAAAAAAAAAAAAAAAAAAAAAAAAAAAA4tZ/wBS336vU/wsCscFcP6Ne8JWFxd6Za1q04S5pzppt+c+rAnPgpw9+hbH6lAPgpw9+hbH6lAPgpw9+hbH6lAPgpw9+hbH6lAPgpw9+hbH6lAPgpw9+hbH6lAPgpw9+hbH6lAPgtw/+hrL6lAZ+C3D6bfvPZb9fyKAg/c+pU6F1xFSowjCnT1GUYxisKKWcJAXMAAAAAAAAAAAAAAABTuF9+N+Kc/7Sj9kgLiugGMLuQDlXgBkAAAAAKhwl8ruKl4XFP7JAW8AAAAAAAAAAAAAAAAAAAAAAAAAAAAAAAAAAAAAAAAAAAAAAAAAAAAAAAAAAAAAAAAAAAAAAAAAAAAEBxx8jdT/ALH+KA7eHfk5pn6rS/woDuksvrhZ3wBF0dGt6VS7mri6c7vPaN1m/avDbC9gNeT4bteyo01d6go0m3DFzLZgYr8OUpWtSFC7uoXM2nG4nVc5wfob6AZ03RHZ21ehdXUrxVlic6lNRk/W1u36QY6rLSbezqOpGdapUceVTq1HNxj4LPQDypaJQpXru43V86jecSuJNP0NeHoA1q6Bb3F1Vru8v4zqbS5LmUVjwx4EyZg84cL2dGXPRu9RpvCTcbqSyvAs66g9XoNp/onLVul5GsU+Ws1n0vxJJJ4Om10+ja3NxXocylcSU5x5ts4Syl3PYo74rEUvsAqXF/yp4V/Wqn2RAtyAAAAAAAAAAAAAAAAAAACo+6T/AKlsf+Y0f/yAtqAYWMY9AEM9JuKcnG11CpQtm3mlGCb3e/LLqgNrjS6zue2sr6dtOcUqj5FPnwvT0fpA8NP0apYXFWvRvpSp1IcvJKmnus4eereW/wDKA86mg3M9PdtLUpZdwrjm7COYy5ubGM+O48EhWsa1fTZWsrxdtKOHXVJL93Qlko5feivGFGpb37hdUodnKrGivyke5OL29pRwfBGgrNRVSiruNRT8qVtDnf4+kCz26nGjGNSfaTisSnjHM/EDn1v/AFHf/q9T/CwIvgL5F6Z/Zy/xMCwgAAAAAAAAAAAAAAAAAAAAAAAAAAAAAAAAAAAAAAAAAAAAADj1n/Ut9+r1P8LAieAPkVpv/BL/ABsCxAauT8AMc770A5nn/O4BzxnOEBq6ksrGMd+QM9o3stn9IHonlJgGBT+A/wDWHEv/ADKf8QLgAAAAAAAAAAAAAAAAp3C3y34q/tKP2SAuK6Ac1/fW2n2/b3laFGllLml0ySkeFpq9lewqStbinUVPeeH0NRK87XXtNvLhULa8pVJvOIrOSVY2hrmnVLnyaneUpVubl5N857kBvX1ext7pW1a5hCs+kG9wO2EubfK9gGwFQ4S+V3FX6xT+yQFvAAAAAAAAAAAAAAAAAAAAAAAAAAAAAAAAAAAAAAAAAAAAAAAAAAAAAAAAAAAAAAAAAAAAAAAAAAADEnhAQHGzcuDtTwtnRfX1oDs4fbXDumrwtKX+BASSw1kByoDEkkumfaBiLyBtyxxjuAzhAaPC6L94GYPLYG2FgDHLHfHeAwl0AytlgCpcX/Kfhd+FzUefZEC2RefV3AbAAAAAAAAAAAAAAAAAACpe6R/qWx/5hR//ACAtSl5wG+QNXFMBhAFCK6AOWIBRW272AxyRznfPeBlRiBmKUVgDi1t/9CX/AOr1P8LAi+An/wBTdNX/AMt/4mBYgAAAAAAAAAAAAAAAAAAAAAAAAAAAAAAAAAAAAAAAAAAAAABx6z/qW+/V6n+FgRPAHyK03/gl/jYFiJog9SV/7628LfUJUaVVNOCoxklj0tbdRo9dTuLjymhaWc1Tq12/PccqMcbvHRsaOKV7f2t9T0qtXjVq196VdQUWorq3FbdcfSNHbTttShGUKupKcZQeKrpRUoy7mkttho5NDur11FSvrmNaNeDqW75Ix81bPKXfuirj10zy16reK41DtaVOfKqfYxj1Sa85LO2RWdTq6BRgU/gP/WHEv/Mp/wAQLgAAAAAAAAAAAAAAAAp3C3y34q/tKP2SAuK6AQ/FlWNLh64lKcINuKi5yws8y7yWaseWm9rXqrULq7sp04w5FO2nzRa725M1LjNc2nanp0r3U831Cak+blhVUm0k84w99iXteLxtrikq9tGy1KjeUpVYuNtKMeelF/0v6yx6QPSjdafb2eoWt+6flE6lTnoyXnVm845V3+jAE3pEJU9PoQqLE1BZz3LuQHaBUOEvldxV+sU/skBbwAAAAAAAAAAAAAAAAAAAAAAAAAAAAAAAAAAAAAAAAAAAAAAAAAAAAAAAAAAAAAAAAAAAAAAAAAAANZWAI/V9Ljqml3FhOq6cK8eVySy4r0AV6HBF1TpxpUuJtUpwikoxhPlUUumEtgNvgXe/OzWPrX94Gr4NvVLHwr1n61/eBD8RabPQrHta3FWs1K1R8tGgqjcqkvVnp6fvA79P4U1K5saNatxHrFCpUinKl22XD0bMDr+Bd787NZ+tf3gPgXe/OzWfrX94Gr4NvVs+KtYeF/tfxAjLLQr2vq15p1fiXVaNWhyzp8tdPtabziWM5zs8+wCTjwbeSx/1s1nf/wCa/vA2+Bd787NZ+tf3gPgXe/OzWfrX94D4F3vzs1n61/eBta8FTpalaXtzrl9eStZ88I3D5kn7egFrhDk72/WBsAAAAAAAAAAAAAAAAAAIPi7RbnXNKpW1pWp0atOvGspVE2vNT8PWBGPTOOFutc07P6v+AGPIeOcf69079n/ACM12+4t0Kyd1ea/p+G8QhG386b8EsbgSNta8cXNvTr09csVGpFSSnauLXrTjlAenvdx1+ndO/Z/wAe93HX6d079n/AB73cdfp3Tv2f8A/wCQI/TK3Gmo+UKGs2dKpb1ZUqkKlrhpro/i7prDXrAkPe7jp/8A77p37P8AgA97uOv07p37P+AHnX0fjW5oVKFfW9PlTqRcZLyfGzWH3AT3DmmVNI0K00+rUhOVCLTcc4e7e2fWBKAAAAAAAAAAAAAAAAAAAAAAAAAAAAAAAAAAAAAAAAAAAAAADj1n/Ut9+r1P8LAieAPkVpv/AAS/xsCxGcELqGm6pc39O4tb+hQjSTUIytnN79d+ZeCKPNaLd9ipzvl5ZGo6kasKWIpvucc7rHpAytCqVX5RdXTqXsWnCtCHKoNJ7KOXtvvuBitper1rStTnqtNVKkOSLhb8sIrxxzdfTkLHLR4WnbVLOrY1qFvWofzlRUXLtFjGMOW3qKV7PR9Y7S4cdUtlG4eZLyR+r+v4JBlPW9PsbenTy3yRSy+8K9GBT+A/9YcS/wDMp/xAuAAAAAAAAAAAAAAAACncL/Lfin+0o/ZIC4J7AaV6UK1PkqQjOLfSSygNYUoRp8kacYx8OVJBK8/JKCalG2pJ97UEgsZjbU4VOenRpxljHNGCyBmdvBuM3ShKcekmk2vaB7QTWc94GwFQ4S24u4q9NxT+yQFvAAAAAAAAAAAAAAAAAAAAAAAAAAAAAAAAAAAAAAAAAAAAAAAAAAAAAAAAAAAAAAAAAAAAAAAAAAAAAAAYyvECG4j1620O1VWp+UrzTjSox+NUf8F6cARPDmg3dxee/vEOKl/U3pUX8WgvV4gWtRkpLCfpA9QAGk45fTIFf4moztJ2ut0F+Us58lSPPyqdKTSae3jyv2MCepNN+bJSWM5XRgeoAAAAAAAAAAAAAAAAAAAAAAAAAxLPK8dQOK/vbfT7KreXM1CjSjzSl4L0elvAFU0elfcT6tDW9Rt409PoZ8it6m7k/wCuwLvT2gs9QNgAB9AKvrdOOj6pb67RXLSqTVK9XO0nF7KeMbuPs2QFmhOLgmpZTWzA2TT6AAAAAAAAAAAAAAAAAAAAAAAAAAAAAAAAAAAAAAAAAAAAAAAAAAces/6lvv1ep/hYETwB8itN/wCCX+NgWIAAIABiDAoFgyAYFP4D/wBYcS/8yn/EC4AAAAAAAAAAAAAAAAKJo+o2On8acS+XXlC3VSpTUe1qKGcJ5x9KAsceJdBxvrFiv/qI/eBn4S6D+mbD9oj94D4S6D+mbD9oj94Snwl0H9M2H7RH7wsZ+Eug/pmw/aI/eA+Eug/pmw/aI/eA+Eug/pmw/aI/eBh8SaE9lrFg2/8AxEfvAgeDa9K54l4krW9SNSlOvTcZRaaksS7wLqAAAAAAAAAAAAAAAAAAAAAAAAAAAAAAAAAAAAAAAAAAAAAAAAAAAAAAAAAAAAAAAAAAAAAAAAAAAAAAAhuJNZp6Hp0rupCVSUpqnCCy3KTzhbdOgEPw9oF1XvXr3EP5S/qLNGk/i28e5Y7n/nrkC203ibj3fvA9AAAABz31vTu7adtWipU6kXGSaTX0MCG4Uupxp1tHupp3WnS7PdrMqfWDwu7laXrAsIAAAAAAAAAAAAAAAAAAAAAAAAAxL4rwBQXVvONNQ5aHPQ0K1qZlLlw7iSfTD6rxT+4C8U4xjGMYxUUtsJLZeHoA9afxfT375A2AAH0A5Ly3p3lnVta8eejWg4VE87xez3W4ENw7Xq21zdaLeV3OvaedSlUmnOpRfR7eGN2/FAWGl8XpgDcAAAAAAAAAAAAAAAAAAAAAAAAAAAAAAAAAAAAAAAAAAAAAAAAHNqNGVxp9xQptKVWlKCz0y00BS9M0vjXStOo2Npc6V2NHKgpczfXPXHpA8L3VuLrHUbawrX+kO4uZNKMacpOPg3tsu72gSnYe6B+d6N/dl9wDsPdA/O9G/uy+4B2Hugfnejf3ZfcA7D3QPzvRv7svuAdh7oH53o392X3AOw90D870b+7L7gHYe6B+d6N/dl9wGOy4+T8670f0YjL7gOzg3SNQ0tahPVJ0JVryv2zdFvly+vVLvAsoAAAAAAAAAAAAAAHNc3NK2oyrXFWNOlBOUpt4SQHzrUqNPi7V7inoOm2bpRWa9/Wi/Pe3xe/ov/YC3UOEeH+xgquk2k5qKUpdljL8cZ2A3+CPDi//AGe0X/kAg+MNF4f0rh27uIaXQhUcOSEqdPzoyltF9e5gdmj8MaRU0i1qahotpG5lTTqpQSxICQXCPDmP9T2n9wCDuOHdE0/ienTr6ZbSsr6HLTTppKlUS6Zz3pPu64Amfgpw6s40i027+zAr/EnB9OjdWt9oul2tbsXy1bTlSjVTfXPiBJ8F3ek3FCtGwsqdheJpXNulhprOPWt2BbQAAAAAAAAAAAAAAAAAAAAAAAAAAAAAAAAAAAAAAAAAAAAAAAAAAAAAAAAAAAAAAAAAAAAAAAAAAAAAI3VdUtNIsal3e1OWnFbRW7k/BeLArWi2N/r2q0+INY56VGk82dqnsk/6T/z9gF0p/F36gbgAAAABrP14ArWvy97NRtdcg2qMWqF3u0uzb+NhJ5w22BYISyoPx39LA9wAAAAAAAAAAAAAAAAAAAAAAGs/igUvXbrUOINXloGkN0banhXl098JreKx12/ygLNpllT0/T7e0t9qdGKjFZzleOQJBdAAAAAAAV/imzl2VLVbWmnd2M+0TUU3KHSUeq7nn2ATFhc07yzp3FF5p1IqUXld6z3AdAAAAAAAAAAAAAAAAAAAAAAAAAAAAAAAAAAAAAAAAAAAAAAAAANanxQKnxBxBceVrRNAxV1SqvOksNUF4v0+voB08O8Oe9txVv7+58t1Ku25V5LGF4RXcBZV0AAAAAAAAw4p9UAwst97AyAAAAAAAAAAAAGJPEW/ACI1viCx0OjGrfVcRm8QUd3J+hAVehp2rcYThfarVlaaPKanSs4repHGzb8H3/uwBeLS0trWhGna0KdGH9WEeVAdGEBrPaPTIFK44c9U1HTOH6MqyVeqqlwqcMtU89cvwaYFwhFQSSS81behAey6ICL4h073z0utQg+WvHFShPCbjOPnRxnpuvoAzw9fw1TSqdxt2sfMqpSzyzWzTx39/tAkpKMYtpJekCrcQcK0tSuXqFhXq2WoRg0qlJ8qqPKa5vHp9+QPPQ+LZSuIaRrsfJdThLs3zRxGp4NPpl7esC1xlJv1AbxeQMgAAAAAAAAAAAAAAAAAAAAAAAAAAAAAAAAAAAAAAAAAAAAAAAAAAAAAAAAAAAAAAAAAAAAA0qScej364wBGXHEWkWleVG61S2pVIYUoTqJOPrAxacRaVeXMba21G3rV3nEIVFl43eF6gPbV9WttIsal5d1eWnHbHfJ+C9IFW0rS7viW/hrevU+W0hvZ2cl5qXdKXj4+n1bAXiEIqCSSwkBsljoAAAAAADDSfUDxvbajdWdW2rwU6VaLhOGccyfVbAQ3ClxJ2VWwrVYVq9hVdvJrLbS+K3l94FgAAAAAAAAAAAAAAAAAAADzc2l4bZbYGVUjjeUc+sDEqi7pICscT6tfzuaWh6Ioyv7mLc55z2EFjMmu7OerAkeHNFt9C09W1KcpzqS56tWUsupN9WBMqKSwkBkAAAAAAHlUip+bJJxfVMCu6TH3l4guNMgkrS9zcWyjF4hJLE4ZbwunNj/eAssJOW7YGwAAAAAAAAAAAAAAAAAAAAAAAAAAAAAAAAAAAAAAAAADeFkDTtNspd+AIjUOK9E02sqN5f0oVP6sczx6HjOGByw464bm1GOpR5pPCXZzX8AJ9VoyhGUGpKSzFp7MCna3xXXvbmWk8NW07i651B3SX5Ols8vPjj8AJnhrQLfRLVxjJ1Lqs+avXfWcvuAm+TZ7gbAAAAAAAAAAAAAAAAABvCyB5qqn0QCVRxWXHYDPaLbbZ94GO1WWkugFX1viycbmnpug20b++qRcmoyTjTXpfTP7gNNB4ThRrx1XWZO61SUnNyb2g3jp448QLbyrGPADKSSwugGQNaizH7AKRonZ6r7oOp3nPUq0bOCpUJb8sX0nHf05+0C78ixh/YBsB5zeZdegFfouelcWOHaRVrqkHPklN5jVhhNpdN04/wB0CxZctunpAcmE9/WBEa9odnrlh5PcxxJPmhVivOpvxX3AV6y1fVuG9Ro6fxLUjWtayUaF7DOIyXdJ/wCftAusKilTU4NSjJZT7mgN4ycm1jGANgAAAAAAAAAAAAAAAAAAAAAAAAAAAAAAAAAAAAAAAAAAAAAAAAAAAAAAAAAAAAAAAAAABq5Y7gKZq9zrPEOq3mlaNcUrayt0qd1WafM5N7wXenjPofiBK2fB+g0LenRlptvVlCOHOpTUpS9bA8dS4J0e4oLyOjDT68JqcK1vBKSaf7wK5pWl3F7xd738UXkrudjSVS0pSblGtFt+e/Vt1/gB9G7NY/ADdLCwAAAAAAAAAxN4i2BWdUctI1+21RSfkt21b3KzJ8r6wnhL0OOf94Cydon0WfUAVRP/ANgNottboDIAAAAAAAAAAAAADeFlgaueE28LHpAqWoXupa/cVLLQbjya1oySr3yb87f4sGurXj02xkDS39zjQ3Qi7qV1XrPedTtXHmfjgDnu+D7nRKyvOErrsa3ZyU6Nebkqu2cb7Z9YHp7n1nb1aNxqNz2k9WnUcLmVb48fQu9J/vx6ALpybrd7AbAAAAAAAAauOevTwAh+I9IWpWLdOfJd0PyltV5mnTn3NNboDfQNWhqmmwrxio1ksVqW6dOfenncCT7TZ4WWu7IG3OBsAAAAAAAAAAAAAAAAAAAAAAAAAAAAAAAAAAAAAAAMT+K98AU/iavd6pq9Dh3TLh0HODq3VZZyoZ2Sfj129QEjpXCWl6VCSo0FWqT+PWuMTnLfO/dn04A7bzQtOvLWpb1LOhyVVyvFNJr2oCjalo2paFc0tIt9Xq09N1OapwnVXaTpS6YymsJ+IF40PSLPR7GNpYw5YpZlJ/Gm/FgSCjJST2wB6AAAAAAAAAAAAAAAAABvCyBxanqllpllUubyvGnTjHOX1foS8QKlaatxfq1OV5pdjY07OpL8lG5clNx8dn3gZu9T410+i7u9sNOrW1JqVWNFyc+Xvxv4d4E1pvFOk3+m1b2NyqULdpVVV81wz4rwAgLjUNX4sq3FnoDjQ01NU6t5PPNLxcfRju/eBZ9F4esNEt+zsaXLKSSqVXvKbXiBKKGPvA3AAYbwBH67qFPTdGurypKUVSptpxWXnose1gQ3ufWM7Xh+Nxcdorm9qO4rc+Or6NehrD9oFqAAaSi5NgRHEtjUutNdS2ly3dtJVqEk0mpL0tdGgOrRtQparp9C+otctaOeXOXB98X6U9gJADz5H/lgcupaZb6nY1LS8pxqUqiw0109K8GBTp077ge/i1UrXmhV2lLm86dCWMe3938QLhpOp2eqWULuzqc9Oa6d8fQ/SB3KSfTcDIAAAAAAAAAAAAAAAAAAAAAAAAAAAAAAAAAAAAAAAAAAAAAAAAAAAAAAAAAAAAAAAAABzXdRUberUUZzcYN8sFlv1LxArfue01HhmM3UjKdWrOpJp5k9+kn4oC1U87+AGZ/F64Ap/E3LT4v4adNcs6lWpGTW2Y4Wzx1QFyAAAAAAAAAAMTWY429oFN4ir3WvqtoWiRjPDirq5m8RpYeeWOOsu/2Aa2nufUoW0I3Wr6jOsk+eVOtyxe/cnnH0geNzw1rGhVo3vDV7WupRi1VoXlTnU1jO3Tw+kCx8Na5DWdM7eVOVGtTk6danL+jJYz7NwJhPIAAAAAAAAAAAAAMTaUHl7AQfFl87Dhy9rwrOlUjTfZyjjPNjZb5A8OCbWnacKWCpSk1Upqq890pLMkBY4/FQGtSOWngCpWP+ie6beWtu+Sjc2Sr1YLpKaljm/ewLgAAAAAAAAAAeVZJtZeAKTqV3fS166p8J0u1q1UoXVWWOwptJ4eV/S9PT0AesOH+K3CMpcVNSa6eTRePb3geE9T4g4VuKj1hVNW0+WH5TCKg6WXh5Xh6P3gXWzvbe9taVzbVFOlVjzRku9AdCeVlAAAAAAAAAAAAAAAAAAAAAAAAAAAAAAAAAAAAAAGtRZg0BT+Eo83E/EVeeIVZV4KVJ7yhhPDbWzznuYFyyvEDGVnGUBUvdN34Sqf21P/EBabb+ah6IoD1AAAAAAAAAAAAAAAAAAGlX4m3XuApFKwt+LOKr64v6Sna6ZPyelSbw+dPMm8dU8PZgXNQVOPLCOIrbCWyA2w+uH6vxAoXG2hafQ1nTtXrUE6NW4VG5px2lVk/iy8O558QL1ZW1G1oRpW1KnSpRWIwhFRUd/BekDoAAAAGk03JdOmz70BTPdDuVOxsdLpyq9reXMV2dNPNSmvjZx61t9wFtt6ULWjRoUY4p04xhH1LoB0gAAGs1nHo3Arun50niitYZl5LqHNcUM80lGfWcc9FneQFkyvEDGV4oDOV4gec8N9MrAFK1Dh7UtCubjUuF50405JTq2LjlTaab5U9umfT3ICd4d4gstct4VKU4Qud1O3m8VINddvD0gTmV4gMrxAAMrxAAAAAAAAAAAAAAAAAAAAAAAAAAAAAAAAAAAAAAAAAAAAAAAAAAAAAAAAAAAAAAB4yi3zeY5dwFS4SrQ0e9vOG7icYVKVV1bfmeJVact846Z6bdeoFwg+uX6ANpfFeGBS5VYcQ8b28LVwna6MnOdWDT/KS/o79fi9UBdQAAAAAAAAACM4kvZadw/e3dOrCnVpUpSpueMc+Nlh9XnuA4ODrLyHhmxiqc6U6ke0qKecqUt3t3eoCxAeM1nPMsrwAqVsnY+6bXo0Go072zjWrLq5STaTy+nqAuME0BsAAAAAAAAAAAAB9GBF67YT1HRL2zpNRnWpSim+mWu/AEdwVeRuuGLSkoyhVtYqhVhN+dCUVjddV02QFkXRAazbTyllYAqWip6nx7f6rR/wCzW1BWql1VSWctxa2a2AuAAAAAAAAAABXeOtRraZw1XrUG4zm1SUlJxcebbKa7wOvh/TVpWiWtklDNOEeeUI4Upd78fpAknFvqs796A0qUadWE4VYKUZRcZRcc5T7n4oCscGzlb3mraIpyqUbCsuylJ7pSy+XHRJY7gLbBYgk/ADYAAAAAAAAAAAAAAAAAAAAAAAAAAAAAAAAAAAABie8XvgClXNaHDPGM7qvLlsdWiuecnlxqx6eqOH6QLfQqU6sFOnOM14p5XXfcBJ8uXlYW7fTAFQ4muqPEGpWvDlrONWEpqreOL+LBb4Ut8SAuNKPLLGctLAHqAAAAAAAAAAAAAAAAAANKq5qbjus96AqHBGad7rdrPHaUr2WZy/nKiy95ePrwgLkAAp/uib2OmwW8nf0morr35eALbTllvboBuAAAANKjxKOM+vAFIgqmt+6POf5Z22k0uVNNRjCq/p2a+wC7Jedt47gegAABpVxhZ6ZAqPG99awp2ttCU5amqsattCnDnaknndZWE+j9YGkLjjm5xVpW+m0ITWVSrOTnH0NoDwnxDrug3cXxNaUp21SLxVsot8jXc0wLfaXlvfW0Li0qxq0qi5oyT2aA6odH1694CpnG3iBVdf4VpXMnqOjctrq1KXaRnHZVH4S+gDGjcVurWqWmvW09Ou6FLtJc+8ZxSy2vD1bgc1PiDiTWKUXouj0qFOeZwubirzU5xzjoknlgYq1OPqNCdVQ0mfKnJRgpNyfgl4gSOgcUW2suNGUKlteRhmdCccN+PK+9exAWOC85vOfADcAAAAAAAAAAAAAAAAAAAAAAAAAAAAAAAAAAAAAAAAAAAAAAAAAAAAAAAAAAAAAIHiPhux11wlX7SlcU0+zrUniS26PxX3AQtvbcd2dGFvSq6XWp0lyxq1XLnku5v2Aa19K4u1h07XV7qzt7KUueq7VyU2lvy/56ekCy6NpFno9nG2sKbUc5nKTzKUvFsCVAAAAAAAAAAI/XrOeoaHeWdJQdStSlCHM8LLW2/cBF8FXkLjhu1hmbq0F2NRTW6lECyAeU3hvbp3gVC1j74+6RcXVr/M2Vqreq3tmTbfm9c4AuNNPvA3AAAAAAAAAAAAAAApmtcN39vfXGscN3Tt7qp51W3a82u08vfuzj/wBgM0+JeJo04qXCFeUkt2q6Sb9WAOa6lxTxLcRtZW1XQrRU5KrNy55VMrGF0/z3gWnQ9LttHsIWdpGShHLbf9Jvq36QJIAAAAAAAAAAqXuk2ruOGpVYUnOdvOM8r+jHPnP6ALJYV6VzbUq9CanSqQUoSXRpgdIACn8I5q8RcRX1Jc9tcV4Rp1F0k4p5S9WUBboPMf3AbAAAAAAAAAAAAAAAAAAAAAAAAAAAAAAAAAAAAANZ7Rb228QOHUtPtdUs6lrfUlVozwnGW3qafcwKzbcMa5pUp0dA1mnQspVOeFGtT7Tk9GcbL/PUDN1ofF95Qnb3PEFu6FTzZqnQUJNd+GlsBPcPaDp2h20qdhQjGUsdpNvmlJ473/BbAS+AAAAAAAAAAAAAAAAAAAAxLoBT9et9Q0rWYa/o9q7vtIqld0IJynOGVhpejbp7QO3TOMNHvbNV617RtamXGVGvUUJxfq7/AFgbajxdo1hZ1Ll6hQrygtqVKqnKb8MfxAjdJoajr+vUtd1O0lbW1nGULSjUTjNN4zJ+O3jtvsBcKUk8pNP1AegAABG6vq9jpFJ1tQuo0otPljnzpY64XVvfuAgl7oPD2c+VVnvt+Qn09eAOT3O60bq31LU5V1Uubq4zWisealnleF0zl/QBdottrDTWOqA9AAADi1e8hp+m17yrNwhRg5OSWcewCucD6Q1T9/NRzW1G9j2naTfNyRfRLGy27u7p0At+Ek8JAeFSEK1NwqRjOEk1JSWYyXRppgVXhte9HEOocPUl/o8Y+VW+OlOLeGnndvdfQBcKfxfaBs0n1QGskuV7AUjiK1XEXFtvo8pzVtb0lUvFBcrffFZ6tPbZdOoF0t7ejbW9OhQpxp0qaxGMVhJAemF4ICp8c2cbehR4gtoQheafNTdTG8oZw4+De+2em4Fjsa3lVtRuUmoVacZqPhlZA6gAAAAAAAAAAAAAAAAAAAAAAAAAAAAAAAAAAAAAAAAAAAAAAAAAAAAAAAAAAAB45k3LfdPYDPNldf8A2Ab43A861VUaXPKEpLK+LFye7x3AbqSlhx9bWAPVPIGQAAAAAAAAGJvEX3AUzVtB1Sw1K41rhy65atZc1e2l5yqtPO2dk8Z/gBmPGOo8ke04X1bmcd+Wk8Z78bdAPC41TiTiCrGz0uwudIpyi3WuLqnh4xhJfT3bgWXhvRqOh6VG0ozlUk5OdWcm25zeMv8AcBKgAAAAAAAAAAAAAxJpRbbwB5qTaeH9DAPPduu/0IDPnbNfuA86tenTnCnKpFTm2oxb3ltnZd+wHpBvmaax3+sDfIGQAAAAAAAAHhd0oVqUqVWnGpCaw4zSafrAo1O41jgmSo3EJXuiKokq2c1KMX3YXdnHX1ICRfuicOZa8rq7bbUZfcBx3XEep8SVatjwrDFs48tS8nmLhnry59GfT3oCz6JplPSdMo2VKXNKC86bWHN97fj6wJNdAMgAAAAAAAAAAAAAAAAAAAAAAAAAAAAAAAAAAAcGrX87CnbyhTVTtq8aTy8Yz3ktL5raF9CcKk6n5GFObi5TkktnjPXp+818T/XWfLLbsu1lXpdlnHPzrl9WTMun+utpXFGNNVHXpKDTabkkntkqxnyijKi6va03TxvNSXKvaB5K+p9rRhRlGvGq2ueE4tLC79wPWjfW9abhSuKM5f1YzTZU17ptv/O5lWxQAAAAAAAAAAAADGRRht9xNI17RvOO7c0VlS5tmZBwT6lEVc8MaHd3Eq9zplvUqzfNKTj1YHnT4X0G3rRq0tKt1OElKLUPitdMATEIrk5V0W2wRnaHft9hVZTedzKtioi9e1mno2l1bypCVSUUlTpx6zk3hL94Ff4f0O6vr/394iXaXlRZpUHvChHu9u/+cgWyNpbNZ7Cn6+VAVjiPhSlzVdY0apK11Km1U81vkm0nnKXe/ECZ4c1SGr6RQu0nGbWKkWknGa2ksZ23yBLAAAEDxvRlW4VvlDtOaNPmSh/Sx3Nd69AHTw5XVxolhUiqaUraDxT6LzVlejHTAEr3AeLeE8p7d6AqNpLtPdNvKkFzQjYRi2t0nzLb1+gC5Q+LuBsBiXxWBT9Kxb+6DqtOSb7ahCcJ1PjPpmKfgvAC4roBpKTi2BXuPJ/9UL+LfnSjGMfS+ZbASui7aTZQaalG3gmmuj5UB3gAAAAAAAAAAAAAAAAAAAAAAAAAAAAAAAAAAAAAAAAAAAAAAAAAAAAAAAAAAGGzNvZFAowodhTr0areox1CUY8s+aSi6jyku6Jv43JEhbWqdLV7+nCVW8oVq3Yyb3g91sJ4xy6uRCwd3CwVzYxsqVeVGTqOlcSnVqvbOY8qw1uStZEpeUdIt9IjLTK0JVZOhzyhNtyXaQ3fpHHu4zO+WPK67GdHU7i4qNalRrpW7z58I4XKorvW8v3mrIcuvF1oSm6MHUWJuK5l6e8zWZXsum4aAAAAAAAaVJ8iz3fYS3scVrq1ne1JUraupyi2viuOWvDPX2GsHVhNt976MzBjKSTWWvsKz2y2kt+4LGYT7ktunrCt4y5vo7gNgAAAAAAAAAABhhK5dUqTp6ZdTpycZRoyakuqeHuGpFatZ3lpX02pK+r13eUZOrCo9k1FYkl3dQzy6eFK8vbbhKlqdS8uK9zcQpw67R5pJcyX9bfq2Wrx7aSu9VpVIWalf0ba5nCHlF3OLnTznmaab22RIt6SVxGrYX1jTje17qMq03KFWXNLCg9s+vczyuU4dzty2t3eQttP1Ty+pVnd11CdCU/Mw1LaKxs1j7TcmsW4t0W2/HclWPQKAAAGJPCyIPOpWjTa55KOXhZxv6CW9kZVR47i0rPM/R7SQaOXM1nG+25VZwpR5ZpSXems5A8nSpJZ7Cln/hQZ1vCFOEc04RjzPOEsAjbZR2WFkijrQjNQckpSeEns36gMxm5PHQo3i8t9NgMgAAAAAAAAAAAAAAAAAAAAAAAAAAAAAAAABC8TJ9jYY/PKe30mafKrlR0lBVbp/wCgR1Os7h9Y45pcrl6ObB0vi/6N9UqWsq1nXsHZx0zmmpTqwcqHaebh4TS6J47upzhc/BZ29OvHSYzqUrqhK6rOPZxappb5Sy3t3eGDokLiEIUK8JxUdOoak3XjBbRp4eNvDOAtdarabV1TT56OqU6fa1ObscKMpci6Y26YOfL04+IeyrUZarplzC8pQu6ly+2tKVKEFRXJLZ4XN9LNxivoVNp4x+4EepGgAAAAAAAAAAAAMClaNb9W/wCBmEVa31S7pVNXVxcZSnWVs3FLlcM7dN+mfYdI1iTs9SlH3to11KpVu6Tk55SSwk+ntMVMedXiOMVBUbOpVnO5qW0YqaWXDO+fDYSI8/hNUjCrKemVUrapyXP5RNU84w1t53XuNLO0d8J6MNG1F19SpK+pzrqipOPMsSlyLH0esFiXvdZnpemW1xVpU6kZxSlOrXjSw8enr3mbe0R93rTu56PeWdGdTtZVV2SqNJtLG7W2PS9jQmtI1BahSqTnSlRq06jp1Kcnlxkuu5MEkBS+N3z3ug06knCj5fCXbYzmXdHHXfx7gLhGkuviBvGPKsZAxU+KBTvc+xz63thrUqm6fqAuYAAB51oqcezksqSaYFEt7u94JuK1vXsqlxosqrlQq0k/yClL4rff1792BZVxZw+0n772ays4dVbesCL1jjG2hOFrodL32u6sXKEKD5orHe8dV6AO7hTRq+n2NWvqEoz1C8qdrcSXj3LbbbfoBPxjyrAGQD6AVbizTbypUtdW0hQ98bJtxjLftYYfNDHTx9IG2l8badcqpS1RrTLqjLlnRuZcrzjuyB01+K9ApU6lX30tZOEXJxjUUpPC7l3sCAoS1HjDUrSvcWcrbRbZqso1FvcT35WmsbL0e0C9RwpY6egDcAAAAAAAAAAAAAAAAAAAAAAAAAAAAAAAAAAAAAAAAAAAAAAAAAAAAAAAAAAAwzF9ETpOiUNPUpSp0Z15VJz7VU0pedJvGevRnT4mpGFCEeblhGPM8vl2yyQeNPTbOlUdWlbUadSWczhTSbz6cBrSnpllSz2VpbwzjPLSSzjoJ6k9ZlYWs60a9ShSnWj0qSgnJe0ul7dKWCJI2SwgoAAAAAADh1mLnpdzCNSVNulLzo4ytvSZ5etcVb0vt7SjonPdSrQrRk/ykILlXIvNTS2Xp6mt6W48rPU9ThfWdftrqtp93WdKMrjs1zLlbTUYxTXTxNcZrD1trvUY0KN/Xvp1IVLt2/YqMVHk52s5SzlehmW+Uez98J68qNprFxUoUpc1zzwp8kV15E1HOfb0yHNyUtQ1JXtvdUq91cWFa5VJSqumlhtrKioqXVNJt9wVdKec7/u6AbgAAAAAAAAAAAwlc2pUpVtOuaVPHPOlKMc+LWEGoi9F0W1sLenJ0pO47NU5uVWU8PG6WXsvVgJUhHTLWOn+QRpLybk5FTeWuXGMePt6i0jlhw5pkLerQdGU4VUlJVK05PC6Ybe3sJCt7fQrG2qQnTpzcoTc4ynUlJp4xnLbztsL2ceijoOnULp3NK35aueZefJxi31ai3hexGpUsSUYYxuRY2AAAAGJdAK/xTKqqVg6Ki6vlkeVT6Z5ZdTM9WOWtql12dWlfU6UqtteUacnScoxkpOLz1ztnxwdOU6KzX1nUo+WV4UbZ2trX7KcWpOcllLK3wsZJnRjNxrd9zXtezoUnaWLUakZxk6lV8ql5u+FtJdxB5299eU9b1K6lVpSs6dKNSUMS5lFRbSjvhPx2FSMaZxR29zTp17ixrRqwlPlt2+enjpzbvu+wsiV1afqGp3NnHUJ+RUbKrTlUhzKXNGOG4yk84fdnGO8l6WOaw4ju5XXZ3tKPYzpTqRqwoTpp8uOnM3zJ57gPN3V9c6jo17d+TRoVJTqUowUudRcMrLbw9vBAdVvreoT8jvK1Cj5FeVezhCEZdpDZtNvOH08ALLTeVnb1rvA2AAAAAAAAAAAAAAAAAAAAAAAAAAAAAAAAADzqw58d6XcSpfGjot52Rr4f641VKTWJQjy+BmH+uN+ySjhRX0FWHZ5jhxXjugtHSxty7b7IiCpdW4rL/q7GmXok0+hGmwAAAAAAAAAAAAAMCjDjleskhFduOHa1xpt7Rc4Rr1q86tGa/oc2dn7G0/WWt7HtV0m9p0tOlZOh29nBxcakmoSylnDSb7vAiWue00K+p1bapcVKUpU7upcT5W+kubCW3Xc3MYe1fRLqpZ6nRhOnF3dbtIPmaSW3Xb0Ea43GtHQK1Ph+90+U6Tq3Dq8sktlzt4+0LysrN3o195TY3dq7epWtqTpctbKjvjLWE99jF9Zjmo6DqlrRs5UJ2k61CtWqSjOcow8952aWdvUbgl9H0+tZQqTuZQdevUlUqKn8WLfcs+HiNiJMiq5xfpdTUNH7S35fKrOauaGctOUd90urxnbxA7OH9estX0+jUpVlGty4qUpvE4tddvACW5o5xkCG4j1+y0bTqtSrWi6+MU6UcSnKTzjCA5+DdLqadpEZ3Dzc3c3cVuVvHNLfGH0wsLHiBYgMcyzjJNDnjnGdy/NGJNPbuA8K1CFelOnVhGpCaalCazzJrdARvwY0CT5Z6RZ5e7zSW4HRZ6TpmlynUsbGhQcl53ZwS5kgJGMkorLWcAOePigYzleIGHJYe4HlJZjyuXXcDhvND0m/r9te6fbV6qSjzTgm8eAHM+GOH09tIsuv+yRNExGMYKMYpJLZJdxRtBpNb7E0b5W3pKMgAAAAAAAAAAAAAAAAAAAAAAAAAAAAAAAAAAAAAAAAAAAAAAAAAAAAAAAAAMYM2dhuaXplEQKAGMAZAAAAAAAAAedemqtKVOSbjNOLw+5gcENIoQVpHlk42mVT87uaxv47Dka56XDdnSq0aincYoT56VPtXyQeGtl3Ld7DjbB0e8tqrONsoy5I1e2j526llvr62C2uejw7Qt6861G6voudR1JRVw1GTzndd4Z7I8N2aq05c9z2dOp2saPbPs4y8VHp3sNJmKaeX4bgbAAAAAAAAAAAABiWXFpAaRg1tjC7vQBuSqCIFQCsgAAAAAfQCPv9P8ALewUpyiqNZVVjfmwmsP0biNSuStoXbVq9WVWUe2r0qvKktuTG3qeBzuzotRtrpFzeXOoU61zOlZyvJN0VS3nhp/G64ykal/rDXbc8N9tWuOxu5Uba7x5RRUcqe2Hh/0dkuhhmvapofNd1Jxq8tvWpKlWociamksLD7i3whY6Pd23LTq3/bW0IuMafZKLx3Zl34LCvKnw9Whbys3qFSVi4ygqHIspNNJOWctLOxnl2sKOgVldUat1fSrRoUp0qcFSUUlLHg/QVGLfh+vTq2jq38qtC0yqVGVJJKLjhJvO+F3lGbfh10pUKc7qVS0tqnaUKEoLzHulmWd0k39JBOU1JZUl7fEDcAAAAAAAAAAAAAAAAAAAAAAAAAAAAAAAAAAAAAAAAAAAAAAAAAAAAAAAAAAAAAAAAAAEAYBR4zTkmmvVvgCs6twfSubmnf6TX97tRhPmdWEW1JPuccgc/wAH+K314sef1aIHTo3CFG2uZ32sVffLUJT5lWmsKGOmI9O8CyxeJRW4HsBy3FN16c6UatSk5L40Mc0fVkzx/wAaqAs7O9qazeWs9av3Tt+Rwz2eZZWXnzDU/wABt7+VqGp1LKlb1buq6s4xUpqKXLGL642j53pHH/FcdK4gh72SvJW841YVewdHOX2nNy4z4Z78ErNjwuNfr0ba6hVtVQvqMYtQcueLUnhSzt7fYWLjptLG6o3FOpX1atVk1mpRny8rbX9FJJrHduwzxv6ctDiaPvpT0+5oUYSnNwXZ1+dp4zusbdPEN2Y6LXWa13dJW9ip2/a9n2vbLnW+G3DGy9vQrH6S7y08JYz3masVu2vLqx9+bq4u7i6p2dVxp0p8qWOWL7l1879xY1+W93rN55HdxVj2FeNrOvRbqJvGOvTZrrj0Fw/L0ld3lfQaHb0lSubmUacWqnNnO+cpLGcPYzalR9zd0aetXdtd67cWFO35I0oQlDpyJvrFt75NZ1pPEnV12nZOdCtSqTlyKVvJST8o3S222e6yY34jzhf6m+JKdt5JFUJW0Zzg6y81uTzLpu+7HoOn561fiwR52sSSW/cZR6kAoAAAAAAAAAAAAAAAAAAAAAAAAAAAAAAAAAAAAAAAAAAAAAAAAAAAAAAAAAAAAAAAAAAAAAAAAAAAAAAAAAAAAAAAAAAAAAAAAAAAAAAAAAAAAADzkvOe2PB5A3jtld3cBkAAAAAAAAAAAAAAAAAAAAAAAAAAAAAAAAAAAAAAAAAAAAAAAAAAAAAAAAAAAAAAAAAAAAAAAAAwwI7W9UhpFkrqdGpWXOoKFPGW36zG9hHUacr+jawUpOtSlVUo4wkml/E6Z0PdXNJ04T7ek4ylyqXMmm89E/H0EHnLULRV1Rd7bqo20oOrFSbXdjOeoHLf63b29FVbbF65VVRVOhVjlSefF4XQLfG9hqkLuFwrmlK1qWzSrQqyj5ixnPMnjGN+oY160L61uYylbXdGuqe8uSrGX04exK38cFhrNxc6l5NUjaOO8lKlXjJqPdlZzn9xqIko31rK4lbU7mjUrx+NCM1KUfWuq9pnkMPULLynsPLKHbLbsu0i5J+rrkcZ/VXla2dSlqd5eOcWriEFFRzthYG/0EDeWN9acR0K1rKhKpc1K1SPO5JRjy0008d+UX+P/FY7HodV6RKhO5irt11c9pFNQU+bmS/4c7eolZtbe8txeq7q6jWpxuK8IQj2OXGCi8p79W2xF1rDRruvqtveXsbNSoRku2o8yq1FjCztsVnj/V42+hahQhY2zrWnktnW7ROKlzT2a32xncN3lr1p6Pc1NTheVqdhCUKvaOvRg41ppPaL26YwmWMflYW2o74T8EZqxXfefUalHVqNxO1Svpc8OVyfK8JYe3oLF/TqvNJqXNxOfaRUZ2crZvvTfeXVnJz2Fte++NC3vOSSs6T86mnyybwotN/0lh5x0yjNiV7eR6pband3FlKynTuZRaVaU8pqKj3L0Gt6wnjS80i8v6yuLi4hCtRWbZUpPlg++T8c9PU2YxHu7O/Wq0NQjUt3LsVSrxfMtst5jt6e83+usX4mItvG3X2kR6EAoAAAAAAAAAAAAAAAAAAAAAAAAAAAAAAAAAAAAAAAAAAAAAAAAAAAAAAAAAAAAAAAAAAAAAAAAAAAAAAAAAAAAAAAAAAAAAAAAAAAAAAAAAAAAAAAAAAAAAAAAAAAAAAAAAAAAAAAAAAAAAAAAAAAAAAAAAAAAAAAAAAAAAAAAAAAAAAAAAAAAAAAAAGGEQvE8HOyto8ra8rpZS/4jONI60pV7fi6FCVOfYU7ebpTXTDlHb0YOnxPrjVxCnZ22nyU/KaeoqU4KL81OTabfqZlWtzZwlpWoVOwzUnqm0nHdLtl+7HgEePEFKFvrWFKdtbryZylSjumu0y1sGvju0+tWha6xV0+Mr2GHKjVrrMq0uXv2WVnbGEVjI4LSMPfKlO1uq9xKdlWVbMOWEZebskkvT4mVt6d9pbKjR0B0KPZ1HTmptLDzy97NeEcljy1IaTaUKM46jb1XK6fLhxSjJS5n37tGate1lKnS1OlRsq1G6pu55nSqW7VanvvJzzh4edsdMFRdaaXL+4fMB04OSk4rK6PHQTrwOSOMYQGeVeAwOSOc4Acq8AHKvAByx8OgDlj4dAHKvAByrOcAOWPgMDljjGAHLHGMDBnCAAAAAAAAAAAAAAAAAAAAAAAAAAAAAAAAAAAAAAAAAAAAAAAAAAAAAAAAAAAAAAAAAAAAAAAAAAAAAAAAAAAAAAAAAAAAAAAAAAAAAAAAAAAAAAAAAAAAAAAAAAAAAAAAAAAAAAAAAAAAAAAAAAAAAAAAAAAAAAAAAAAAAAAAAAAAAAAAAAAAAAAAAAAAACNZQUupGjl233NJ9aummsZkvaRWeRf57ghyLOfDoRTkXpNMsOnl5y/SQrLgn16hYw6UW8td+ehBtyLx28CjKWFhAZAAAAAAAAAAAAAAAAAAAAAAAAAAAAAAAAAAAAAAAAAAAAAAAAAAAAAAAAAAAAAAAAAAAAAAAAAAAAAAAAAAAAAAAAAAAAAAAAAAAAAAAAAAAAAAAAAAAAAAAAAAAAAAAAAAAAAAAAAAAAAAAAAAAAAAAAAAAAAAAAAAAAAAAAAAAAAAAAAAAAAAAAAAAAAAAAAAAAAAAAAAAAAAAAAAAAAAAAAAAAAAAAAAAAAAAAAAAAAAAAAAAAAAAAAAAAAAAAAAAAAAAAAAAAAAAAAAAAAAAAAAAAAAAAAAAAAAAAAAAAAAAAAAAAAAAAAAAAAAAAAAAAAAAAAAAAAAAAAAAAAAAAAAAAAAAAAAAAAAAAAAAAAAAP/2Q==;" vertex="1" parent="1">
          <mxGeometry x="-210" y="-890" width="1092.62" height="623" as="geometry" />
        </mxCell>
        <mxCell id="fPLku5I8h9IwEL0rfJYV-230" style="edgeStyle=orthogonalEdgeStyle;rounded=0;orthogonalLoop=1;jettySize=auto;html=1;exitX=0;exitY=0.5;exitDx=0;exitDy=0;entryX=1;entryY=0.5;entryDx=0;entryDy=0;" edge="1" parent="1" source="fPLku5I8h9IwEL0rfJYV-165" target="fPLku5I8h9IwEL0rfJYV-80">
          <mxGeometry relative="1" as="geometry">
            <Array as="points">
              <mxPoint x="530" y="450" />
              <mxPoint x="530" y="565" />
            </Array>
          </mxGeometry>
        </mxCell>
        <mxCell id="fPLku5I8h9IwEL0rfJYV-231" style="edgeStyle=orthogonalEdgeStyle;rounded=0;orthogonalLoop=1;jettySize=auto;html=1;exitX=0;exitY=0.5;exitDx=0;exitDy=0;entryX=1;entryY=0.5;entryDx=0;entryDy=0;" edge="1" parent="1" source="fPLku5I8h9IwEL0rfJYV-226" target="fPLku5I8h9IwEL0rfJYV-80">
          <mxGeometry relative="1" as="geometry">
            <Array as="points">
              <mxPoint x="530" y="720" />
              <mxPoint x="530" y="565" />
            </Array>
          </mxGeometry>
        </mxCell>
        <mxCell id="fPLku5I8h9IwEL0rfJYV-232" value="ALQUILER" style="shape=table;startSize=30;container=1;collapsible=1;childLayout=tableLayout;fixedRows=1;rowLines=0;fontStyle=1;align=center;resizeLast=1;html=1;" vertex="1" parent="1">
          <mxGeometry x="712.62" y="195" width="180" height="150" as="geometry" />
        </mxCell>
        <mxCell id="fPLku5I8h9IwEL0rfJYV-233" value="" style="shape=tableRow;horizontal=0;startSize=0;swimlaneHead=0;swimlaneBody=0;fillColor=none;collapsible=0;dropTarget=0;points=[[0,0.5],[1,0.5]];portConstraint=eastwest;top=0;left=0;right=0;bottom=1;" vertex="1" parent="fPLku5I8h9IwEL0rfJYV-232">
          <mxGeometry y="30" width="180" height="30" as="geometry" />
        </mxCell>
        <mxCell id="fPLku5I8h9IwEL0rfJYV-234" value="FK,PK" style="shape=partialRectangle;connectable=0;fillColor=none;top=0;left=0;bottom=0;right=0;fontStyle=1;overflow=hidden;whiteSpace=wrap;html=1;" vertex="1" parent="fPLku5I8h9IwEL0rfJYV-233">
          <mxGeometry width="47.38000000000011" height="30" as="geometry">
            <mxRectangle width="47.38000000000011" height="30" as="alternateBounds" />
          </mxGeometry>
        </mxCell>
        <mxCell id="fPLku5I8h9IwEL0rfJYV-235" value="CÃ“DIGO" style="shape=partialRectangle;connectable=0;fillColor=none;top=0;left=0;bottom=0;right=0;align=left;spacingLeft=6;fontStyle=5;overflow=hidden;whiteSpace=wrap;html=1;" vertex="1" parent="fPLku5I8h9IwEL0rfJYV-233">
          <mxGeometry x="47.38000000000011" width="132.6199999999999" height="30" as="geometry">
            <mxRectangle width="132.6199999999999" height="30" as="alternateBounds" />
          </mxGeometry>
        </mxCell>
        <mxCell id="fPLku5I8h9IwEL0rfJYV-236" value="" style="shape=tableRow;horizontal=0;startSize=0;swimlaneHead=0;swimlaneBody=0;fillColor=none;collapsible=0;dropTarget=0;points=[[0,0.5],[1,0.5]];portConstraint=eastwest;top=0;left=0;right=0;bottom=0;" vertex="1" parent="fPLku5I8h9IwEL0rfJYV-232">
          <mxGeometry y="60" width="180" height="30" as="geometry" />
        </mxCell>
        <mxCell id="fPLku5I8h9IwEL0rfJYV-237" value="" style="shape=partialRectangle;connectable=0;fillColor=none;top=0;left=0;bottom=0;right=0;editable=1;overflow=hidden;whiteSpace=wrap;html=1;" vertex="1" parent="fPLku5I8h9IwEL0rfJYV-236">
          <mxGeometry width="47.38000000000011" height="30" as="geometry">
            <mxRectangle width="47.38000000000011" height="30" as="alternateBounds" />
          </mxGeometry>
        </mxCell>
        <mxCell id="fPLku5I8h9IwEL0rfJYV-238" value="PRECIO" style="shape=partialRectangle;connectable=0;fillColor=none;top=0;left=0;bottom=0;right=0;align=left;spacingLeft=6;overflow=hidden;whiteSpace=wrap;html=1;" vertex="1" parent="fPLku5I8h9IwEL0rfJYV-236">
          <mxGeometry x="47.38000000000011" width="132.6199999999999" height="30" as="geometry">
            <mxRectangle width="132.6199999999999" height="30" as="alternateBounds" />
          </mxGeometry>
        </mxCell>
        <mxCell id="fPLku5I8h9IwEL0rfJYV-239" value="" style="shape=tableRow;horizontal=0;startSize=0;swimlaneHead=0;swimlaneBody=0;fillColor=none;collapsible=0;dropTarget=0;points=[[0,0.5],[1,0.5]];portConstraint=eastwest;top=0;left=0;right=0;bottom=0;" vertex="1" parent="fPLku5I8h9IwEL0rfJYV-232">
          <mxGeometry y="90" width="180" height="30" as="geometry" />
        </mxCell>
        <mxCell id="fPLku5I8h9IwEL0rfJYV-240" value="" style="shape=partialRectangle;connectable=0;fillColor=none;top=0;left=0;bottom=0;right=0;editable=1;overflow=hidden;whiteSpace=wrap;html=1;" vertex="1" parent="fPLku5I8h9IwEL0rfJYV-239">
          <mxGeometry width="47.38000000000011" height="30" as="geometry">
            <mxRectangle width="47.38000000000011" height="30" as="alternateBounds" />
          </mxGeometry>
        </mxCell>
        <mxCell id="fPLku5I8h9IwEL0rfJYV-241" value="FIANZA" style="shape=partialRectangle;connectable=0;fillColor=none;top=0;left=0;bottom=0;right=0;align=left;spacingLeft=6;overflow=hidden;whiteSpace=wrap;html=1;" vertex="1" parent="fPLku5I8h9IwEL0rfJYV-239">
          <mxGeometry x="47.38000000000011" width="132.6199999999999" height="30" as="geometry">
            <mxRectangle width="132.6199999999999" height="30" as="alternateBounds" />
          </mxGeometry>
        </mxCell>
        <mxCell id="fPLku5I8h9IwEL0rfJYV-242" value="" style="shape=tableRow;horizontal=0;startSize=0;swimlaneHead=0;swimlaneBody=0;fillColor=none;collapsible=0;dropTarget=0;points=[[0,0.5],[1,0.5]];portConstraint=eastwest;top=0;left=0;right=0;bottom=0;" vertex="1" parent="fPLku5I8h9IwEL0rfJYV-232">
          <mxGeometry y="120" width="180" height="30" as="geometry" />
        </mxCell>
        <mxCell id="fPLku5I8h9IwEL0rfJYV-243" value="" style="shape=partialRectangle;connectable=0;fillColor=none;top=0;left=0;bottom=0;right=0;editable=1;overflow=hidden;whiteSpace=wrap;html=1;" vertex="1" parent="fPLku5I8h9IwEL0rfJYV-242">
          <mxGeometry width="47.38000000000011" height="30" as="geometry">
            <mxRectangle width="47.38000000000011" height="30" as="alternateBounds" />
          </mxGeometry>
        </mxCell>
        <mxCell id="fPLku5I8h9IwEL0rfJYV-244" value="" style="shape=partialRectangle;connectable=0;fillColor=none;top=0;left=0;bottom=0;right=0;align=left;spacingLeft=6;overflow=hidden;whiteSpace=wrap;html=1;" vertex="1" parent="fPLku5I8h9IwEL0rfJYV-242">
          <mxGeometry x="47.38000000000011" width="132.6199999999999" height="30" as="geometry">
            <mxRectangle width="132.6199999999999" height="30" as="alternateBounds" />
          </mxGeometry>
        </mxCell>
        <mxCell id="fPLku5I8h9IwEL0rfJYV-245" value="COMPRA" style="shape=table;startSize=30;container=1;collapsible=1;childLayout=tableLayout;fixedRows=1;rowLines=0;fontStyle=1;align=center;resizeLast=1;html=1;" vertex="1" parent="1">
          <mxGeometry x="712.62" y="945" width="180" height="150" as="geometry" />
        </mxCell>
        <mxCell id="fPLku5I8h9IwEL0rfJYV-246" value="" style="shape=tableRow;horizontal=0;startSize=0;swimlaneHead=0;swimlaneBody=0;fillColor=none;collapsible=0;dropTarget=0;points=[[0,0.5],[1,0.5]];portConstraint=eastwest;top=0;left=0;right=0;bottom=1;" vertex="1" parent="fPLku5I8h9IwEL0rfJYV-245">
          <mxGeometry y="30" width="180" height="30" as="geometry" />
        </mxCell>
        <mxCell id="fPLku5I8h9IwEL0rfJYV-247" value="FK,PK" style="shape=partialRectangle;connectable=0;fillColor=none;top=0;left=0;bottom=0;right=0;fontStyle=1;overflow=hidden;whiteSpace=wrap;html=1;" vertex="1" parent="fPLku5I8h9IwEL0rfJYV-246">
          <mxGeometry width="47.38000000000011" height="30" as="geometry">
            <mxRectangle width="47.38000000000011" height="30" as="alternateBounds" />
          </mxGeometry>
        </mxCell>
        <mxCell id="fPLku5I8h9IwEL0rfJYV-248" value="CÃ“DIGO" style="shape=partialRectangle;connectable=0;fillColor=none;top=0;left=0;bottom=0;right=0;align=left;spacingLeft=6;fontStyle=5;overflow=hidden;whiteSpace=wrap;html=1;" vertex="1" parent="fPLku5I8h9IwEL0rfJYV-246">
          <mxGeometry x="47.38000000000011" width="132.6199999999999" height="30" as="geometry">
            <mxRectangle width="132.6199999999999" height="30" as="alternateBounds" />
          </mxGeometry>
        </mxCell>
        <mxCell id="fPLku5I8h9IwEL0rfJYV-249" value="" style="shape=tableRow;horizontal=0;startSize=0;swimlaneHead=0;swimlaneBody=0;fillColor=none;collapsible=0;dropTarget=0;points=[[0,0.5],[1,0.5]];portConstraint=eastwest;top=0;left=0;right=0;bottom=0;" vertex="1" parent="fPLku5I8h9IwEL0rfJYV-245">
          <mxGeometry y="60" width="180" height="30" as="geometry" />
        </mxCell>
        <mxCell id="fPLku5I8h9IwEL0rfJYV-250" value="" style="shape=partialRectangle;connectable=0;fillColor=none;top=0;left=0;bottom=0;right=0;editable=1;overflow=hidden;whiteSpace=wrap;html=1;" vertex="1" parent="fPLku5I8h9IwEL0rfJYV-249">
          <mxGeometry width="47.38000000000011" height="30" as="geometry">
            <mxRectangle width="47.38000000000011" height="30" as="alternateBounds" />
          </mxGeometry>
        </mxCell>
        <mxCell id="fPLku5I8h9IwEL0rfJYV-251" value="PRECIO" style="shape=partialRectangle;connectable=0;fillColor=none;top=0;left=0;bottom=0;right=0;align=left;spacingLeft=6;overflow=hidden;whiteSpace=wrap;html=1;" vertex="1" parent="fPLku5I8h9IwEL0rfJYV-249">
          <mxGeometry x="47.38000000000011" width="132.6199999999999" height="30" as="geometry">
            <mxRectangle width="132.6199999999999" height="30" as="alternateBounds" />
          </mxGeometry>
        </mxCell>
        <mxCell id="fPLku5I8h9IwEL0rfJYV-252" value="" style="shape=tableRow;horizontal=0;startSize=0;swimlaneHead=0;swimlaneBody=0;fillColor=none;collapsible=0;dropTarget=0;points=[[0,0.5],[1,0.5]];portConstraint=eastwest;top=0;left=0;right=0;bottom=0;" vertex="1" parent="fPLku5I8h9IwEL0rfJYV-245">
          <mxGeometry y="90" width="180" height="30" as="geometry" />
        </mxCell>
        <mxCell id="fPLku5I8h9IwEL0rfJYV-253" value="" style="shape=partialRectangle;connectable=0;fillColor=none;top=0;left=0;bottom=0;right=0;editable=1;overflow=hidden;whiteSpace=wrap;html=1;" vertex="1" parent="fPLku5I8h9IwEL0rfJYV-252">
          <mxGeometry width="47.38000000000011" height="30" as="geometry">
            <mxRectangle width="47.38000000000011" height="30" as="alternateBounds" />
          </mxGeometry>
        </mxCell>
        <mxCell id="fPLku5I8h9IwEL0rfJYV-254" value="HIPOTECADO" style="shape=partialRectangle;connectable=0;fillColor=none;top=0;left=0;bottom=0;right=0;align=left;spacingLeft=6;overflow=hidden;whiteSpace=wrap;html=1;" vertex="1" parent="fPLku5I8h9IwEL0rfJYV-252">
          <mxGeometry x="47.38000000000011" width="132.6199999999999" height="30" as="geometry">
            <mxRectangle width="132.6199999999999" height="30" as="alternateBounds" />
          </mxGeometry>
        </mxCell>
        <mxCell id="fPLku5I8h9IwEL0rfJYV-255" value="" style="shape=tableRow;horizontal=0;startSize=0;swimlaneHead=0;swimlaneBody=0;fillColor=none;collapsible=0;dropTarget=0;points=[[0,0.5],[1,0.5]];portConstraint=eastwest;top=0;left=0;right=0;bottom=0;" vertex="1" parent="fPLku5I8h9IwEL0rfJYV-245">
          <mxGeometry y="120" width="180" height="30" as="geometry" />
        </mxCell>
        <mxCell id="fPLku5I8h9IwEL0rfJYV-256" value="" style="shape=partialRectangle;connectable=0;fillColor=none;top=0;left=0;bottom=0;right=0;editable=1;overflow=hidden;whiteSpace=wrap;html=1;" vertex="1" parent="fPLku5I8h9IwEL0rfJYV-255">
          <mxGeometry width="47.38000000000011" height="30" as="geometry">
            <mxRectangle width="47.38000000000011" height="30" as="alternateBounds" />
          </mxGeometry>
        </mxCell>
        <mxCell id="fPLku5I8h9IwEL0rfJYV-257" value="" style="shape=partialRectangle;connectable=0;fillColor=none;top=0;left=0;bottom=0;right=0;align=left;spacingLeft=6;overflow=hidden;whiteSpace=wrap;html=1;" vertex="1" parent="fPLku5I8h9IwEL0rfJYV-255">
          <mxGeometry x="47.38000000000011" width="132.6199999999999" height="30" as="geometry">
            <mxRectangle width="132.6199999999999" height="30" as="alternateBounds" />
          </mxGeometry>
        </mxCell>
        <mxCell id="fPLku5I8h9IwEL0rfJYV-258" style="edgeStyle=orthogonalEdgeStyle;rounded=0;orthogonalLoop=1;jettySize=auto;html=1;exitX=0;exitY=0.5;exitDx=0;exitDy=0;entryX=1;entryY=0.5;entryDx=0;entryDy=0;" edge="1" parent="1" source="fPLku5I8h9IwEL0rfJYV-246" target="fPLku5I8h9IwEL0rfJYV-80">
          <mxGeometry relative="1" as="geometry" />
        </mxCell>
        <mxCell id="fPLku5I8h9IwEL0rfJYV-259" style="edgeStyle=orthogonalEdgeStyle;rounded=0;orthogonalLoop=1;jettySize=auto;html=1;exitX=0;exitY=0.5;exitDx=0;exitDy=0;entryX=1;entryY=0.5;entryDx=0;entryDy=0;" edge="1" parent="1" source="fPLku5I8h9IwEL0rfJYV-233" target="fPLku5I8h9IwEL0rfJYV-80">
          <mxGeometry relative="1" as="geometry" />
        </mxCell>
        <mxCell id="fPLku5I8h9IwEL0rfJYV-260" style="edgeStyle=orthogonalEdgeStyle;rounded=0;orthogonalLoop=1;jettySize=auto;html=1;exitX=0;exitY=0.5;exitDx=0;exitDy=0;entryX=1;entryY=0.5;entryDx=0;entryDy=0;" edge="1" parent="1" source="fPLku5I8h9IwEL0rfJYV-128" target="fPLku5I8h9IwEL0rfJYV-54">
          <mxGeometry relative="1" as="geometry" />
        </mxCell>
      </root>
    </mxGraphModel>
  </diagram>
</mxfile>
